<?xml version="1.0" encoding="UTF-8"?>
<svg width="24px" height="32px" viewBox="0 0 24 32" version="1.1" xmlns="http://www.w3.org/2000/svg" xmlns:xlink="http://www.w3.org/1999/xlink">
    <!-- Generator: Sketch 50.2 (55047) - http://www.bohemiancoding.com/sketch -->
    <title>Gold</title>
    <desc>Created with Sketch.</desc>
    <defs></defs>
    <g id="Symbols" stroke="none" stroke-width="1" fill="none" fill-rule="evenodd">
        <g id="Guides" transform="translate(-9.000000, 1.000000)" fill="#C2A068" fill-rule="nonzero">
            <path d="M34.704212,5.28543257 C34.3311474,4.91249966 33.8353737,4.70710678 33.3081987,4.70710678 C32.7810236,4.70710678 32.2853158,4.91249966 31.9122513,5.2854984 L29.4333326,7.76389035 L28.5027449,6.83330261 C28.2456747,6.57636402 27.8290958,6.57636402 27.5719597,6.83330261 L25.7007933,8.70446895 L14.6679041,13.9306644 L12.4523601,11.7151204 C12.1952899,11.4581818 11.778711,11.4581818 11.5215749,11.7151204 C11.2645705,11.9721248 11.2645705,12.3888354 11.5215749,12.6459056 L13.4048038,14.5291345 L10.742991,15.7899967 C9.94847608,16.1664186 9.34803107,16.8295348 9.05238382,17.6572944 C8.83191562,18.2745264 8.80077754,18.9281629 8.95508552,19.5501346 L7.08370623,20.4364839 C6.75520928,20.5920427 6.61505498,20.9845274 6.77054792,21.3130244 C6.88311902,21.5505428 7.11938666,21.6896438 7.36585811,21.6896438 C7.46032567,21.6896438 7.55617568,21.6692362 7.64708837,21.6261827 L10.0539374,20.4862522 L16.3702293,17.4948234 L18.9673301,20.0919242 L18.0366107,21.0226436 C17.7795404,21.2795822 17.7794088,21.6962927 18.0363474,21.9534288 C18.1649154,22.0820627 18.3333771,22.1463138 18.5018387,22.1463138 C18.6702346,22.1463138 18.8386304,22.0820627 18.9670668,21.9536921 L19.8980495,21.0227094 L22.5054858,23.6301457 L19.5151761,29.9429485 C19.5138156,29.9456695 19.1332902,30.7489839 18.3735998,32.3528916 C18.2180411,32.6813886 18.3581954,33.0738075 18.6866923,33.2293663 C18.7776708,33.2724856 18.8735208,33.2928932 18.9679226,33.2928932 C19.2143282,33.2928932 19.4506617,33.1539239 19.5631669,32.9162738 L20.450372,31.043512 C20.709088,31.1071707 20.9708323,31.1392304 21.2306675,31.1392304 C22.4636831,31.1392304 23.6483787,30.4435278 24.2103783,29.2570548 L25.4709771,26.5956371 L27.3438705,28.4685305 C27.4724386,28.5969668 27.6408344,28.6612838 27.8092302,28.6612838 C27.9776261,28.6612838 28.1460877,28.5969668 28.2745899,28.4685305 C28.5315944,28.211526 28.5315944,27.7948155 28.2745899,27.5377452 L26.0693156,25.332405 L31.3135488,14.2610047 L33.1565394,12.418014 C33.4135438,12.1610096 33.4135438,11.744299 33.1565394,11.4872288 L32.2259517,10.556641 L34.7042778,8.07778826 C35.4739744,7.30782829 35.4739744,6.05532671 34.704212,5.28543257 Z M10.1864553,18.9668057 C10.1563047,18.6772149 10.1910635,18.382226 10.2919167,18.0999424 C10.4693314,17.6032471 10.8296905,17.2052984 11.306439,16.9794321 L14.3930595,15.5173244 L15.3818419,16.5061068 L10.1864553,18.9668057 Z M15.6562915,14.918986 L24.0622585,10.9370632 C23.8993266,11.4300061 23.8348122,11.9544163 23.8764174,12.4822497 L16.6452056,15.9078342 L15.6562915,14.918986 Z M20.8289006,20.0916609 L21.7598833,19.1606781 C22.0168219,18.9036079 22.0166902,18.4868973 21.75962,18.2298929 C21.5024839,17.9730201 21.085905,17.9731518 20.8288347,18.2301562 L19.8981153,19.1608756 L17.6334613,16.8962216 L24.2059018,13.7827421 C24.4013542,14.2217035 24.6763963,14.6234704 25.0214827,14.9684251 C25.370124,15.3170005 25.7761041,15.593886 26.2196079,15.78947 L23.1040217,22.3666503 L20.8289006,20.0916609 Z M23.0208112,28.693146 C22.7949449,29.1698945 22.3969304,29.5302537 21.8999718,29.7076683 C21.6176882,29.8084557 21.3226334,29.8431486 21.0329768,29.8131955 L23.493939,24.6183356 L24.4825897,25.6069863 L23.0208112,28.693146 Z M25.0810598,24.3438201 L24.0924091,23.3551694 L27.5226018,16.1133588 C27.6213484,16.1207319 27.7200292,16.125735 27.8183808,16.125735 C28.2470726,16.125735 28.6697079,16.0549008 29.0712773,15.9199471 L25.0810598,24.3438201 Z M29.6750797,14.0377057 C29.0436283,14.6691572 28.1443761,14.9361021 27.268889,14.7519726 C26.7704163,14.6475646 26.3150629,14.4005665 25.9520705,14.0377716 C25.6100781,13.6956476 25.3721647,13.2703132 25.2582112,12.8044927 C25.2533397,12.7529469 25.2427409,12.7014012 25.2250982,12.6507771 C25.0692102,11.7978042 25.3369451,10.9300851 25.9521363,10.3148281 L28.037451,8.22951338 L31.7603945,11.9524568 L29.6750797,14.0377057 Z M33.7734267,7.14680554 L31.2951006,9.62565831 L30.3641179,8.69460975 L32.8429707,6.21634946 C32.9674572,6.09186294 33.1326273,6.02339865 33.3081987,6.02339865 C33.4838359,6.02339865 33.6491377,6.09192877 33.7734267,6.2162178 C34.0299703,6.47276141 34.0299703,6.89026193 33.7734267,7.14680554 Z M28.279264,11.7105781 C28.0219304,11.4539028 27.6053515,11.4539028 27.3480179,11.7105781 C27.0913426,11.9679117 27.0913426,12.3844905 27.3480179,12.6418241 C27.6053515,12.8984994 28.0219304,12.8984994 28.279264,12.6418241 C28.5359392,12.3844905 28.5359392,11.9679117 28.279264,11.7105781 Z" id="Gold" transform="translate(20.994324, 19.000000) rotate(-45.000000) translate(-20.994324, -19.000000) "></path>
        </g>
    </g>
</svg>