<?xml version="1.0" encoding="UTF-8"?>
<svg width="30px" height="30px" viewBox="0 0 30 30" version="1.1" xmlns="http://www.w3.org/2000/svg" xmlns:xlink="http://www.w3.org/1999/xlink">
    <!-- Generator: Sketch 50.2 (55047) - http://www.bohemiancoding.com/sketch -->
    <title>Group 3</title>
    <desc>Created with Sketch.</desc>
    <defs></defs>
    <g id="Symbols" stroke="none" stroke-width="1" fill="none" fill-rule="evenodd">
        <g id="Missions" transform="translate(-6.000000, 0.000000)" fill="#E2B979" fill-rule="nonzero">
            <g id="Group-3" transform="translate(6.000000, 0.000000)">
                <path d="M30,20.8064516 L30,13.0645161 L28.5362903,13.0645161 C28.2798387,5.81758065 22.3083871,0 15,0 C7.6916129,0 1.72016129,5.81758065 1.46370968,13.0645161 L0,13.0645161 L0,20.8064516 L0.967741935,20.8064516 L0.967741935,29.0322581 L0,29.0322581 L0,30 L30,30 L30,29.0322581 L29.0322581,29.0322581 L29.0322581,20.8064516 L30,20.8064516 Z M27.5680645,13.0645161 L23.5243548,13.0645161 L26.1706452,7.77241935 C26.9990323,9.36870968 27.4959677,11.1624194 27.5680645,13.0645161 Z M22.7283871,12.4940323 L19.6775806,6.77419355 L25.5880645,6.77419355 L22.7283871,12.4940323 Z M11.9356452,6.77419355 L18.0643548,6.77419355 L15,12.5196774 L11.9356452,6.77419355 Z M14.1933871,13.0645161 L8.06467742,13.0645161 L11.1290323,7.31903226 L14.1933871,13.0645161 Z M18.8709677,7.31903226 L21.9353226,13.0645161 L15.8066129,13.0645161 L18.8709677,7.31903226 Z M24.9058065,5.80645161 L19.6930645,5.80645161 L21.4045161,2.72612903 C22.755,3.52790323 23.9414516,4.57548387 24.9058065,5.80645161 Z M20.5548387,2.26403226 L18.8937097,5.2533871 L16.8174194,1.10080645 C18.1408065,1.2933871 19.3974194,1.69209677 20.5548387,2.26403226 Z M15,0.967741935 C15.2274194,0.967741935 15.4533871,0.974516129 15.6779032,0.986612903 L18.0880645,5.80645161 L11.9119355,5.80645161 L14.3220968,0.986612903 C14.5466129,0.974516129 14.7725806,0.967741935 15,0.967741935 Z M13.1830645,1.10080645 L11.1062903,5.2533871 L9.44564516,2.26403226 C10.6030645,1.69209677 11.8596774,1.29290323 13.1830645,1.10080645 Z M8.59548387,2.72612903 L10.3069355,5.80645161 L5.09419355,5.80645161 C6.05854839,4.57548387 7.245,3.52790323 8.59548387,2.72612903 Z M10.3224194,6.77419355 L7.27209677,12.4940323 L4.41193548,6.77419355 L10.3224194,6.77419355 Z M3.82935484,7.77241935 L6.47516129,13.0645161 L2.43145161,13.0645161 C2.50403226,11.1629032 3.00048387,9.36870968 3.82935484,7.77241935 Z M2.90322581,29.0322581 L1.93548387,29.0322581 L1.93548387,20.8064516 L2.90322581,20.8064516 L2.90322581,29.0322581 Z M8.70967742,29.0322581 L3.87096774,29.0322581 L3.87096774,20.8064516 L8.70967742,20.8064516 L8.70967742,29.0322581 Z M10.6451613,29.0322581 L9.67741935,29.0322581 L9.67741935,20.8064516 L10.6451613,20.8064516 L10.6451613,29.0322581 Z M14.516129,25.1612903 L13.5483871,25.1612903 L13.5483871,26.1290323 L14.516129,26.1290323 L14.516129,29.0322581 L11.6129032,29.0322581 L11.6129032,22.7419355 L14.516129,22.7419355 L14.516129,25.1612903 Z M18.3870968,29.0322581 L15.483871,29.0322581 L15.483871,26.1290323 L16.4516129,26.1290323 L16.4516129,25.1612903 L15.483871,25.1612903 L15.483871,22.7419355 L18.3870968,22.7419355 L18.3870968,29.0322581 Z M18.3870968,21.7741935 L11.6129032,21.7741935 L11.6129032,20.8064516 L18.3870968,20.8064516 L18.3870968,21.7741935 Z M20.3225806,29.0322581 L19.3548387,29.0322581 L19.3548387,20.8064516 L20.3225806,20.8064516 L20.3225806,29.0322581 Z M26.1290323,29.0322581 L21.2903226,29.0322581 L21.2903226,20.8064516 L26.1290323,20.8064516 L26.1290323,29.0322581 Z M28.0645161,29.0322581 L27.0967742,29.0322581 L27.0967742,20.8064516 L28.0645161,20.8064516 L28.0645161,29.0322581 Z M0.967741935,19.8387097 L0.967741935,15.9677419 L27.0967742,15.9677419 L27.0967742,15 L0.967741935,15 L0.967741935,14.0322581 L29.0322581,14.0322581 L29.0322581,15 L28.0645161,15 L28.0645161,15.9677419 L29.0322581,15.9677419 L29.0322581,19.8387097 L0.967741935,19.8387097 Z" id="Shape"></path>
            </g>
        </g>
    </g>
</svg>