<?xml version="1.0" encoding="UTF-8"?>
<svg width="30px" height="30px" viewBox="0 0 30 30" version="1.1" xmlns="http://www.w3.org/2000/svg" xmlns:xlink="http://www.w3.org/1999/xlink">
    <!-- Generator: Sketch 50.2 (55047) - http://www.bohemiancoding.com/sketch -->
    <title>Gold</title>
    <desc>Created with Sketch.</desc>
    <defs></defs>
    <g id="Symbols" stroke="none" stroke-width="1" fill="none" fill-rule="evenodd">
        <g id="Groups" transform="translate(-6.000000, 0.000000)">
            <g id="Gold" transform="translate(6.000000, 0.000000)">
                <path d="M25.6071417,4.39790576 C22.7728369,1.56439791 19.0084276,0 14.9989232,0 C10.9894188,0 7.22500952,1.55811518 4.39070468,4.39162304 C-1.07680131,9.85759162 -1.47272416,18.5905759 3.39775532,24.5089005 C3,26 3,26 2.03478721,27.2418848 C1.78529044,27.5628982 1.10702804,28.1489366 0,29 C0.666666667,29.6666667 1.4996911,29.9874346 2.4990733,29.9623037 C4.34042877,29.9623037 6.27605158,29.3277487 7.89116542,28.2157068 C10.0655988,29.3842932 12.5102653,30 14.9989232,30 C19.0084276,30 22.7728369,28.4418848 25.6071417,25.608377 C28.4414466,22.7748691 30,19.0052356 30,15.0031414 C30,11.0010471 28.4414466,7.23141361 25.6071417,4.39790576 Z M24.9019585,24.9017941 C22.2559269,27.5457979 18.7367049,29 14.9991852,29 C12.4986854,29 10.044491,28.332389 7.90782052,27.0764873 C7.76890386,26.9971671 7.61014197,26.9508971 7.45799515,26.9508971 C7.26615786,26.9508971 7.06770549,27.0169972 6.90894359,27.1359773 C4.88472941,28.7025496 2.84728507,28.9338999 1.9542494,28.9537299 C3.01927712,28.1605288 3.91231279,26.931067 4.65981672,25.2190746 C4.79873338,24.9017941 4.73919767,24.5316336 4.5076699,24.2672332 C-0.387488578,18.7412653 -0.129500496,10.3201133 5.09641194,5.09820585 C7.74244355,2.45420208 11.2616656,1 14.9991852,1 C18.74332,1 22.2559269,2.45420208 24.9019585,5.09820585 C30.3660138,10.5646837 30.3660138,19.4485364 24.9019585,24.9017941 Z" id="Shape" fill="#C2A068" fill-rule="nonzero"></path>
                <circle id="Oval-2" stroke="#E2B979" cx="15" cy="15" r="11"></circle>
                <path d="M15,10 L13.2321429,13.2321429 L10,15 L13.2321429,16.7678571 L15,20 L16.7678571,16.7678571 L20,15 L16.7678571,13.2321429 L15,10 Z M15,12.9771429 L15.5142857,13.9171429 C15.645,14.1571429 15.8428571,14.355 16.0821429,14.4857143 L17.0228571,15 L16.0821429,15.5142857 C15.8428571,15.645 15.645,15.8428571 15.5142857,16.0828571 L15,17.0228571 L14.4857143,16.0828571 C14.355,15.8428571 14.1571429,15.645 13.9178571,15.5142857 L12.9771429,15 L13.9178571,14.4857143 C14.1571429,14.355 14.355,14.1571429 14.4857143,13.9171429 L15,12.9771429 Z" id="Fill-19" fill="#FAD59A"></path>
            </g>
        </g>
    </g>
</svg>