<?xml version="1.0" encoding="UTF-8"?>
<svg width="18px" height="14px" viewBox="0 0 18 14" version="1.1" xmlns="http://www.w3.org/2000/svg" xmlns:xlink="http://www.w3.org/1999/xlink">
    <!-- Generator: Sketch 50.2 (55047) - http://www.bohemiancoding.com/sketch -->
    <title>Arrow Copy 2</title>
    <desc>Created with Sketch.</desc>
    <defs></defs>
    <g id="Page-1" stroke="none" stroke-width="1" fill="none" fill-rule="evenodd">
        <g id="01_Dashboard_a_1366" transform="translate(-114.000000, -1334.000000)" fill="#FFFFFF">
            <g id="Objects" transform="translate(0.000000, 838.000000)">
                <g transform="translate(93.000000, 126.000000)" id="Group-7">
                    <g transform="translate(0.000000, 347.000000)">
                        <g id="Group-13">
                            <g id="Arrow-Copy-2" transform="translate(29.866667, 30.000000) rotate(-180.000000) translate(-29.866667, -30.000000) translate(21.000000, 23.000000)">
                                <path d="M17.6508801,7.30952126 C17.6123595,7.40911969 17.5553491,7.50258898 17.4752264,7.58303386 L11.3489204,13.6746268 C11.0407561,13.9818496 10.5423003,13.9818496 10.2349064,13.6746268 C9.92751257,13.3697024 9.92751257,12.8740087 10.2349064,12.5683181 L15.0638409,7.76614173 L0.770410723,7.76614173 C0.345144004,7.76614173 0,7.42291024 0,7 C0,6.57632362 0.345144004,6.23385827 0.770410723,6.23385827 L15.0661521,6.23385827 L10.2349064,1.42938346 C9.92751257,1.12292677 9.92751257,0.627233071 10.2349064,0.322308661 C10.5423003,0.0158519685 11.0407561,0.0158519685 11.3489204,0.322308661 L17.4752264,6.41390157 C17.55689,6.4951126 17.6131299,6.59011417 17.6516505,6.69124488 C17.6940231,6.78548031 17.7194466,6.88967559 17.7194466,7 C17.7194466,7.11109055 17.6932527,7.21451969 17.6508801,7.30952126 L17.6508801,7.30952126 Z" id="Shape"></path>
                            </g>
                        </g>
                    </g>
                </g>
            </g>
        </g>
    </g>
</svg>