<svg xmlns="http://www.w3.org/2000/svg" xmlns:xlink="http://www.w3.org/1999/xlink" viewBox="0 0 26 27"><defs><style>.cls-1{fill:none;clip-rule:evenodd;}.cls-2{clip-path:url(#clip-path);}.cls-3{fill:#3d4b55;}.cls-4{clip-path:url(#clip-path-2);}</style><clipPath id="clip-path"><path class="cls-1" d="M5.57,21.43V9.82H20.43V21.43Zm0-14.73H7.29v.85a.28.28,0,0,0,.29.28h2a.28.28,0,0,0,.29-.28V6.7h6.29v.85a.28.28,0,0,0,.29.28h2a.28.28,0,0,0,.29-.28V6.7h1.71V9.25H5.57ZM7.86,5.57H9.29v1.7H7.86V5.57Zm8.86,0h1.43v1.7H16.71V5.57Zm4,.57h-2V5.28A.28.28,0,0,0,18.43,5h-2a.28.28,0,0,0-.29.28v.85H9.86V5.28A.28.28,0,0,0,9.57,5h-2a.28.28,0,0,0-.29.28v.85h-2A.28.28,0,0,0,5,6.42v15.3a.28.28,0,0,0,.29.28H20.71a.28.28,0,0,0,.29-.28V6.42A.28.28,0,0,0,20.71,6.13Z"/></clipPath><clipPath id="clip-path-2"><path class="cls-1" d="M17.86,12.08v2h-2v-2Zm0,4.53h-2v-2h2Zm0,2.55h-2v-2h2Zm-2.57,0h-2v-2h2Zm-2.57,0h-2v-2h2Zm-2.57,0h-2v-2h2Zm-2-4.53h2v2h-2Zm0-2.55h2v2h-2Zm2.57,0h2v2h-2Zm0,2.55h2v2h-2Zm4.57,2h-2v-2h2Zm-2-4.53h2v2h-2Zm2-.57H7.57v8.22H18.43V11.52H15.29Z"/></clipPath></defs><title>Asset 2</title><g id="Layer_2" data-name="Layer 2"><g id="Layer_1-2" data-name="Layer 1"><g class="cls-2"><rect class="cls-3" width="26" height="27"/></g><g class="cls-4"><rect class="cls-3" x="2.57" y="6.52" width="20.86" height="18.22"/></g></g></g></svg>