<?xml version="1.0" encoding="utf-8"?>
<!-- Generator: Adobe Illustrator 20.1.0, SVG Export Plug-In . SVG Version: 6.00 Build 0)  -->
<svg version="1.1" xmlns="http://www.w3.org/2000/svg" xmlns:xlink="http://www.w3.org/1999/xlink" x="0px" y="0px"
	 viewBox="0 0 107.8 107.1" style="enable-background:new 0 0 107.8 107.1;" xml:space="preserve">
<style type="text/css">
	.st0{fill:#BE0F82;}
</style>
<g id="Background">
</g>
<g id="Objects">
	<path class="st0" d="M3.7,105.9L3.7,105.9c-2.2-1.4-3.7-3.9-3.7-6.7V50.9c0-2,0.6-4.4,1.6-6.7l5.7,4.9L37.6,75L8.2,100.1l-2.1,1.8
		C4.8,103,4,104.4,3.7,105.9z M100.5,49.1L70.2,75l29.4,25.1l2.1,1.8c1.3,1.1,2.1,2.5,2.4,3.9c0,0,0,0,0,0c2.2-1.4,3.7-3.9,3.7-6.7
		V50.9c0-2-0.6-4.4-1.6-6.7L100.5,49.1z M4.7,106.4C4.7,106.4,4.7,106.4,4.7,106.4C4.7,106.4,4.7,106.4,4.7,106.4z M97,107.1l-8.2-7
		l-24-20.5L59.4,75l-3.9-3.3c-0.3-0.3-0.9-0.5-1.5-0.5c-0.6,0-1.2,0.2-1.5,0.5L48.4,75L43,79.6l-24,20.5l-8.2,7 M102.4,38.3
		c-0.2-0.2-0.4-0.4-0.7-0.6L60,2.1c-0.4-0.4-0.9-0.7-1.3-0.9c-0.5-0.3-1-0.5-1.5-0.7C56.1,0.2,55,0,53.9,0c-0.3,0-0.6,0-0.9,0
		c-0.3,0-0.6,0.1-0.9,0.1c-0.5,0.1-1,0.2-1.5,0.4c-0.5,0.2-1,0.4-1.5,0.7c-0.5,0.3-0.9,0.6-1.3,0.9L6.1,37.7
		c-0.2,0.2-0.4,0.4-0.7,0.6l5.4,4.6l12.8,10.9V41.3v-6.1v-3.5h60.7v3.5v6.1v12.5L97,42.9l0,0l0,0l0,0L102.4,38.3z"/>
</g>
</svg>
