<?xml version="1.0" encoding="utf-8"?>
<!-- Generator: Adobe Illustrator 20.1.0, SVG Export Plug-In . SVG Version: 6.00 Build 0)  -->
<svg version="1.1" id="Layer_1" xmlns="http://www.w3.org/2000/svg" xmlns:xlink="http://www.w3.org/1999/xlink" x="0px" y="0px"
	 viewBox="0 0 385.7 400" style="enable-background:new 0 0 385.7 400;" xml:space="preserve">
<title>science_log</title>
<path d="M317.7,350.8c-1.5-3.6-2-7.5-1.5-11.4c-14.5,1.4-29.2,0.1-43.2-3.9c-37.3-9.6-78.9-32.7-117.2-64.8s-68.1-69.1-84.1-104.1
	c-13.8-30.4-15.1-55.7-3.6-69.5s36.7-16.9,69.1-8.5c37.2,9.6,78.9,32.5,117.2,64.8s68.1,69.1,84,104.2c12.2,26.7,14.6,49.5,7.1,64.1
	c4.5,1.6,8.3,4.7,10.9,8.7c17.1-41.8-23.8-119.3-98.9-182.3c-82.5-69.2-175-94.8-206.6-57.2s9.7,124.2,92.2,193.5
	c64.8,54.4,135.8,82,178.5,72.9C320.1,355.4,318.7,353.2,317.7,350.8z"/>
<path d="M220.8,26.8c-1.4,3.3-3.5,6.2-6.2,8.5c9,8.1,17.6,21,24.9,38c15.1,34.9,23.4,81.7,23.4,131.9s-8.3,97-23.4,131.9
	c-13.1,30.3-30,47.6-46.3,47.6s-33.3-17.4-46.3-47.6c-15.1-34.9-23.4-81.7-23.4-131.9s8.3-97,23.4-131.9
	c9.8-22.8,21.8-38.2,34.1-44.5c-0.4-0.7-0.7-1.3-1-2c-2.1-5-2.2-10.6-0.4-15.7c-40.3,10.4-71.7,93.3-71.7,193.8
	c0,107.7,36,195,80.4,195s80.4-87.3,80.4-195C268.6,125.6,249,57.2,220.8,26.8z"/>
<path d="M235.3,190.6c-8-19.3-30-28.4-49.3-20.5s-28.4,30-20.5,49.3c8,19.3,30,28.4,49.3,20.5c0,0,0,0,0,0
	C234.2,231.9,243.3,209.8,235.3,190.6z M183.5,199c-4.1,0-7.4-3.3-7.4-7.4s3.3-7.4,7.4-7.4c4.1,0,7.4,3.3,7.4,7.4v0
	C190.9,195.7,187.6,199,183.5,199z"/>
<path d="M217.5,11.3c-4-9.4-14.8-13.8-24.2-9.8c-9.4,4-13.8,14.8-9.8,24.2c3.9,9.3,14.7,13.8,24,9.9c9.4-3.9,13.9-14.7,10-24.1
	C217.6,11.4,217.5,11.3,217.5,11.3z M192.3,15.4c-2,0-3.6-1.6-3.6-3.6s1.6-3.6,3.6-3.6s3.6,1.6,3.6,3.6S194.3,15.4,192.3,15.4z"/>
<path d="M355.2,335.3c-3.9-9.4-14.7-13.9-24.1-10c-9.4,3.9-13.9,14.7-10,24.1c3.9,9.4,14.7,13.9,24.1,10c0,0,0,0,0,0
	C354.6,355.5,359.1,344.7,355.2,335.3C355.2,335.3,355.2,335.3,355.2,335.3z M329.8,339.4c-2,0-3.6-1.6-3.6-3.6c0-2,1.6-3.6,3.6-3.6
	c2,0,3.6,1.6,3.6,3.6S331.8,339.4,329.8,339.4z"/>
<path d="M384.8,173.5c-10.2-44.3-103.8-63.5-209.2-42.8C78.6,149.6,5.6,195.4,2.3,237.1c4.2-4.4,10-6.8,16-6.8h1.4
	c1.9-14.3,14.3-30.7,35.9-46.1c30.4-21.7,73.9-38.9,122.6-48.4c48.7-9.5,96.2-10,133.4-1.5c32.4,7.4,53.1,21.1,57,37.5
	c3.9,16.4-9.2,36.6-35.6,55.5c-30.3,21.8-73.9,39-122.6,48.5c-48.7,9.5-96.2,10-133.4,1.5c-13.7-2.8-26.8-7.9-38.8-15.1
	c-3,6.4-9,11-15.9,12.3C56.7,299.1,131,306.9,212.4,291C317.7,270.3,394.9,217.7,384.8,173.5z"/>
<path d="M35.5,245.3c-3.9-9.4-14.7-13.9-24.1-10C2,239.2-2.5,250,1.4,259.4c3.9,9.4,14.7,13.9,24.1,10c0,0,0,0,0,0
	C34.9,265.5,39.4,254.7,35.5,245.3z M10,249.4c-2,0-3.6-1.6-3.6-3.6s1.6-3.6,3.6-3.6s3.6,1.6,3.6,3.6S12,249.4,10,249.4z"/>
</svg>
