<svg xmlns="http://www.w3.org/2000/svg" viewBox="0 0 80.52 110.44"><defs><style>.cls-1,.cls-2{fill:#3c4655;}.cls-1{fill-rule:evenodd;}</style></defs><title>Asset 1</title><g id="Layer_2" data-name="Layer 2"><g id="Layer_1-2" data-name="Layer 1"><path class="cls-1" d="M40.42,48.06A1.18,1.18,0,0,1,42.78,48c.29,1.49,1.29,6.93,1.82,10.41.11.81.23,1.55.91,1.93,6,3.35,12,6.71,18,8.16,1.86.45,1.59.43.23-.59a42.31,42.31,0,0,1-7.57-7.28c-1.08-1.3-1.21-1.38-.34.25.32.61.63,1.26,1,1.91.5.82-.07,1.51-1,.94a38.53,38.53,0,0,0-5.88-2.52,6.07,6.07,0,0,1-3.63-3.62,34,34,0,0,1-1.08-4.47,2.13,2.13,0,0,1,2.17-2.62l4.61.2a.23.23,0,0,1,.11,0,10.26,10.26,0,0,1,7.25,3.5A136.31,136.31,0,0,0,75,69.78a2.58,2.58,0,0,1,1,3c-1.25,3.39-4.27,7.64-11,5-8.76-3.42-16.86-7.47-23.66-13.4a2.07,2.07,0,0,1-.74-1.57c0-4.92,0-9.84-.14-14.74Zm.25,18.32a74.44,74.44,0,0,0,11.53,8,.43.43,0,0,1,.22.38,25.81,25.81,0,0,0,0,3.63.65.65,0,0,1-.9.63,39.44,39.44,0,0,1-8.88-5.18c-1.27-1-1.27-.75-.31.3a88.27,88.27,0,0,0,10.75,9.34.55.55,0,0,1,.23.32c.09.38.22.75.32,1.14a.43.43,0,0,1-.25.51C52,86,42.25,88,40.26,88a35.77,35.77,0,0,1-13.1-2.56.42.42,0,0,1-.26-.51,28.07,28.07,0,0,0,1.2-10.17.42.42,0,0,1,.22-.38,73.61,73.61,0,0,0,11.53-8,.69.69,0,0,1,.82,0Zm-.57-18.32A1.19,1.19,0,0,0,37.73,48c-.27,1.49-1.29,6.93-1.79,10.41-.12.81-.25,1.55-.92,1.93C29,63.68,23,67,17,68.48c-1.85.45-1.59.43-.2-.59a43.11,43.11,0,0,0,7.57-7.28c1.08-1.3,1.22-1.38.34.25-.34.61-.65,1.26-1.06,1.91-.51.82.06,1.51,1,.94a39.09,39.09,0,0,1,5.89-2.52,6.17,6.17,0,0,0,3.63-3.62,41.4,41.4,0,0,0,1.08-4.47,2.13,2.13,0,0,0-2.18-2.62l-4.61.2a.18.18,0,0,0-.1,0,10.28,10.28,0,0,0-7.26,3.5A134.82,134.82,0,0,1,5.54,69.78a2.62,2.62,0,0,0-1,3c1.24,3.39,4.28,7.64,11,5,8.75-3.42,16.86-7.47,23.65-13.4A2,2,0,0,0,40,62.8c0-4.92.06-9.84.14-14.74ZM27.94,87.61c-5-2.73-9.63-4.38-15.38-3.26a13.35,13.35,0,0,1-6.18-.21C1.87,82.92-1.48,89.5.66,94.08c3.08,6.67,9.36,11,16.55,13.89,7.52,3,15.36,2.41,23,2.41s15.53.64,23-2.41c7.21-2.91,13.47-7.22,16.57-13.89,2.13-4.57-1.2-11.16-5.71-9.95a13.47,13.47,0,0,1-6.21.21c-5.72-1.12-10.4.53-15.37,3.26-8.58,4.73-15.3,9.85-25,13-3.86,1.28-3.63.51-.49-1.16,5.16-2.75,11-5.87,14.93-8.86,1.51-1.14,1.17-1.18-.41-1.14-4.61.08-9.63.38-13.68-1.86Z"/><path class="cls-2" d="M40.26,44a22,22,0,1,0-22-22A22,22,0,0,0,40.26,44Zm0-39.77A17.82,17.82,0,0,1,44,4.6a7.74,7.74,0,0,0-3.79.11c-6.33,1.89-11,8.91-11,17.28s4.7,15.39,11,17.28a7.74,7.74,0,0,0,3.79.11A17.78,17.78,0,1,1,40.26,4.21Z"/></g></g></svg>