<?xml version="1.0" encoding="utf-8"?>
<!-- Generator: Adobe Illustrator 20.1.0, SVG Export Plug-In . SVG Version: 6.00 Build 0)  -->
<svg version="1.1" id="Layer_1" xmlns="http://www.w3.org/2000/svg" xmlns:xlink="http://www.w3.org/1999/xlink" x="0px" y="0px"
	 viewBox="0 0 400 400" style="enable-background:new 0 0 400 400;" xml:space="preserve">
<style type="text/css">
	.st0{clip-path:url(#SVGID_2_);}
	.st1{fill:#E13A95;}
	.st2{clip-path:url(#SVGID_4_);}
</style>
<title>Asset 1</title>
<g id="Layer_2">
	<g id="Layer_1-2">
		<g>
			<defs>
				<path id="SVGID_1_" d="M325.3,325.4c-69.2,69.3-181.5,69.3-250.7,0c-69.3-69.2-69.3-181.5,0-250.7s181.5-69.3,250.7,0
					c0,0,0,0,0,0c69.2,68.3,69.9,179.9,1.6,249.1C326.4,324.3,325.8,324.9,325.3,325.4z M341.4,58.6c-78.1-78.1-204.7-78.1-282.8,0
					s-78.1,204.7,0,282.8s204.7,78.1,282.8,0C378.9,303.9,400,253.1,400,200C400.2,146.9,379.1,96,341.4,58.6z"/>
			</defs>
			<clipPath id="SVGID_2_">
				<use xlink:href="#SVGID_1_"  style="overflow:visible;"/>
			</clipPath>
			<g class="st0">
				<rect x="-117.9" y="-117.9" class="st1" width="635.8" height="635.8"/>
			</g>
		</g>
		<g>
			<defs>
				<path id="SVGID_3_" d="M288.1,111.9c-4.4-4.4-11.6-4.5-16-0.1c0,0,0,0-0.1,0.1L200,183.9l-72.1-72.1c-4.4-4.4-11.6-4.4-16.1,0
					c-4.4,4.4-4.4,11.6,0,16.1l72.1,72.1l-72.1,72.1c-4.4,4.5-4.4,11.7,0.1,16.1c2.1,2.1,4.9,3.3,7.9,3.3c3,0,5.9-1.2,7.9-3.4
					l72.1-72.1l72.1,72.1c2.1,2.1,5,3.3,7.9,3.4c3,0,5.9-1.2,7.9-3.4c4.4-4.4,4.5-11.6,0.1-16c0,0,0,0-0.1-0.1L216,200l72.1-72.1
					C292.4,123.6,292.3,116.4,288.1,111.9z"/>
			</defs>
			<clipPath id="SVGID_4_">
				<use xlink:href="#SVGID_3_"  style="overflow:visible;"/>
			</clipPath>
			<g class="st2">
				<rect x="-9.4" y="-9.3" class="st1" width="418.7" height="418.7"/>
			</g>
		</g>
	</g>
</g>
</svg>
