<svg id="Layer_1" data-name="Layer 1" xmlns="http://www.w3.org/2000/svg" viewBox="0 0 900 900"><defs><style>.cls-1{fill:#fff;}</style></defs><title>info-white</title><path class="cls-1" d="M500,50q93.15,0,174.9,35.16t143.26,96.68q61.51,61.55,96.68,143.26T950,500q0,93.19-35.16,174.9T818.16,818.16q-61.55,61.55-143.26,96.68T500,950q-93.19,0-174.9-35.16T181.84,818.16Q120.28,756.65,85.16,674.9T50,500q0-93.15,35.16-174.9t96.68-143.26q61.51-61.51,143.26-96.68T500,50Zm0,815.62q75.56,0,142.38-29t116-78.22q49.19-49.19,78.22-116t29-142.38q0-75.56-29-142.38t-78.22-116q-49.23-49.19-116-78.22T500,134.38q-75.6,0-142.38,29t-116,78.22q-49.23,49.23-78.22,116T134.37,500q0,75.6,29,142.38t78.22,116q49.19,49.23,116,78.22T500,865.62ZM612.5,668.75H556.25v-225H387.5V500h56.25V668.75H387.5V725h225ZM443.75,387.5h112.5V275H443.75Z" transform="translate(-50 -50)"/></svg>