<?xml version="1.0" encoding="utf-8"?>
<!-- Generator: Adobe Illustrator 20.1.0, SVG Export Plug-In . SVG Version: 6.00 Build 0)  -->
<svg version="1.1" id="_ÎÓÈ_1" xmlns="http://www.w3.org/2000/svg" xmlns:xlink="http://www.w3.org/1999/xlink" x="0px" y="0px"
	 viewBox="0 0 399.8 400" style="enable-background:new 0 0 399.8 400;" xml:space="preserve">
<style type="text/css">
	.st0{fill:#3C4655;}
</style>
<title>not</title>
<path class="st0" d="M384.9,381.1c-20,20.2-52.6,20.5-72.8,0.5l0,0L200.3,271.2L89.9,382.9c-19.1,21.2-51.7,22.9-72.8,3.8
	c-21.2-19.1-22.9-51.7-3.8-72.8c1.1-1.2,2.2-2.3,3.4-3.4L127,198.8L15.3,88.4C-4,67.4-2.6,34.7,18.4,15.5C38-2.4,67.9-2.6,87.7,15.1
	l111.7,110.4L309.8,13.7c20.9-19.4,53.5-18.1,72.9,2.8c18.2,19.6,18.3,49.8,0.4,69.7L272.7,197.9l111.7,110.4
	C404.7,328.3,404.9,360.9,384.9,381.1z"/>
</svg>
