<?xml version="1.0" encoding="utf-8"?>
<!-- Generator: Adobe Illustrator 18.1.1, SVG Export Plug-In . SVG Version: 6.00 Build 0)  -->
<!DOCTYPE svg PUBLIC "-//W3C//DTD SVG 1.1//EN" "http://www.w3.org/Graphics/SVG/1.1/DTD/svg11.dtd">
<svg version="1.1" id="Horizontal-2Line_xA0_Image_1_"
	 xmlns="http://www.w3.org/2000/svg" xmlns:xlink="http://www.w3.org/1999/xlink" x="0px" y="0px" viewBox="0 0 395.5 120"
	 enable-background="new 0 0 395.5 120" xml:space="preserve">
<path d="M110.5,3.7H10.8C7.9,3.7,5.6,6,5.6,8.9v75.2C12.8,73.9,24.1,66.7,37,64.9c2-0.9,2.7-2.7,6.1-2.4c1,0,9.5,0,8.8,1.6
	c-0.3,0.7-1.7,1-2.2,1.3c-1.1,0.6-2.3,1.2-3.4,1.8C44.2,68.5,42,70,40,71.6c-4.4,3.6-8.3,7.8-11.4,12.6c-6.2,9.3-9.4,20.5-9.3,31.6
	h17.9c0.2-4,0.7-8,1.6-11.9c3.1-13.8,10.6-27.4,23-34.8c0,0,0,0,0,0c2.8-2.1,4.4-0.9,9.2,1.3c1.4,0.9,0.9,2.7,0.9,2.7
	c2.9,1.7,5.5,3.9,7.8,6.3c9.2,9.7,13.4,23.3,13.3,36.5h17.4c2.9,0,5.2-2.3,5.2-5.2V8.9C115.8,6,113.4,3.7,110.5,3.7z M40.9,36.9
	l0.9,5l-4.5-2.4l-4.5,2.4l0.9-5L30,33.4l5-0.7l2.2-4.5l2.2,4.5l5,0.7L40.9,36.9z M80.3,37.7l-5.9-3.1l-5.9,3.1l1.1-6.5l-4.7-4.6
	l6.6-1l2.9-5.9l2.9,5.9l6.6,1l-4.7,4.6L80.3,37.7z M97.6,63.6l-4.5-2.4l-4.5,2.4l0.9-5l-3.6-3.5l5-0.7l2.2-4.5l2.2,4.5l5,0.7
	l-3.6,3.5L97.6,63.6z"/>
<g>
	<path d="M129,73.4c8.1,1.1,14.6,1.6,19.3,1.6c5.7,0,9.7-0.5,12-1.6s3.5-3.2,3.5-6.5c0-2.7-0.8-4.7-2.3-6.1
		c-1.5-1.3-4.4-2.5-8.5-3.5l-9.1-2.2c-5.7-1.3-10.3-3.6-13.6-6.7s-5-7.8-5-14c0-7.9,2.4-13.5,7.1-16.7c4.7-3.2,12-4.8,21.7-4.8
		c6.7,0,14,0.7,22,2.1l-1.5,12.8c-7.4-1-13.1-1.5-17.1-1.5c-6,0-10.1,0.6-12.3,1.7c-2.2,1.1-3.3,3.3-3.3,6.6c0,2.5,0.7,4.3,2.2,5.4
		c1.5,1.1,4.1,2.1,7.8,2.9l8.7,2c6.7,1.5,11.6,3.9,14.8,7.4c3.2,3.4,4.8,8.2,4.8,14.2c0,7.6-2.3,13.2-7,16.7
		c-4.7,3.5-12.5,5.2-23.4,5.2c-6.4,0-13.8-0.7-22.3-2.2L129,73.4z"/>
	<path d="M211.2,75.4l1.2,11.8c-4,0.6-7.2,0.8-9.8,0.8c-6.3,0-10.4-1.5-12.4-4.5c-1.9-3-2.9-7.9-2.9-14.7V7.5h14.2v61.3
		c0,2.7,0.4,4.5,1.2,5.5c0.8,1,2.4,1.4,4.7,1.4C207.7,75.7,208.9,75.6,211.2,75.4z"/>
	<path d="M229.2,86.9c-3.5-1.1-6.2-2.9-8.1-5.5s-3.2-5.5-3.9-9c-0.7-3.4-1-7.9-1-13.4c0-5.5,0.3-10,1-13.4c0.7-3.4,2-6.4,3.9-9
		c1.9-2.5,4.6-4.4,8.1-5.5c3.5-1.1,8-1.6,13.5-1.6s10,0.5,13.4,1.6c3.4,1.1,6.1,2.9,8,5.5c1.9,2.5,3.2,5.5,3.9,9
		c0.7,3.4,1,7.9,1,13.4c0,5.5-0.3,10-1,13.4c-0.7,3.4-2,6.4-3.9,9s-4.6,4.4-8,5.5s-7.9,1.6-13.4,1.6S232.6,88,229.2,86.9z
		 M232.8,45.3c-1.4,2.2-2.1,6.5-2.1,12.7v2.2c0,6.4,0.7,10.6,2.2,12.8c1.5,2.2,4.7,3.2,9.8,3.2s8.3-1.1,9.7-3.2
		c1.5-2.2,2.2-6.4,2.2-12.8v-2.2c0-6.4-0.7-10.7-2.2-12.8s-4.9-3.2-10.4-3.2C237.3,41.9,234.2,43,232.8,45.3z"/>
	<path d="M289.8,86.9c-3.5-1.1-6.2-2.9-8.1-5.5s-3.2-5.5-3.9-9c-0.7-3.4-1-7.9-1-13.4c0-5.5,0.3-10,1-13.4c0.7-3.4,2-6.4,3.9-9
		c1.9-2.5,4.6-4.4,8.1-5.5c3.5-1.1,8-1.6,13.5-1.6s10,0.5,13.4,1.6c3.4,1.1,6.1,2.9,8,5.5c1.9,2.5,3.2,5.5,3.9,9
		c0.7,3.4,1,7.9,1,13.4c0,5.5-0.3,10-1,13.4c-0.7,3.4-2,6.4-3.9,9s-4.6,4.4-8,5.5s-7.9,1.6-13.4,1.6S293.3,88,289.8,86.9z
		 M293.4,45.3c-1.4,2.2-2.1,6.5-2.1,12.7v2.2c0,6.4,0.7,10.6,2.2,12.8c1.5,2.2,4.7,3.2,9.8,3.2s8.3-1.1,9.7-3.2
		c1.5-2.2,2.2-6.4,2.2-12.8v-2.2c0-6.4-0.7-10.7-2.2-12.8s-4.9-3.2-10.4-3.2C297.9,41.9,294.8,43,293.4,45.3z"/>
	<path d="M354.5,87.1h-14V7.5h14v26.9c8.7-3.3,15.5-4.9,20.3-4.9c9.7,0,14.5,5.6,14.5,16.8v40.9h-14.1V49.3c0-5-2.2-7.4-6.7-7.4
		c-2.4,0-7.1,0.9-14,2.8V87.1z"/>
</g>
<g>
	<path d="M129.1,111c1.9,0.3,3.5,0.4,4.9,0.4c1.6,0,2.8-0.2,3.6-0.6c0.8-0.4,1.2-1.2,1.2-2.4c0-0.9-0.3-1.7-0.8-2.1
		c-0.5-0.5-1.4-0.9-2.6-1.2l-2.5-0.6c-1.5-0.4-2.6-0.9-3.3-1.6s-1.2-1.7-1.2-3.2c0-1.8,0.5-3.1,1.6-3.8c1.1-0.7,2.7-1.1,4.9-1.1
		c1.5,0,3.2,0.2,5.1,0.5l-0.2,1.8c-1.9-0.3-3.4-0.4-4.4-0.4c-1.7,0-2.9,0.2-3.6,0.6c-0.7,0.4-1.1,1.2-1.1,2.3c0,0.9,0.2,1.5,0.7,1.9
		s1.3,0.7,2.5,1l2.5,0.6c1.6,0.4,2.7,1,3.5,1.8s1.2,1.9,1.2,3.3c0,1.7-0.6,3-1.7,3.8c-1.1,0.8-2.9,1.2-5.2,1.2
		c-1.4,0-3.2-0.2-5.3-0.5L129.1,111z"/>
	<path d="M150.8,95.1c4,0,6,1.9,6,5.6c0,2-0.5,3.4-1.6,4.4c-1.1,1-2.7,1.4-4.9,1.4c-0.8,0-2.2-0.1-4.1-0.2v6.8h-2.1V98.1
		c0-1,0.2-1.7,0.6-2.3c0.4-0.5,1.2-0.8,2.3-0.8H150.8z M147.3,96.9c-0.7,0.1-1.1,0.4-1.1,1v6.6c1.5,0.1,2.8,0.2,3.7,0.2
		c1.7,0,2.9-0.3,3.7-0.9s1.1-1.6,1.1-2.9v-0.4c0-2.4-1.3-3.6-3.9-3.6H147.3z"/>
	<path d="M168.9,108.2h-8.4l-1.6,4.9h-2.3l5.1-15.6c0.3-0.9,0.7-1.6,1.1-1.9c0.4-0.3,1.1-0.5,1.8-0.5s1.4,0.2,1.8,0.5
		c0.4,0.3,0.8,1,1.1,1.9l5.2,15.6h-2.2L168.9,108.2z M160.9,106.4h7.5l-2.6-8.2c-0.3-0.9-0.7-1.3-1.1-1.3c-0.3,0-0.5,0.1-0.6,0.3
		c-0.2,0.2-0.3,0.5-0.5,1L160.9,106.4z"/>
	<path d="M185.2,98.8c0-1.4-1.3-2.1-3.9-2.1c-2,0-3.4,0.5-4.1,1.6c-0.7,1-1.1,2.7-1.1,5v1.5c0,1.1,0.1,2,0.2,2.8
		c0.1,0.7,0.3,1.4,0.7,2.1c0.3,0.7,0.8,1.2,1.5,1.5c0.7,0.3,1.5,0.5,2.5,0.5c1.8,0,3.7-0.2,5.8-0.7l0.2,0.9c0.1,0.4,0.1,0.7,0.2,0.9
		c-2.1,0.5-4.3,0.8-6.5,0.8c-2.6,0-4.3-0.7-5.3-2.2c-1-1.4-1.4-3.9-1.4-7.3c0-1.7,0.1-3.1,0.3-4.2c0.2-1.1,0.6-2,1.2-2.8
		c0.6-0.8,1.3-1.3,2.3-1.7c1-0.3,2.2-0.5,3.7-0.5c3.9,0,5.9,1.2,5.9,3.6v2.9h-2V98.8z"/>
	<path d="M192.7,97.1c-0.2,0.2-0.3,0.5-0.3,0.9v5h8v1.7h-8v5.5c0,0.8,0.4,1.1,1.3,1.1h7.8v1.8h-8.6c-1.1,0-1.8-0.3-2.1-0.9
		c-0.3-0.6-0.5-1.6-0.5-2.9V98.9c0-1.3,0.2-2.3,0.5-2.9c0.3-0.6,1-0.9,2.1-0.9h8.6v1.8h-7.8C193.2,96.9,192.9,96.9,192.7,97.1z"/>
	<path d="M212.9,103.2h7.9v1.7h-7.9v8.1h-2.2V97.7c0-1.8,1.1-2.6,3.3-2.6h7.8v1.8H214c-0.5,0-0.8,0.1-0.9,0.3
		c-0.1,0.2-0.2,0.5-0.2,0.8V103.2z"/>
	<path d="M227.6,112.8c-1-0.3-1.8-0.9-2.4-1.7s-1-1.7-1.2-2.8s-0.3-2.5-0.3-4.3c0-1.7,0.1-3.1,0.3-4.3c0.2-1.1,0.6-2.1,1.2-2.8
		s1.4-1.3,2.4-1.7c1-0.3,2.3-0.5,3.9-0.5c1.6,0,2.9,0.2,3.9,0.5c1,0.3,1.8,0.9,2.4,1.7c0.6,0.8,1,1.7,1.2,2.8
		c0.2,1.1,0.3,2.5,0.3,4.3c0,1.7-0.1,3.2-0.3,4.3c-0.2,1.1-0.6,2-1.2,2.8c-0.6,0.8-1.4,1.3-2.4,1.7c-1,0.3-2.3,0.5-3.9,0.5
		C229.9,113.3,228.6,113.2,227.6,112.8z M227,98.2c-0.8,1-1.1,2.9-1.1,5.5v0.8c0,2.7,0.4,4.5,1.1,5.5c0.8,1,2.2,1.5,4.5,1.5
		s3.7-0.5,4.5-1.5c0.8-1,1.1-2.9,1.1-5.5v-0.8c0-2.7-0.4-4.6-1.2-5.5s-2.3-1.5-4.6-1.5C229.2,96.6,227.8,97.2,227,98.2z"/>
	<path d="M249.8,95.1c4,0,5.9,1.9,5.9,5.6c0,2.7-1.4,4.4-4.2,5.1l4.8,7.2h-2.4l-4.4-7c-0.6,0-2-0.1-4.2-0.3v7.2h-2.1V98.2
		c0-1.1,0.2-1.9,0.6-2.4c0.4-0.5,1.2-0.7,2.3-0.7H249.8z M246.4,96.8c-0.8,0-1.2,0.4-1.2,1.2v6.1c1.7,0.2,3,0.3,3.9,0.3
		c3,0,4.5-1.2,4.5-3.5v-0.4c0-2.5-1.3-3.7-4-3.7H246.4z"/>
	<path d="M268.3,97.1c-0.2,0.2-0.3,0.5-0.3,0.9v5h8v1.7h-8v5.5c0,0.8,0.4,1.1,1.3,1.1h7.8v1.8h-8.6c-1.1,0-1.8-0.3-2.1-0.9
		c-0.3-0.6-0.5-1.6-0.5-2.9V98.9c0-1.3,0.2-2.3,0.5-2.9c0.3-0.6,1-0.9,2.1-0.9h8.6v1.8h-7.8C268.9,96.9,268.6,96.9,268.3,97.1z"/>
	<path d="M284.5,110.1c0.3,0.9,0.6,1.3,1.1,1.3c0.5,0,0.8-0.4,1.1-1.3l4.6-15h2.3l-5,15.7c-0.3,0.8-0.6,1.4-1,1.8s-1.1,0.6-1.9,0.6
		c-0.8,0-1.4-0.2-1.8-0.5c-0.4-0.3-0.8-1-1.1-1.9l-5.1-15.7h2.3L284.5,110.1z"/>
	<path d="M298,97.1c-0.2,0.2-0.3,0.5-0.3,0.9v5h8v1.7h-8v5.5c0,0.8,0.4,1.1,1.3,1.1h7.8v1.8h-8.6c-1.1,0-1.8-0.3-2.1-0.9
		c-0.3-0.6-0.5-1.6-0.5-2.9V98.9c0-1.3,0.2-2.3,0.5-2.9c0.3-0.6,1-0.9,2.1-0.9h8.6v1.8H299C298.6,96.9,298.2,96.9,298,97.1z"/>
	<path d="M316.4,95.1c4,0,5.9,1.9,5.9,5.6c0,2.7-1.4,4.4-4.2,5.1l4.8,7.2h-2.4l-4.4-7c-0.6,0-2-0.1-4.2-0.3v7.2h-2.1V98.2
		c0-1.1,0.2-1.9,0.6-2.4c0.4-0.5,1.2-0.7,2.3-0.7H316.4z M313,96.8c-0.8,0-1.2,0.4-1.2,1.2v6.1c1.7,0.2,3,0.3,3.9,0.3
		c3,0,4.5-1.2,4.5-3.5v-0.4c0-2.5-1.3-3.7-4-3.7H313z"/>
	<path d="M330.3,106.9c-0.6-0.2-1.2-0.8-1.7-1.8l-5.2-10h2.3l4.7,9.2c0.2,0.4,0.4,0.6,0.5,0.8c0.1,0.1,0.3,0.2,0.5,0.2
		c0.2,0,0.4-0.1,0.6-0.2s0.3-0.4,0.5-0.8l4.6-9.2h2.2l-5.2,10c-0.5,1-1.1,1.6-1.7,1.8v6.2h-2.2V106.9z"/>
	<path d="M344.1,112.8c-1-0.3-1.8-0.9-2.4-1.7s-1-1.7-1.2-2.8s-0.3-2.5-0.3-4.3c0-1.7,0.1-3.1,0.3-4.3c0.2-1.1,0.6-2.1,1.2-2.8
		s1.4-1.3,2.4-1.7c1-0.3,2.3-0.5,3.9-0.5c1.6,0,2.9,0.2,3.9,0.5c1,0.3,1.8,0.9,2.4,1.7c0.6,0.8,1,1.7,1.2,2.8
		c0.2,1.1,0.3,2.5,0.3,4.3c0,1.7-0.1,3.2-0.3,4.3c-0.2,1.1-0.6,2-1.2,2.8c-0.6,0.8-1.4,1.3-2.4,1.7c-1,0.3-2.3,0.5-3.9,0.5
		C346.4,113.3,345.1,113.2,344.1,112.8z M343.5,98.2c-0.8,1-1.1,2.9-1.1,5.5v0.8c0,2.7,0.4,4.5,1.1,5.5c0.8,1,2.2,1.5,4.5,1.5
		s3.7-0.5,4.5-1.5c0.8-1,1.1-2.9,1.1-5.5v-0.8c0-2.7-0.4-4.6-1.2-5.5s-2.3-1.5-4.6-1.5C345.7,96.6,344.3,97.2,343.5,98.2z"/>
	<path d="M363.4,95.3c0.4,0.3,0.8,0.8,1.1,1.4l6.4,13.7c0.2,0.4,0.3,0.6,0.4,0.7c0.1,0.1,0.2,0.2,0.4,0.2c0.3,0,0.5-0.3,0.5-1V95.1
		h2V111c0,0.7-0.2,1.3-0.6,1.7c-0.4,0.4-1,0.6-1.7,0.6c-0.7,0-1.2-0.1-1.6-0.4c-0.4-0.3-0.7-0.8-1-1.4l-6.4-13.7
		c-0.2-0.3-0.3-0.6-0.4-0.7s-0.2-0.2-0.4-0.2c-0.3,0-0.5,0.3-0.5,1v15.2h-2V97.2c0-0.7,0.2-1.3,0.6-1.7c0.4-0.4,1-0.6,1.7-0.6
		C362.5,94.9,363.1,95,363.4,95.3z"/>
	<path d="M381,97.1c-0.2,0.2-0.3,0.5-0.3,0.9v5h8v1.7h-8v5.5c0,0.8,0.4,1.1,1.3,1.1h7.8v1.8h-8.6c-1.1,0-1.8-0.3-2.1-0.9
		c-0.3-0.6-0.5-1.6-0.5-2.9V98.9c0-1.3,0.2-2.3,0.5-2.9c0.3-0.6,1-0.9,2.1-0.9h8.6v1.8H382C381.6,96.9,381.2,96.9,381,97.1z"/>
</g>
</svg>
