<svg xmlns="http://www.w3.org/2000/svg" viewBox="0 0 122.15 110.53"><defs><style>.cls-1{fill:#3c4655;}</style></defs><title>Asset 1</title><g id="Layer_2" data-name="Layer 2"><g id="Layer_1-2" data-name="Layer 1"><path class="cls-1" d="M121.33,12.17C119,5.1,111.12-.4,103,0H99.64L22,0H18.91c-2.66,0-3.57.11-3.57.11s-.3,0-1.49.33A18.38,18.38,0,0,0,.27,21.58c1.57,6.29,5.5,11,11.79,12.57,7.86,1.57,15.72-2.36,18.07-10.22a12.51,12.51,0,0,0-2.36-10.22c-5.5-6.29-14.93-5.5-18.07,1.57a7.5,7.5,0,0,0,1.57,7.86c3.14,3.14,10.21,1.57,8.64-3.14-.79-2.36-6.29,2.36-5.5-3.14.79-1.57,1.59-3.18,3.93-3.14,3.93.06,6.29,3.93,7.07,7.86.79,3.14-1.57,4.72-3.14,6.29C16,32.58,6.55,28.65,5,20.79c-1.57-6.29,2.36-11,7.07-14.93,5.37-3.57,15.72-2.36,20.43,4.72A18,18,0,0,1,34,29.42a11.51,11.51,0,0,0-1.46,4.46l58,0a37.77,37.77,0,0,1-2.72-5.24C83.61,20,88.32,9.81,96.18,5.1A14.81,14.81,0,0,1,115,10.6a13,13,0,0,1,0,14.93c-3.93,4.71-12.57,6.29-16.5.79C94.61,21.6,97,13.74,104,13.74c2.36,0,3.93,3.14,3.14,4.71,0,3.93-3.14,0-3.93,1.57-4.71,3.14,3.93,6.29,6.29,3.93C114.26,20,112.69,13.74,108,10.6,104,8.24,100.11,9,96.18,11.38c-3.93,3.14-4.71,7.86-3.93,12.57.79,3.93,3.14,6.29,6.29,8.64,7.86,3.93,17.29,1.57,21.22-6.29C122.12,21.6,122.9,16.88,121.33,12.17Z"/><polygon class="cls-1" points="27.85 110.53 39.22 110.53 39.22 54.5 47.77 54.5 47.77 110.53 56.8 110.53 56.8 54.5 65.35 54.5 65.35 110.53 74.38 110.53 74.38 54.5 82.93 54.5 82.93 110.53 94.3 110.53 94.3 44.95 27.85 44.95 27.85 110.53"/><path class="cls-1" d="M31.88,35.91l-4,7.44H94.3l-3.1-7.44ZM35,41.49a1.86,1.86,0,1,1,1.86-1.86A1.86,1.86,0,0,1,35,41.49Zm7.44,0a1.86,1.86,0,1,1,1.86-1.86A1.86,1.86,0,0,1,42.48,41.49Zm7.44,0a1.86,1.86,0,1,1,1.86-1.86A1.86,1.86,0,0,1,49.92,41.49Zm7.44,0a1.86,1.86,0,1,1,1.86-1.86A1.86,1.86,0,0,1,57.35,41.49Zm7.44,0a1.86,1.86,0,1,1,1.86-1.86A1.86,1.86,0,0,1,64.79,41.49Zm7.44,0a1.86,1.86,0,1,1,1.86-1.86A1.86,1.86,0,0,1,72.23,41.49Zm7.44,0a1.86,1.86,0,1,1,1.86-1.86A1.86,1.86,0,0,1,79.67,41.49Zm7.44,0A1.86,1.86,0,1,1,89,39.63,1.86,1.86,0,0,1,87.11,41.49Z"/></g></g></svg>