<?xml version="1.0" encoding="utf-8"?>
<!-- Generator: Adobe Illustrator 20.1.0, SVG Export Plug-In . SVG Version: 6.00 Build 0)  -->
<svg version="1.1" id="Layer_1" xmlns="http://www.w3.org/2000/svg" xmlns:xlink="http://www.w3.org/1999/xlink" x="0px" y="0px"
	 viewBox="0 0 400 384.4" style="enable-background:new 0 0 400 384.4;" xml:space="preserve">
<style type="text/css">
	.st0{fill:#3C4655;}
</style>
<title>galaxy</title>
<g id="Shapes">
	<circle class="st0" cx="4.9" cy="235.1" r="4.9"/>
	<path class="st0" d="M308.8,287.3c-22.8,13.3-48.5,20.7-74.9,21.5c-12.6,0.3-25.2-1.2-37.4-4.5c-5.9-1.6-11.7-3.8-17.3-6.4
		c-1.4-0.6-2.8-1.3-4.1-2l-2-1c-0.7-0.4-1.7-0.9-2.3-1.2c-2.4-1.4-5.3-3.1-7.8-4.8c-20.4-13.4-35.5-33.2-39.9-55.6
		c-2.3-11.3-2.2-22.9,0.3-34.1c1.3-5.9,3-11.6,5.3-17.1c2-5.3,4.7-10.4,7.9-15c6.4-9.3,14.9-16.9,24.9-22c5-2.6,10.3-4.5,15.8-5.6
		c5.5-1.2,11.2-1.7,16.9-1.3c5.8,0.4,11.4,1.6,16.9,3.5c5.1,1.9,9.8,4.6,13.8,8.2c8.6,7.8,14,18.5,15,30c0.6,6,0.1,12.1-1.5,18
		c-1.5,5.8-4.6,11.2-8.9,15.5c-9.7,9.5-23.7,13.3-36.9,9.8c6.4,3.8,13.8,5.8,21.2,5.6c7.9-0.3,15.7-2.8,22.3-7.2
		c7-4.5,12.6-10.8,16.2-18.3c3.6-7.4,5.8-15.4,6.3-23.5c0.5-8.4-0.6-16.8-3.2-24.8c-5.6-16.7-17.6-30.5-33.4-38.4
		c-7.6-3.8-15.7-6.5-24-7.9c-8.5-1.4-17.1-1.7-25.6-0.6s-16.9,3.3-24.8,6.7c-15.9,6.7-29.8,17.5-40.3,31.2
		c-5.1,6.8-9.4,14.2-12.7,22c-3.3,7.5-6,15.3-7.9,23.3c-3.9,16.5-4.2,33.6-0.8,50.2c3.6,16.6,10.9,32.2,21.3,45.6
		c10.1,13,22.6,23.9,36.8,32.2c3.5,2.1,6.9,3.9,10.7,5.6l2.5,1.3l2.8,1.3c1.8,0.8,3.7,1.6,5.6,2.3c7.5,2.9,15.2,5.1,23.1,6.7
		c15.5,3.1,31.4,3.6,47.1,1.7c30.5-3.9,59.3-16.4,83.1-35.9c23.1-19,40.7-44.7,47.8-72.5C353,253.7,332.9,273.5,308.8,287.3z"/>
	<circle class="st0" cx="101.2" cy="118.2" r="2.4"/>
	<circle class="st0" cx="76.3" cy="138.5" r="5.6"/>
	<circle class="st0" cx="68.5" cy="196.1" r="3.8"/>
	<circle class="st0" cx="34.8" cy="184.5" r="7"/>
	<circle class="st0" cx="56.8" cy="170.6" r="1.8"/>
	<circle class="st0" cx="159.9" cy="94.1" r="2.8"/>
	<circle class="st0" cx="124.3" cy="111.6" r="4.2"/>
	<circle class="st0" cx="71.5" cy="226.3" r="3.9"/>
	<circle class="st0" cx="48.4" cy="248" r="6.6"/>
	<circle class="st0" cx="34.2" cy="221.5" r="2.5"/>
	<circle class="st0" cx="51.2" cy="293.5" r="7.4"/>
	<circle class="st0" cx="90.2" cy="302.7" r="3.5"/>
	<circle class="st0" cx="126.8" cy="337.1" r="4.7"/>
	<circle class="st0" cx="77.9" cy="346.5" r="4.6"/>
	<circle class="st0" cx="205.8" cy="375" r="9.4"/>
	<circle class="st0" cx="144.8" cy="370.3" r="3.4"/>
	<circle class="st0" cx="249.9" cy="361.9" r="3.7"/>
	<path class="st0" d="M91.2,97.1c22.7-13.3,48.4-20.7,74.8-21.5c12.6-0.3,25.2,1.2,37.3,4.5c5.9,1.6,11.7,3.8,17.3,6.4
		c1.4,0.6,2.8,1.3,4.1,2l2,1c0.7,0.4,1.7,0.9,2.3,1.2c2.4,1.4,5.3,3.1,7.8,4.8c20.4,13.5,35.5,33.2,39.9,55.4
		c2.3,11.3,2.2,22.9-0.3,34.1c-1.2,5.9-3,11.6-5.2,17.1c-2,5.3-4.7,10.4-7.9,15.1c-6.3,9.3-14.9,16.8-24.9,22
		c-5,2.6-10.3,4.5-15.8,5.6c-5.5,1.2-11.2,1.7-16.9,1.3c-5.8-0.4-11.4-1.6-16.9-3.5c-5.1-1.9-9.8-4.6-13.8-8.2
		c-8.6-7.7-14.1-18.3-15.2-29.8c-0.6-6-0.1-12.1,1.5-18c1.5-5.8,4.6-11.2,8.9-15.5c9.7-9.5,23.7-13.3,36.9-9.8
		c-6.4-3.8-13.8-5.8-21.2-5.6c-7.9,0.2-15.6,2.6-22.2,6.9c-7,4.5-12.6,10.8-16.2,18.3c-3.6,7.4-5.7,15.5-6.1,23.7
		c-0.5,8.4,0.6,16.8,3.2,24.8c5.6,16.7,17.7,30.6,33.4,38.5c7.6,3.8,15.7,6.5,24,7.9c8.5,1.4,17.1,1.7,25.6,0.6s16.9-3.3,24.8-6.7
		c15.9-6.7,29.8-17.5,40.2-31.2c5.1-6.8,9.4-14.2,12.7-22c3.3-7.5,6-15.3,7.9-23.3c3.9-16.5,4.2-33.6,0.8-50.2
		c-3.6-16.6-10.9-32.2-21.4-45.6c-10.1-13-22.6-23.9-36.8-32.2c-3.5-2.1-6.9-3.9-10.7-5.6l-2.5-1.2l-2.8-1.3
		c-1.8-0.8-3.7-1.6-5.6-2.3c-7.5-2.9-15.2-5.2-23.1-6.9c-15.5-3.1-31.4-3.6-47.1-1.7c-30.5,3.9-59.3,16.4-83.1,35.9
		C57.6,101.3,40,126.8,33,154.7C47.1,130.8,67.1,110.9,91.2,97.1z"/>
	<circle class="st0" cx="298.8" cy="266.1" r="2.4"/>
	<circle class="st0" cx="323.7" cy="245.9" r="5.6"/>
	<circle class="st0" cx="333.1" cy="192" r="3.8"/>
	<circle class="st0" cx="365.2" cy="199.9" r="7"/>
	<circle class="st0" cx="343.2" cy="213.7" r="1.8"/>
	<circle class="st0" cx="240.1" cy="290.2" r="2.8"/>
	<circle class="st0" cx="275.7" cy="272.8" r="4.2"/>
	<circle class="st0" cx="330.7" cy="156.4" r="3.9"/>
	<circle class="st0" cx="351.6" cy="136.3" r="6.6"/>
	<circle class="st0" cx="395.1" cy="149.2" r="4.9"/>
	<circle class="st0" cx="365.8" cy="162.9" r="2.5"/>
	<circle class="st0" cx="348.8" cy="90.9" r="7.4"/>
	<circle class="st0" cx="309.8" cy="81.6" r="3.5"/>
	<circle class="st0" cx="273.2" cy="47.2" r="4.7"/>
	<circle class="st0" cx="322.1" cy="37.9" r="4.6"/>
	<circle class="st0" cx="194.2" cy="9.4" r="9.4"/>
	<circle class="st0" cx="255.2" cy="14.1" r="3.4"/>
	<circle class="st0" cx="150.1" cy="22.4" r="3.7"/>
</g>
</svg>
