<?xml version="1.0" encoding="utf-8"?>
<!-- Generator: Adobe Illustrator 20.1.0, SVG Export Plug-In . SVG Version: 6.00 Build 0)  -->
<svg version="1.1" id="Layer_1" xmlns="http://www.w3.org/2000/svg" xmlns:xlink="http://www.w3.org/1999/xlink" x="0px" y="0px"
	 viewBox="0 0 65.8 66.9" style="enable-background:new 0 0 65.8 66.9;" xml:space="preserve">
<style type="text/css">
	.st0{clip-path:url(#SVGID_2_);}
	.st1{clip-path:url(#SVGID_4_);fill:#D62790;}
	.st2{clip-path:url(#SVGID_6_);}
	.st3{clip-path:url(#SVGID_8_);fill:#D62790;}
	.st4{clip-path:url(#SVGID_10_);}
	.st5{clip-path:url(#SVGID_12_);fill:#1160A1;}
	.st6{clip-path:url(#SVGID_14_);}
	.st7{clip-path:url(#SVGID_16_);fill:#093B57;}
	.st8{clip-path:url(#SVGID_18_);}
	.st9{clip-path:url(#SVGID_20_);fill:#FFFFFF;}
	.st10{clip-path:url(#SVGID_22_);}
	.st11{clip-path:url(#SVGID_24_);fill:#FFFFFF;}
	.st12{clip-path:url(#SVGID_26_);}
	.st13{clip-path:url(#SVGID_28_);fill:#FFFFFF;}
	.st14{clip-path:url(#SVGID_30_);}
	.st15{clip-path:url(#SVGID_32_);fill:#FFFFFF;}
	.st16{clip-path:url(#SVGID_34_);}
	.st17{clip-path:url(#SVGID_36_);fill:#D62790;}
	.st18{clip-path:url(#SVGID_38_);}
	.st19{clip-path:url(#SVGID_40_);fill:#D188B8;}
	.st20{clip-path:url(#SVGID_42_);}
	.st21{clip-path:url(#SVGID_44_);fill:#1160A1;}
	.st22{clip-path:url(#SVGID_46_);}
	.st23{clip-path:url(#SVGID_48_);fill:#1160A1;}
	.st24{clip-path:url(#SVGID_50_);}
	.st25{clip-path:url(#SVGID_52_);fill:#1160A1;}
</style>
<g>
	<defs>
		<path id="SVGID_1_" d="M56.8,36.5c-1.8-5.3-5.3-10.8-10.3-15.9c-5-5-10.5-8.5-15.8-10.3c7-1.1,14.3,1,19.7,6.4
			C55.8,22.1,57.9,29.5,56.8,36.5z M18.3,49C13,43.6,10.9,36.2,12,29.2c1.8,5.3,5.3,10.8,10.3,15.9c5,5,10.5,8.5,15.8,10.3
			C31.1,56.5,23.7,54.4,18.3,49z M50.5,49c-3.7,3.8-14.5,1.3-24-8.2c-7.7-7.7-10.7-16.3-9.6-21.3l27.5,27.6l4.2-4.3L21.1,15.2
			c5.6-1.4,14.9,3.3,21.3,9.7C49.9,32.6,55.1,44.3,50.5,49z M14.1,12.4C2.9,23.7,2.9,42,14.1,53.3c11.2,11.3,29.4,11.3,40.7,0
			c11.2-11.3,11.2-29.6,0-40.9S25.3,1.2,14.1,12.4z"/>
	</defs>
	<clipPath id="SVGID_2_">
		<use xlink:href="#SVGID_1_"  style="overflow:visible;"/>
	</clipPath>
	<g class="st0">
		<defs>
			<rect id="SVGID_3_" x="-244.1" y="-1630" width="1366" height="2199"/>
		</defs>
		<clipPath id="SVGID_4_">
			<use xlink:href="#SVGID_3_"  style="overflow:visible;"/>
		</clipPath>
		<rect x="0.7" y="-1" class="st1" width="67.5" height="67.8"/>
	</g>
</g>
<g>
	<defs>
		
			<ellipse id="SVGID_5_" transform="matrix(0.7071 -0.7071 0.7071 0.7071 -13.4765 33.8221)" cx="34.1" cy="33.2" rx="26.7" ry="1.7"/>
	</defs>
	<clipPath id="SVGID_6_">
		<use xlink:href="#SVGID_5_"  style="overflow:visible;"/>
	</clipPath>
	<g class="st2">
		<defs>
			<rect id="SVGID_7_" x="-244.1" y="-1630" width="1366" height="2199"/>
		</defs>
		<clipPath id="SVGID_8_">
			<use xlink:href="#SVGID_7_"  style="overflow:visible;"/>
		</clipPath>
		
			<rect x="2.4" y="26.5" transform="matrix(0.7071 -0.7071 0.7071 0.7071 -13.4765 33.8221)" class="st3" width="63.4" height="13.3"/>
	</g>
</g>
<g>
	<defs>
		<path id="SVGID_9_" d="M65.8,62.1c0,2.7-2.2,4.8-4.8,4.8H7.8c-2.7,0-4.8-2.2-4.8-4.8V45.6c0-2.7,2.2-4.8,4.8-4.8H61
			c2.7,0,4.8,2.2,4.8,4.8L65.8,62.1z"/>
	</defs>
	<clipPath id="SVGID_10_">
		<use xlink:href="#SVGID_9_"  style="overflow:visible;"/>
	</clipPath>
	<g class="st4">
		<defs>
			<rect id="SVGID_11_" x="-244.1" y="-1630" width="1366" height="2199"/>
		</defs>
		<clipPath id="SVGID_12_">
			<use xlink:href="#SVGID_11_"  style="overflow:visible;"/>
		</clipPath>
		<rect x="-2" y="35.7" class="st5" width="72.9" height="36.2"/>
	</g>
</g>
<g>
	<defs>
		<path id="SVGID_13_" d="M61,40.7c2.7,0,4.8,2.2,4.8,4.8v16.5c0,2.7-2.2,4.8-4.8,4.8H7.8c-2.7,0-4.8-2.2-4.8-4.8"/>
	</defs>
	<clipPath id="SVGID_14_">
		<use xlink:href="#SVGID_13_"  style="overflow:visible;"/>
	</clipPath>
	<g class="st6">
		<defs>
			<rect id="SVGID_15_" x="-244.1" y="-1630" width="1366" height="2199"/>
		</defs>
		<clipPath id="SVGID_16_">
			<use xlink:href="#SVGID_15_"  style="overflow:visible;"/>
		</clipPath>
		<rect x="-2" y="35.7" class="st7" width="72.9" height="36.2"/>
	</g>
</g>
<g>
	<defs>
		<path id="SVGID_17_" d="M21.4,56h-3.3v-7c0-0.3-0.2-0.5-0.5-0.5h-1.9c-0.3,0-0.5,0.2-0.5,0.5v9.4c0,0.3,0.2,0.5,0.5,0.5h5.7
			c0.3,0,0.5-0.2,0.5-0.5v-1.8C21.9,56.3,21.7,56,21.4,56z"/>
	</defs>
	<clipPath id="SVGID_18_">
		<use xlink:href="#SVGID_17_"  style="overflow:visible;"/>
	</clipPath>
	<g class="st8">
		<defs>
			<rect id="SVGID_19_" x="-244.1" y="-1630" width="1366" height="2199"/>
		</defs>
		<clipPath id="SVGID_20_">
			<use xlink:href="#SVGID_19_"  style="overflow:visible;"/>
		</clipPath>
		<rect x="10.1" y="43.5" class="st9" width="16.8" height="20.5"/>
	</g>
</g>
<g>
	<defs>
		<path id="SVGID_21_" d="M29,48.5h-1.9c-0.3,0-0.5,0.2-0.5,0.5v9.4c0,0.3,0.2,0.5,0.5,0.5H29c0.3,0,0.5-0.2,0.5-0.5V49
			C29.5,48.7,29.3,48.5,29,48.5z"/>
	</defs>
	<clipPath id="SVGID_22_">
		<use xlink:href="#SVGID_21_"  style="overflow:visible;"/>
	</clipPath>
	<g class="st10">
		<defs>
			<rect id="SVGID_23_" x="-244.1" y="-1630" width="1366" height="2199"/>
		</defs>
		<clipPath id="SVGID_24_">
			<use xlink:href="#SVGID_23_"  style="overflow:visible;"/>
		</clipPath>
		<rect x="21.6" y="43.5" class="st11" width="13" height="20.5"/>
	</g>
</g>
<g>
	<defs>
		<path id="SVGID_25_" d="M42.3,48.5h-1.9c-0.2,0-0.4,0.1-0.5,0.3l-1.6,4.1l-1.6-4.1c-0.1-0.2-0.3-0.3-0.5-0.3h-1.9
			c-0.2,0-0.4,0.1-0.5,0.2c-0.1,0.2-0.1,0.3-0.1,0.5l4,9.6c0.1,0.2,0.3,0.3,0.5,0.3c0.2,0,0.4-0.1,0.5-0.3l4-9.6
			c0.1-0.2,0.1-0.4,0-0.5C42.7,48.5,42.5,48.5,42.3,48.5z"/>
	</defs>
	<clipPath id="SVGID_26_">
		<use xlink:href="#SVGID_25_"  style="overflow:visible;"/>
	</clipPath>
	<g class="st12">
		<defs>
			<rect id="SVGID_27_" x="-244.1" y="-1630" width="1366" height="2199"/>
		</defs>
		<clipPath id="SVGID_28_">
			<use xlink:href="#SVGID_27_"  style="overflow:visible;"/>
		</clipPath>
		<rect x="28.8" y="43.5" class="st13" width="19.1" height="20.7"/>
	</g>
</g>
<g>
	<defs>
		<path id="SVGID_29_" d="M53.1,56H50v-1.1h2.9c0.3,0,0.5-0.2,0.5-0.5v-1.8c0-0.3-0.2-0.5-0.5-0.5H50v-0.7h3.1
			c0.3,0,0.5-0.2,0.5-0.5V49c0-0.3-0.2-0.5-0.5-0.5h-5.5c-0.3,0-0.5,0.2-0.5,0.5v9.4c0,0.3,0.2,0.5,0.5,0.5h5.6
			c0.3,0,0.5-0.2,0.5-0.5v-1.8C53.7,56.3,53.4,56,53.1,56z"/>
	</defs>
	<clipPath id="SVGID_30_">
		<use xlink:href="#SVGID_29_"  style="overflow:visible;"/>
	</clipPath>
	<g class="st14">
		<defs>
			<rect id="SVGID_31_" x="-244.1" y="-1630" width="1366" height="2199"/>
		</defs>
		<clipPath id="SVGID_32_">
			<use xlink:href="#SVGID_31_"  style="overflow:visible;"/>
		</clipPath>
		<rect x="42" y="43.5" class="st15" width="16.7" height="20.5"/>
	</g>
</g>
<g>
	<defs>
		<ellipse id="SVGID_33_" cx="7.8" cy="45.7" rx="2.5" ry="2.5"/>
	</defs>
	<clipPath id="SVGID_34_">
		<use xlink:href="#SVGID_33_"  style="overflow:visible;"/>
	</clipPath>
	<g class="st16">
		<defs>
			<rect id="SVGID_35_" x="-244.1" y="-1630" width="1366" height="2199"/>
		</defs>
		<clipPath id="SVGID_36_">
			<use xlink:href="#SVGID_35_"  style="overflow:visible;"/>
		</clipPath>
		<rect x="0.3" y="38.1" class="st17" width="15" height="15"/>
	</g>
</g>
<g>
	<defs>
		<path id="SVGID_37_" d="M7.8,43.1L7.8,43.1c1.4,0,2.5,1.1,2.5,2.5c0,1.4-1.1,2.5-2.5,2.5"/>
	</defs>
	<clipPath id="SVGID_38_">
		<use xlink:href="#SVGID_37_"  style="overflow:visible;"/>
	</clipPath>
	<g class="st18">
		<defs>
			<rect id="SVGID_39_" x="-244.1" y="-1630" width="1366" height="2199"/>
		</defs>
		<clipPath id="SVGID_40_">
			<use xlink:href="#SVGID_39_"  style="overflow:visible;"/>
		</clipPath>
		<rect x="2.8" y="38.1" class="st19" width="12.5" height="15"/>
	</g>
</g>
<g>
	<defs>
		<path id="SVGID_41_" d="M16,0.8c0,0.4-0.3,0.8-0.8,0.8C7.7,1.6,1.6,7.7,1.6,15.3c0,0.4-0.3,0.8-0.8,0.8c-0.4,0-0.8-0.4-0.8-0.8
			C0,6.9,6.8,0,15.2,0C15.7,0,16,0.3,16,0.8z"/>
	</defs>
	<clipPath id="SVGID_42_">
		<use xlink:href="#SVGID_41_"  style="overflow:visible;"/>
	</clipPath>
	<g class="st20">
		<defs>
			<rect id="SVGID_43_" x="-244.1" y="-1630" width="1366" height="2199"/>
		</defs>
		<clipPath id="SVGID_44_">
			<use xlink:href="#SVGID_43_"  style="overflow:visible;"/>
		</clipPath>
		<rect x="-5" y="-5" class="st21" width="26" height="26.1"/>
	</g>
</g>
<g>
	<defs>
		<path id="SVGID_45_" d="M15.8,4.7c0,0.3-0.3,0.6-0.6,0.6c-5.5,0-10,4.5-10,10c0,0.3-0.3,0.6-0.6,0.6c-0.3,0-0.6-0.3-0.6-0.6
			c0-6.2,5-11.2,11.1-11.2C15.5,4.1,15.8,4.4,15.8,4.7z"/>
	</defs>
	<clipPath id="SVGID_46_">
		<use xlink:href="#SVGID_45_"  style="overflow:visible;"/>
	</clipPath>
	<g class="st22">
		<defs>
			<rect id="SVGID_47_" x="-244.1" y="-1630" width="1366" height="2199"/>
		</defs>
		<clipPath id="SVGID_48_">
			<use xlink:href="#SVGID_47_"  style="overflow:visible;"/>
		</clipPath>
		<rect x="-0.9" y="-0.9" class="st23" width="21.7" height="21.8"/>
	</g>
</g>
<g>
	<defs>
		<path id="SVGID_49_" d="M15.6,8.1c0,0.2-0.2,0.4-0.4,0.4c-3.7,0-6.8,3.1-6.8,6.8c0,0.2-0.2,0.4-0.4,0.4c-0.2,0-0.4-0.2-0.4-0.4
			c0-4.2,3.4-7.6,7.5-7.6C15.4,7.7,15.6,7.9,15.6,8.1z"/>
	</defs>
	<clipPath id="SVGID_50_">
		<use xlink:href="#SVGID_49_"  style="overflow:visible;"/>
	</clipPath>
	<g class="st24">
		<defs>
			<rect id="SVGID_51_" x="-244.1" y="-1630" width="1366" height="2199"/>
		</defs>
		<clipPath id="SVGID_52_">
			<use xlink:href="#SVGID_51_"  style="overflow:visible;"/>
		</clipPath>
		<rect x="2.7" y="2.7" class="st25" width="17.9" height="18"/>
	</g>
</g>
</svg>
