<?xml version="1.0" encoding="utf-8"?>
<!-- Generator: Adobe Illustrator 20.1.0, SVG Export Plug-In . SVG Version: 6.00 Build 0)  -->
<svg version="1.1" id="Layer_1" xmlns="http://www.w3.org/2000/svg" xmlns:xlink="http://www.w3.org/1999/xlink" x="0px" y="0px"
	 viewBox="0 0 400 400" style="enable-background:new 0 0 400 400;" xml:space="preserve">
<style type="text/css">
	.st0{fill:#3C4655;}
</style>
<title>info</title>
<path class="st0" d="M200,0c27.6,0,53.5,5.2,77.7,15.6s45.4,24.7,63.7,43c18.2,18.2,32.5,39.5,43,63.7
	c10.4,24.2,15.6,50.1,15.6,77.7s-5.2,53.5-15.6,77.7s-24.7,45.4-43,63.7c-18.2,18.2-39.5,32.6-63.7,43
	C253.5,394.8,227.6,400,200,400s-53.5-5.2-77.7-15.6s-45.4-24.7-63.7-43c-18.2-18.2-32.6-39.4-43-63.7C5.2,253.5,0,227.6,0,200
	s5.2-53.5,15.6-77.7s24.7-45.4,43-63.7C76.8,40.4,98,26,122.3,15.6S172.4,0,200,0z M200,362.5c22.4,0,43.5-4.3,63.3-12.9
	s37-20.2,51.6-34.8c14.6-14.6,26.2-31.8,34.8-51.6c8.6-19.8,12.9-40.9,12.9-63.3s-4.3-43.5-12.9-63.3s-20.2-37-34.8-51.6
	c-14.6-14.6-31.8-26.2-51.6-34.8S222.4,37.5,200,37.5s-43.5,4.3-63.3,12.9s-37,20.2-51.6,34.8C70.6,99.7,59,116.9,50.4,136.7
	S37.5,177.6,37.5,200s4.3,43.5,12.9,63.3s20.2,37,34.8,51.6s31.8,26.2,51.6,34.8C156.5,358.2,177.6,362.5,200,362.5z M250,275h-25
	V175h-75v25h25v75h-25v25h100V275z M175,150h50v-50h-50V150z"/>
</svg>
