<?xml version="1.0" encoding="utf-8"?>
<!-- Generator: Adobe Illustrator 20.1.0, SVG Export Plug-In . SVG Version: 6.00 Build 0)  -->
<svg version="1.1" id="Layer_1" xmlns="http://www.w3.org/2000/svg" xmlns:xlink="http://www.w3.org/1999/xlink" x="0px" y="0px"
	 viewBox="0 0 22.8 28.9" style="enable-background:new 0 0 22.8 28.9;" xml:space="preserve">
<style type="text/css">
	.st0{clip-path:url(#SVGID_2_);fill:#292E42;}
	.st1{clip-path:url(#SVGID_4_);fill:#292E42;}
</style>
<g>
	<defs>
		<path id="SVGID_1_" d="M11.5,13.3c-0.9,0-1.7-0.8-1.7-1.7c0-1,0.7-1.7,1.7-1.7c0.9,0,1.7,0.8,1.7,1.7
			C13.1,12.5,12.4,13.3,11.5,13.3z M11.5,9.1c-1.3,0-2.3,1.1-2.3,2.4s1,2.4,2.3,2.4s2.3-1.1,2.3-2.4S12.7,9.1,11.5,9.1z"/>
	</defs>
	<clipPath id="SVGID_2_">
		<use xlink:href="#SVGID_1_"  style="overflow:visible;"/>
	</clipPath>
	<rect x="4.1" y="4.1" class="st0" width="14.7" height="14.8"/>
</g>
<g>
	<defs>
		<path id="SVGID_3_" d="M16,15.9l-4.6,6.8l-4.6-6.9c-1.7-2.4-1.5-6.3,0.5-8.4c1.1-1.1,2.5-1.7,4-1.7s3,0.6,4,1.7
			C17.5,9.5,17.7,13.5,16,15.9z M15.9,6.9C14.7,5.7,13.1,5,11.4,5C9.7,5,8.1,5.7,6.9,6.9c-2.2,2.3-2.5,6.7-0.6,9.3l5.1,7.7l5.1-7.7
			C18.4,13.6,18.1,9.3,15.9,6.9z"/>
	</defs>
	<clipPath id="SVGID_4_">
		<use xlink:href="#SVGID_3_"  style="overflow:visible;"/>
	</clipPath>
	<rect class="st1" width="22.8" height="28.9"/>
</g>
</svg>
