<svg xmlns="http://www.w3.org/2000/svg" viewBox="0 0 108.23 112.28"><defs><style>.cls-1{fill:#3c4655;}</style></defs><title>Asset 3</title><g id="Layer_2" data-name="Layer 2"><g id="Layer_1-2" data-name="Layer 1"><path class="cls-1" d="M89.18,98.46a6.15,6.15,0,0,1-.42-3.19,32.25,32.25,0,0,1-12.11-1.1C66.19,91.48,54.51,85,43.77,76S24.65,56.62,20.17,46.78c-3.88-8.53-4.25-15.64-1-19.5s10.3-4.73,19.38-2.39C49,27.59,60.68,34,71.42,43.06S90.55,62.45,95,72.29c3.41,7.5,4.11,13.9,2,18a6.19,6.19,0,0,1,3.07,2.44C104.86,81,93.38,59.26,72.33,41.59,49.18,22.17,23.23,15,14.37,25.54S17.09,60.4,40.24,79.83c18.19,15.26,38.1,23,50.1,20.45A6.18,6.18,0,0,1,89.18,98.46Z"/><path class="cls-1" d="M62,7.55a6.22,6.22,0,0,1-1.75,2.39c2.53,2.26,4.94,5.89,7,10.67,4.25,9.79,6.58,22.93,6.58,37s-2.34,27.22-6.58,37c-3.68,8.49-8.43,13.36-13,13.36s-9.34-4.87-13-13.36c-4.25-9.79-6.58-22.93-6.58-37s2.34-27.22,6.58-37C44,14.22,47.37,9.89,50.82,8.13a6.28,6.28,0,0,1-.28-.57,6.16,6.16,0,0,1-.12-4.4C39.11,6.09,30.3,29.33,30.3,57.55c0,30.22,10.1,54.72,22.55,54.72s22.55-24.5,22.55-54.72C75.41,35.26,69.91,16.08,62,7.55Z"/><path class="cls-1" d="M66.07,53.51a10.59,10.59,0,1,0-5.73,13.83A10.59,10.59,0,0,0,66.07,53.51ZM51.51,55.88a2.08,2.08,0,1,1,2.08-2.08A2.08,2.08,0,0,1,51.51,55.88Z"/><path class="cls-1" d="M61.07,3.2A5.18,5.18,0,1,0,58.27,10,5.18,5.18,0,0,0,61.07,3.2ZM54,4.36a1,1,0,1,1,1-1A1,1,0,0,1,54,4.36Z"/><path class="cls-1" d="M99.7,94.11a5.18,5.18,0,1,0-2.8,6.76A5.17,5.17,0,0,0,99.7,94.11Zm-7.12,1.16a1,1,0,1,1,1-1A1,1,0,0,1,92.58,95.27Z"/><path class="cls-1" d="M108,48.7c-2.86-12.42-29.14-17.82-58.71-12C22.09,42,1.6,54.86.69,66.55a6.2,6.2,0,0,1,4.49-1.92h.38c.52-4,4-8.61,10.08-12.94C24.16,45.6,36.38,40.77,50.05,38.1s27-2.82,37.44-.42c9.09,2.08,14.91,5.91,16,10.51s-2.57,10.28-10,15.58C85,69.88,72.75,74.71,59.09,77.38s-27,2.82-37.44.42a34.24,34.24,0,0,1-10.89-4.24A6.16,6.16,0,0,1,6.29,77c9.65,6.95,30.51,9.14,53.33,4.69C89.18,75.87,110.83,61.12,108,48.7Z"/><path class="cls-1" d="M10,68.87a5.18,5.18,0,1,0-2.8,6.76A5.18,5.18,0,0,0,10,68.87ZM2.84,70a1,1,0,1,1,1-1A1,1,0,0,1,2.84,70Z"/></g></g></svg>