<?xml version="1.0" encoding="utf-8"?>
<!-- Generator: Adobe Illustrator 20.1.0, SVG Export Plug-In . SVG Version: 6.00 Build 0)  -->
<svg version="1.1" id="Layer_1" xmlns="http://www.w3.org/2000/svg" xmlns:xlink="http://www.w3.org/1999/xlink" x="0px" y="0px"
	 viewBox="0 0 400 400" style="enable-background:new 0 0 400 400;" xml:space="preserve">
<style type="text/css">
	.st0{clip-path:url(#SVGID_2_);}
	.st1{clip-path:url(#SVGID_4_);}
	.st2{fill:#DF3894;}
</style>
<title>warning</title>
<g>
	<defs>
		<path id="SVGID_1_" d="M210.4,222.1c-4,13.6-16.5,13.9-20.7,0c-11.8-37.6-19.2-76.4-21.9-115.8c0-51.8,64.9-52,64.9,0
			C229.7,145.7,222.2,184.5,210.4,222.1z M200,327.8c-15.3-1.4-26.5-14.9-25.1-30.2c1.2-13.3,11.8-23.9,25.1-25.1
			c15.3,1.4,26.5,14.9,25.1,30.2C223.9,316,213.3,326.5,200,327.8z M200,0C89.5,0,0,89.5,0,200s89.5,200,200,200s200-89.5,200-200
			l0,0C400,89.5,310.5,0,200,0z"/>
	</defs>
	<clipPath id="SVGID_2_">
		<use xlink:href="#SVGID_1_"  style="overflow:visible;"/>
	</clipPath>
	<g class="st0">
		<g>
			<defs>
				<rect id="SVGID_3_" x="-20470.6" y="-11011.8" width="32141.2" height="20964.7"/>
			</defs>
			<clipPath id="SVGID_4_">
				<use xlink:href="#SVGID_3_"  style="overflow:visible;"/>
			</clipPath>
			<g class="st1">
				<rect x="-117.6" y="-117.6" class="st2" width="635.3" height="635.3"/>
			</g>
		</g>
	</g>
</g>
</svg>
