<?xml version="1.0" encoding="UTF-8"?>
<svg width="15px" height="20px" viewBox="0 0 15 20" version="1.1" xmlns="http://www.w3.org/2000/svg" xmlns:xlink="http://www.w3.org/1999/xlink">
    <!-- Generator: Sketch 52.5 (67469) - http://www.bohemiancoding.com/sketch -->
    <title>Combined Shape</title>
    <desc>Created with Sketch.</desc>
    <g id="ODP_Overview_Hovers" stroke="none" stroke-width="1" fill="none" fill-rule="evenodd">
        <g id="01_ODP_a" transform="translate(-929.000000, -20.000000)" fill="#41566F" fill-rule="nonzero">
            <g id="PageTitle_and_Nav">
                <g id="WhiteNav_Desktop">
                    <path d="M943.875984,36.21625 L942.86686,34.3850781 L942.86686,29.8628516 C942.86686,27.0673437 940.925052,24.7022656 938.277055,23.9617187 L938.277055,21.704375 C938.277095,20.7645703 937.486344,20 936.514309,20 C935.542274,20 934.751523,20.7645703 934.751523,21.704375 L934.751523,23.9617578 C932.103607,24.7023438 930.161718,27.0673828 930.161718,29.8628906 L930.161718,34.3850781 L929.152634,36.21625 C928.9583,36.5688672 928.969289,36.9839063 929.181966,37.3265234 C929.394683,37.6690625 929.768363,37.8735937 930.181636,37.8735937 L934.187832,37.8735937 C934.256072,39.0572266 935.273276,40 936.514309,40 C937.755301,40 938.772547,39.0572266 938.840786,37.8735937 L942.847023,37.8735937 C943.260256,37.8735937 943.633935,37.6690625 943.846693,37.3265234 C944.059289,36.9839063 944.070278,36.5688672 943.875984,36.21625 Z M935.684247,21.704375 C935.684247,21.2617969 936.056593,20.9017969 936.514269,20.9017969 C936.971944,20.9017969 937.34429,21.2617969 937.34429,21.704375 L937.34429,23.7734375 C937.072546,23.7389844 936.795508,23.7210156 936.514269,23.7210156 C936.232949,23.7210156 935.955951,23.7390234 935.684247,23.7734375 L935.684247,21.704375 Z M931.094482,29.8628516 C931.094482,26.9734766 933.525803,24.6227344 936.514309,24.6227344 C939.502816,24.6227344 941.934136,26.9734766 941.934136,29.8628516 L941.934136,34.0119531 L931.094482,34.0119531 L931.094482,29.8628516 Z M936.514309,39.0982031 C935.787838,39.0982031 935.189321,38.5594531 935.123061,37.8735937 L937.905638,37.8735937 C937.839298,38.5594531 937.240699,39.0982031 936.514309,39.0982031 Z M943.046932,36.8623438 C943.026489,36.8952734 942.966168,36.9717969 942.847023,36.9717969 L930.181636,36.9717969 C930.062531,36.9717969 930.002129,36.8952734 929.981726,36.8623438 C929.961283,36.8294922 929.91983,36.7419531 929.975868,36.6402734 L930.927298,34.91375 L942.101401,34.91375 L943.052831,36.6402734 C943.108788,36.7419531 943.067295,36.8294531 943.046932,36.8623438 Z M936.514309,25.8247266 C936.771873,25.8247266 936.980671,26.0265625 936.980671,26.275625 C936.980671,26.5246094 936.771873,26.7265234 936.514309,26.7265234 C934.725585,26.7265234 933.27034,28.1335547 933.27034,29.8629297 C933.27034,30.1119141 933.061542,30.3138281 932.803978,30.3138281 C932.546414,30.3138281 932.337616,30.1119141 932.337616,29.8629297 C932.337616,27.6362891 934.211306,25.8247266 936.514309,25.8247266 Z" id="Combined-Shape"></path>
                </g>
            </g>
        </g>
    </g>
</svg>