<svg width="8px" height="8px" viewBox="0 0 8 8" version="1.1" xmlns="http://www.w3.org/2000/svg" xmlns:xlink="http://www.w3.org/1999/xlink">
    <g id="Symbols" stroke="none" stroke-width="1" fill="none" fill-rule="evenodd">
        <g id="ActiveAstronomerCard" transform="translate(-212.000000, -140.000000)" fill="#41566F">
            <g id="Group-4" transform="translate(199.000000, 129.000000)">
                <path d="M16.7227345,11.180767 C16.7750292,11.0701376 16.8827252,11 17.0004315,11 C17.1181377,11 17.2260063,11.0701376 17.2781284,11.180767 L18.2741441,13.2948374 C18.3191901,13.3904631 18.4065205,13.4568046 18.5074855,13.4721698 L20.7349293,13.811108 C20.8517726,13.8288232 20.9484229,13.9145067 20.9848394,14.0318245 C21.0212558,14.1491423 20.99088,14.27821 20.9064836,14.3642551 L19.2948401,16.0099581 C19.2218347,16.0844341 19.1885248,16.1918097 19.2056112,16.2970161 L19.5859991,18.6207762 C19.6056743,18.7426132 19.5582122,18.8655348 19.4625974,18.9382031 C19.3671553,19.0105099 19.2409921,19.0200906 19.1364027,18.9629682 L17.1440262,17.8657124 C17.0539343,17.8160014 16.9460657,17.8160014 16.8558012,17.8657124 L14.8634247,18.9627874 C14.7591805,19.0200906 14.6326722,19.0106907 14.53723,18.9382031 C14.4417878,18.8657155 14.3941531,18.7426132 14.4140009,18.6207762 L14.7943888,16.2970161 C14.8116478,16.1918097 14.7781653,16.0844341 14.7051599,16.0099581 L13.0935164,14.3642551 C13.00912,14.2780292 12.9787442,14.1491423 13.0151606,14.0318245 C13.0515771,13.9145067 13.1484,13.8288232 13.2652432,13.811108 L15.4930323,13.4721698 C15.5938247,13.4568046 15.6811551,13.3904631 15.7262011,13.2946566 L16.7227345,11.180767 L16.7227345,11.180767 Z" id="Shape-Copy-7"></path>
            </g>
        </g>
    </g>
</svg>
