<svg width="20px" height="17px" viewBox="0 0 20 17" version="1.1" xmlns="http://www.w3.org/2000/svg" xmlns:xlink="http://www.w3.org/1999/xlink">
    <!-- Generator: Sketch 50.2 (55047) - http://www.bohemiancoding.com/sketch -->
    <title>Group 12</title>
    <desc>Created with Sketch.</desc>
    <defs></defs>
    <g id="ONLINE" stroke="none" stroke-width="1" fill="none" fill-rule="evenodd">
        <g id="00_Scope_Online_Phone_LiveScope_a" transform="translate(-146.000000, -557.000000)" fill="#41566F" fill-rule="nonzero">
            <g id="Scope_Viewer_Mobile" transform="translate(0.000000, 195.000000)">
                <g id="SnapperTools" transform="translate(0.000000, 320.000000)">
                    <g id="Snapper" transform="translate(126.000000, 20.000000)">
                        <g id="Group-12" transform="translate(20.000000, 22.000000)">
                            <path d="M17.8103268,2.23357437 L14.5526802,2.23357437 L13.1750039,0.181437071 C13.1042556,0.0759748284 12.9874166,0.012993135 12.8625733,0.012993135 L6.56009411,0.012993135 C6.43525085,0.012993135 6.31844975,0.0759748284 6.24766351,0.181437071 L4.86987342,2.23357437 L3.80280686,2.23357437 L3.80280686,1.06683753 C3.80280686,0.852061785 3.63293506,0.67782151 3.42345937,0.67782151 L1.61226477,0.67782151 C1.40278909,0.67782151 1.23291728,0.852061785 1.23291728,1.06683753 L1.23291728,2.28025629 C0.526420514,2.45566362 0,3.10928833 0,3.88697025 L0,13.8067231 C0,14.7184989 0.723225993,15.4601968 1.61226477,15.4601968 L7.93568398,15.4601968 C8.81709788,15.8661739 9.79369006,16.0923478 10.8208872,16.0923478 C11.8480843,16.0923478 12.8247145,15.8661739 13.7061283,15.4601968 L17.8103268,15.4601968 C18.6994035,15.4601968 19.4226674,14.7184989 19.4226674,13.8067231 L19.4226674,3.88697025 C19.4226674,2.97527231 18.6994035,2.23357437 17.8103268,2.23357437 Z M6.75951708,0.791025172 L12.6632262,0.791025172 L13.59938,2.18549199 C12.7460757,1.80981922 11.8068113,1.60134554 10.8208872,1.60134554 C9.79361419,1.60134554 8.81698407,1.82751945 7.93553224,2.23357437 L5.791005,2.23357437 L6.75951708,0.791025172 Z M1.99161227,1.45585355 L3.04414982,1.45585355 L3.04414982,2.23357437 L1.99161227,2.23357437 L1.99161227,1.45585355 Z M1.61226477,14.6821648 C1.14160834,14.6821648 0.758694983,14.2894142 0.758694983,13.8067231 L0.758694983,3.88697025 C0.758694983,3.40427918 1.14160834,3.01160641 1.61226477,3.01160641 L6.6377086,3.01160641 C4.89096514,4.33196568 3.75550223,6.45583753 3.75550223,8.84684668 C3.75550223,11.2378947 4.89104101,13.3618055 6.63782241,14.6821648 L1.61226477,14.6821648 Z M10.8208872,15.3143158 C7.34337081,15.3143158 4.51419721,12.4130343 4.51419721,8.84684668 C4.51419721,5.28065904 7.34337081,2.37937757 10.8208872,2.37937757 C14.2984795,2.37937757 17.127691,5.28065904 17.127691,8.84684668 C17.127691,12.4130343 14.2984795,15.3143158 10.8208872,15.3143158 Z M18.6640104,13.8067231 L18.6639725,13.8067231 C18.6639725,14.2894142 18.2810212,14.6821648 17.8103268,14.6821648 L15.0040279,14.6821648 C16.7508472,13.3618055 17.886386,11.2378947 17.886386,8.84684668 C17.886386,6.45583753 16.7508851,4.33196568 15.0041417,3.01160641 L17.8103647,3.01160641 C18.2810591,3.01160641 18.6640104,3.40427918 18.6640104,3.88697025 L18.6640104,13.8067231 Z" id="Shape"></path>
                            <path d="M2.87799561,13.1982632 L2.20556425,13.1982632 L2.20556425,11.4126018 C2.20556425,11.1977483 2.03569244,11.0235858 1.82621676,11.0235858 C1.61674107,11.0235858 1.44686927,11.1977483 1.44686927,11.4126018 L1.44686927,13.5872792 C1.44686927,13.8021327 1.61674107,13.9762952 1.82621676,13.9762952 L2.87803355,13.9762952 C3.08750923,13.9762952 3.25738104,13.8021327 3.25738104,13.5872792 C3.25734311,13.3725034 3.08750923,13.1982632 2.87799561,13.1982632 Z" id="Shape"></path>
                            <path d="M1.82621676,9.94145995 C1.61674107,9.94145995 1.44686927,10.1156224 1.44686927,10.330476 L1.44686927,10.3488764 C1.44686927,10.5636911 1.61670314,10.7378924 1.82621676,10.7378924 C2.03569244,10.7378924 2.20556425,10.5636522 2.20556425,10.3488764 L2.20556425,10.330476 C2.20556425,10.1156224 2.03569244,9.94145995 1.82621676,9.94145995 Z" id="Shape"></path>
                            <path d="M10.8208872,3.1594714 C7.76285326,3.1594714 5.27494067,5.71079405 5.27494067,8.84684668 C5.27494067,11.9828993 7.76285326,14.5342998 10.8208872,14.5342998 C13.8789591,14.5342998 16.3668717,11.9828993 16.3668717,8.84684668 C16.3668717,5.71079405 13.8789591,3.1594714 10.8208872,3.1594714 Z M10.8208872,13.7562677 C8.18119768,13.7562677 6.03363566,11.5539314 6.03363566,8.84684668 C6.03363566,6.13983982 8.18119768,3.93750343 10.8208872,3.93750343 C13.4606147,3.93750343 15.6081767,6.13983982 15.6081767,8.84684668 C15.6081767,11.5539314 13.4606147,13.7562677 10.8208872,13.7562677 Z" id="Shape"></path>
                            <path d="M14.190024,6.27712357 C13.6581409,5.54483982 12.9302489,5.01328833 12.0851006,4.73988787 C11.8853363,4.67538902 11.6722188,4.78898169 11.6092092,4.99387643 C11.5461996,5.19877117 11.6571208,5.41732037 11.8568852,5.48189703 C13.294726,5.94688787 14.2607723,7.29918535 14.2607723,8.84680778 C14.2607723,9.06158352 14.4306441,9.2358238 14.6401198,9.2358238 C14.8495955,9.2358238 15.0194673,9.06158352 15.0194673,8.84680778 C15.0195052,7.91274142 14.7326806,7.02418993 14.190024,6.27712357 Z" id="Shape"></path>
                            <path d="M10.8633741,4.541373 L10.8208872,4.54121739 C10.6114115,4.54121739 10.4415397,4.71537986 10.4415397,4.93023341 C10.4415397,5.14500915 10.6114115,5.31924943 10.8208872,5.31924943 L10.8568493,5.31940503 C10.8579494,5.31940503 10.8590875,5.31940503 10.8601876,5.31940503 C11.0681459,5.31940503 11.2376384,5.14745995 11.2394592,4.93373455 C11.2412422,4.71895881 11.0728877,4.54327918 10.8633741,4.541373 Z" id="Shape"></path>
                            <path d="M3.25734311,3.57128375 C2.62982649,3.57128375 2.11930063,4.09486041 2.11930063,4.73840961 C2.11930063,5.38188101 2.62982649,5.90537986 3.25734311,5.90537986 C3.88489766,5.90537986 4.39542351,5.38188101 4.39542351,4.73840961 C4.39542351,4.09486041 3.88489766,3.57128375 3.25734311,3.57128375 Z M3.25734311,5.12734783 C3.0481709,5.12734783 2.87799561,4.95291304 2.87799561,4.73840961 C2.87799561,4.52382838 3.0481709,4.34931579 3.25734311,4.34931579 C3.46655325,4.34931579 3.63672853,4.52382838 3.63672853,4.73840961 C3.63672853,4.95287414 3.46655325,5.12734783 3.25734311,5.12734783 Z" id="Shape"></path>
                        </g>
                    </g>
                </g>
            </g>
        </g>
    </g>
</svg>
