
<svg width="14px" height="12px" viewBox="0 0 14 12" version="1.1" xmlns="http://www.w3.org/2000/svg" xmlns:xlink="http://www.w3.org/1999/xlink">
    <!-- Generator: Sketch 50.2 (55047) - http://www.bohemiancoding.com/sketch -->
    <desc>Created with Sketch.</desc>
    <defs></defs>
    <g id="Symbols" stroke="none" stroke-width="1" fill="none" fill-rule="evenodd">
        <g id="Like" transform="translate(-27.000000, -14.000000)" fill="#41566F" fill-rule="nonzero">
            <g id="Group-6" transform="translate(27.000000, 9.000000)">
                <path d="M12.6603429,6.23931429 C11.9413714,5.44011429 10.9458286,5 9.85714286,5 C8.66417143,5 7.62851429,5.54365714 6.85714286,6.57325714 C6.08577143,5.54365714 5.05011429,5 3.85714286,5 C1.62605714,5 0,6.83428571 0,9.07794286 C0,10.2420571 0.450571429,11.3090286 1.41794286,12.4359429 C2.52674286,13.7275429 4.25045714,15.0376 6.29931429,16.7936571 C6.45982857,16.9312571 6.65845714,17 6.85714286,17 C7.05582857,17 7.25445714,16.9312 7.41497143,16.7936571 C9.46137143,15.0396571 11.1871429,13.728 12.2963429,12.436 C13.2637143,11.3090286 13.7142857,10.2420571 13.7142857,9.07794286 C13.7142857,8.00285714 13.34,6.99474286 12.6603429,6.23931429 Z M7.86468571,14.1730286 C7.53788571,14.4458286 7.20377143,14.7247429 6.85714286,15.0175429 C6.51051429,14.7246857 6.1764,14.4458857 5.8496,14.1730286 C3.2708,12.0204571 1.71428571,10.7210857 1.71428571,9.07794286 C1.71428571,7.73045714 2.63554286,6.71428571 3.85714286,6.71428571 C5.44577143,6.71428571 6.00817143,8.5788 6.03274286,8.66325714 C6.13754286,9.03142857 6.474,9.28571429 6.85714286,9.28571429 C7.24154286,9.28571429 7.57891429,9.02982857 7.68251429,8.65965714 C7.68794286,8.64022857 8.24588571,6.71428571 9.85714286,6.71428571 C11.0787429,6.71428571 12,7.73045714 12,9.07794286 C12,10.7210857 10.4434857,12.0204571 7.86468571,14.1730286 Z" id="Shape-Copy"></path>
            </g>
        </g>
    </g>
</svg>
