
<svg width="20px" height="20px" viewBox="0 0 20 20" version="1.1" xmlns="http://www.w3.org/2000/svg" xmlns:xlink="http://www.w3.org/1999/xlink">
    <!-- Generator: Sketch 50.2 (55047) - http://www.bohemiancoding.com/sketch -->
    <desc>Created with Sketch.</desc>
    <defs>
        <circle id="path-1" cx="9.95429335" cy="9.95429335" r="9.95429335"></circle>
        <filter x="-10.0%" y="-10.0%" width="120.1%" height="120.1%" filterUnits="objectBoundingBox" id="filter-3">
            <feGaussianBlur stdDeviation="2" in="SourceAlpha" result="shadowBlurInner1"></feGaussianBlur>
            <feOffset dx="0" dy="0" in="shadowBlurInner1" result="shadowOffsetInner1"></feOffset>
            <feComposite in="shadowOffsetInner1" in2="SourceAlpha" operator="arithmetic" k2="-1" k3="1" result="shadowInnerInner1"></feComposite>
            <feColorMatrix values="0 0 0 0 0.927798417   0 0 0 0 0.940698449   0 0 0 0 0.949298469  0 0 0 1 0" type="matrix" in="shadowInnerInner1"></feColorMatrix>
        </filter>
        <circle id="path-4" cx="9.95429335" cy="9.95429335" r="9.95429335"></circle>
        <filter x="-2.5%" y="-2.5%" width="105.0%" height="105.0%" filterUnits="objectBoundingBox" id="filter-6">
            <feGaussianBlur stdDeviation="0.5" in="SourceAlpha" result="shadowBlurInner1"></feGaussianBlur>
            <feOffset dx="0" dy="0" in="shadowBlurInner1" result="shadowOffsetInner1"></feOffset>
            <feComposite in="shadowOffsetInner1" in2="SourceAlpha" operator="arithmetic" k2="-1" k3="1" result="shadowInnerInner1"></feComposite>
            <feColorMatrix values="0 0 0 0 0.927798417   0 0 0 0 0.940698449   0 0 0 0 0.949298469  0 0 0 1 0" type="matrix" in="shadowInnerInner1"></feColorMatrix>
        </filter>
    </defs>
    <g id="Symbols" stroke="none" stroke-width="1" fill="none" fill-rule="evenodd">
        <g id="Slooh_SideEnd" transform="translate(-140.000000, 0.000000)">
            <g id="Group" transform="translate(140.000000, 0.000000)">
                <mask id="mask-2" fill="white">
                    <use xlink:href="#path-1"></use>
                </mask>
                <g id="Mask">
                    <use fill="#E9EBED" fill-rule="evenodd" xlink:href="#path-1"></use>
                    <use fill="black" fill-opacity="1" filter="url(#filter-3)" xlink:href="#path-1"></use>
                </g>
                <g id="Group-12" mask="url(#mask-2)">
                    <g transform="translate(0.771651, 3.667381)">
                        <g id="Group-2" stroke-width="1" fill="none" transform="translate(4.048119, 0.091371)">
                            <path d="M7.38792075,0.0681939387 C7.40911735,0.0264592482 7.45276976,0 7.50047961,0 C7.54818946,0 7.59191183,0.0264592482 7.61303848,0.0681939387 L8.01675333,0.865722052 C8.03501179,0.901796646 8.07040942,0.926823821 8.11133356,0.932620306 L9.01418296,1.06048394 C9.06154303,1.06716695 9.10071827,1.09949087 9.11547894,1.14374874 C9.13023961,1.18800661 9.11792739,1.23669708 9.08371901,1.26915739 L8.43047186,1.88999501 C8.40088056,1.91809091 8.3873791,1.95859811 8.39430472,1.99828699 L8.54848728,2.87492007 C8.55646224,2.92088278 8.53722439,2.96725466 8.49846889,2.99466863 C8.45978334,3.0219462 8.40864565,3.02556048 8.36625245,3.0040112 L7.55868283,2.59007399 C7.52216591,2.57132065 7.47844354,2.57132065 7.44185666,2.59007399 L6.63428704,3.003943 C6.59203375,3.02556048 6.54075615,3.0220144 6.5020706,2.99466863 C6.46338505,2.96732286 6.44407725,2.92088278 6.45212217,2.87492007 L6.60630473,1.99828699 C6.61330031,1.95859811 6.59972888,1.91809091 6.57013758,1.88999501 L5.91689043,1.26915739 C5.88268205,1.23662889 5.87036984,1.18800661 5.88513051,1.14374874 C5.89989118,1.09949087 5.93913637,1.06716695 5.98649644,1.06048394 L6.88948576,0.932620306 C6.93033994,0.926823821 6.96573757,0.901796646 6.98399603,0.865653858 L7.38792075,0.0681939387 L7.38792075,0.0681939387 Z" id="Shape" fill="#FFFFFF"></path>
                            <path d="M1.20095951,1.40224485 C1.21685697,1.37094383 1.24959628,1.3510994 1.28537866,1.3510994 C1.32116105,1.3510994 1.35395282,1.37094383 1.36979781,1.40224485 L1.67258395,2.00039094 C1.68627779,2.02744688 1.71282602,2.04621726 1.74351912,2.05056463 L2.42065617,2.14646235 C2.45617622,2.15147461 2.48555765,2.17571755 2.49662816,2.20891095 C2.50769866,2.24210435 2.4984645,2.27862221 2.47280821,2.30296744 L1.98287285,2.76859566 C1.96067937,2.78966758 1.95055327,2.82004798 1.95574749,2.84981464 L2.07138441,3.50728945 C2.07736563,3.54176149 2.06293725,3.57654039 2.03387062,3.59710087 C2.00485645,3.61755905 1.96650319,3.62026976 1.93470829,3.60410779 L1.32903107,3.29365489 C1.30164338,3.27958989 1.26885161,3.27958989 1.24141145,3.29365489 L0.635734234,3.60405665 C0.604044262,3.62026976 0.565586067,3.61761019 0.536571904,3.59710087 C0.507557741,3.57659154 0.493076893,3.54176149 0.499110579,3.50728945 L0.614747497,2.84981464 C0.619994182,2.82004798 0.609815614,2.78966758 0.587622141,2.76859566 L0.0976867777,2.30296744 C0.0720304924,2.27857106 0.0627963284,2.24210435 0.0738668318,2.20891095 C0.0849373353,2.17571755 0.114371233,2.15147461 0.149891285,2.14646235 L0.82713327,2.05056463 C0.857773906,2.04621726 0.884322127,2.02744688 0.898015973,2.00033979 L1.20095951,1.40224485 L1.20095951,1.40224485 Z" id="Shape-Copy-3" fill="#FFFFFF"></path>
                            <path d="M10.5235454,5.05021322 C10.5394428,5.01891221 10.5721821,4.99906777 10.6079645,4.99906777 C10.6437469,4.99906777 10.6765387,5.01891221 10.6923837,5.05021322 L10.9951698,5.64835931 C11.0088636,5.67541526 11.0354119,5.69418564 11.066105,5.698533 L11.743242,5.79443073 C11.7787621,5.79944298 11.8081435,5.82368593 11.819214,5.85687933 C11.8302845,5.89007273 11.8210503,5.92659058 11.7953941,5.95093582 L11.3054587,6.41656403 C11.2832652,6.43763596 11.2731391,6.46801636 11.2783333,6.49778301 L11.3939703,7.15525782 C11.3999515,7.18972986 11.3855231,7.22450877 11.3564565,7.24506924 C11.3274423,7.26552742 11.289089,7.26823813 11.2572941,7.25207617 L10.6516169,6.94162326 C10.6242292,6.92755826 10.5914374,6.92755826 10.5639973,6.94162326 L9.95832008,7.25202502 C9.9266301,7.26823813 9.88817191,7.26557857 9.85915775,7.24506924 C9.83014358,7.22455991 9.81566274,7.18972986 9.82169642,7.15525782 L9.93733334,6.49778301 C9.94258002,6.46801636 9.93240146,6.43763596 9.91020798,6.41656403 L9.42027262,5.95093582 C9.39461634,5.92653943 9.38538217,5.89007273 9.39645267,5.85687933 C9.40752318,5.82368593 9.43695708,5.79944298 9.47247713,5.79443073 L10.1497191,5.698533 C10.1803597,5.69418564 10.206908,5.67541526 10.2206018,5.64830816 L10.5235454,5.05021322 L10.5235454,5.05021322 Z" id="Shape-Copy-5" fill="#FFFFFF"></path>
                        </g>
                        <path d="M10.0684961,8.67902909 C10.0684961,8.67902909 8.30168744,9.38395155 6.97541289,11.361231 C5.64913834,13.3385104 5.2472244,15.4271668 5.2472244,15.4271668 C5.2472244,15.4271668 7.42732587,16.8765362 9.74879616,16.718928 C12.0702664,16.5613199 15.5125894,16.3907881 15.1868986,14.3368711 C14.8612078,12.2829541 11.649551,9.85263135 11.649551,9.85263135 C11.649551,9.85263135 11.6296569,9.5275057 11.4786425,9.38395155 C11.327628,9.2403974 10.0684961,8.67902909 10.0684961,8.67902909 Z" id="Path-3" fill="#FFFFFF"></path>
                        <path d="M7.48614163,8.34595332 C7.48614163,8.34595332 3.49390452,10.4854753 2.58465289,13.370876 C1.67540125,16.2562767 0,10.4776382 0,10.4776382 C0,10.4776382 3.27759366,8.27994102 4.32177112,8.27994102 C5.36594858,8.27994102 5.59416577,7.75304831 5.59416577,7.75304831 L7.55230464,7.75304831 L7.48614163,8.34595332 Z" id="Path-4" fill="#FFFFFF"></path>
                    </g>
                </g>
                <mask id="mask-5" fill="white">
                    <use xlink:href="#path-4"></use>
                </mask>
                <g id="Mask" fill="black" fill-opacity="1">
                    <use filter="url(#filter-6)" xlink:href="#path-4"></use>
                </g>
            </g>
        </g>
    </g>
</svg>
