<svg id="Layer_1" data-name="Layer 1" xmlns="http://www.w3.org/2000/svg" viewBox="0 0 500 500"><defs><style>.cls-1{fill:#fff;}</style></defs><title>earth</title><path d="M500,250.68C499.43,389.57,388,500.36,249.31,500S-.38,388.12,0,249.38,112.06-.5,250.61,0C389.39.5,500.57,112.25,500,250.68ZM293.82,417.92l113.35-95.76-79.51-87.77L220.93,324.07C243.21,352.77,266.78,383.1,293.82,417.92Zm-8.54-.14-70.47-90.6-105,37.36c12.32,31.11,30.8,60.26,56.8,84.07,4.54,4.16,13.17,6.44,19.43,5.68C221.63,450,253.8,435.72,285.28,417.78ZM352.55,176.3l5.87-.52c1.84-9,3.38-18.12,5.65-27,1.21-4.78,2.4-11.27,5.85-13.46,10.48-6.66,7.34-11.86-1.45-14.14-24.23-6.3-44.66-23.33-72.26-21.1-22.23,1.79-34.43,10.73-30.64,32.84,1.67,9.73,7.92,18.68,12.9,29.78l-18.59,5.48,63.48,53c25.82-26.1,25.85-26.27,7.3-54.69-3.92-6-8-12-11.88-17.83l7.86-6.38ZM323,229.6c-29-23.91-53-43.68-80.07-66,.74,17.44-29.23,26.13-2,43.53-14.06,5.35-10.07,10.37-3.2,17.81,6.16,6.65,9.62,15.8,15.92,26.71h-25l12.12,17.65c-15.22-1.82-26.49-1.18-36.08-4.89-8.67-3.35-15.5-11.46-23.14-17.47l-3.61,4L217.31,318ZM85.74,278.35c5.81,23.73,10.51,44.79,16.44,65.51,1.16,4,7.6,10,10.77,9.48A250.55,250.55,0,0,0,209.29,318c-11.11-19.24-23.64-36.07-31-54.93-8.36-21.52-24-13.47-36.34-10.91-6.72,1.39-11.56,12.46-17,19.38-2.87,3.66-5.14,11.08-7.7,11.09C107.89,282.68,98.46,280.32,85.74,278.35ZM300.38,421.12c4.47,4,10.19,9.08,16.63,14.82l8.34-10.76c2.6,1.37,5.51,3.14,8.61,4.47,5.58,2.38,5.53,16.52,15.3,8.71,5.34-4.27,8.32-11.85,11.53-18.35,4-8.14,7.21-16.71,11.35-26.49,4.67,4.15,7.41,5.63,8.78,7.94,10.74,18,12.84,15.91,32.65,10.38,19.29-5.37,25.28-15,19.63-31.67C427,362,418,344.74,410.81,328.53ZM96.81,354.26c-4.76-20.34-8.93-38.51-13.27-56.65S74.72,261.51,69,238.15L42.12,261.22,32,243.22c-1.06,31.7-21.22,63.66,10.41,92.57C59.23,351.19,75.93,354.27,96.81,354.26Zm346.72,28.2C479.82,344.83,495.21,265.65,472,228c1.49,8.17,5.61,16.16,5.59,24.14,0,11.73,6.07,26.31-7.07,34.25-5.81,3.51-15,1.13-22.56,2.12-4.78.62-11,1.07-13.77,4.14-7.92,8.8-14.42,18.89-20.5,27.14ZM468.47,194.8c6.85-43.67-38.71-114-89.83-140.1,8.6,11.4,14.32,19,20,26.54L393,80.75l-7,36.64c9,8.55,14.32,14.73,20.72,19.4C417.37,144.57,428.22,156,440,157.3c11.43,1.32,16.07,5.91,20.17,13.74C463.21,176.89,464.64,183.59,468.47,194.8ZM243.2,460.44c24.81-3.95,54.08,19.34,76.16-13-4.64-4.27-9.45-7.54-12.74-11.94-9.21-12.3-18.2-11.31-31.65-4.92-27.54,13.08-56.5,23.16-84.16,34.19,17.72,15.3,40.48,22.84,68.54,20.12ZM420.81,216.52c-15.59-22-14.45-35.58,3.56-56.19-5.17-4.38-10-9.19-15.57-13-14.56-10.12-25.68-9.62-31.38,1.45S366.94,171,363.84,177.67l49.23,66.7c-1.68-11.64-2.81-19.45-4-27.85Zm-11.42,97.85L432,282.49c-7.07-11.17-12.38-19.58-17.7-28,8.29,21.84-10.73,25.36-19.42,34.73l-49.56-82.86-15.56,20ZM326.29,78.83l49.38,40.49,7.31-3.4c-2.27-12.89-.55-29-7.74-37.92C363.83,63.83,344.42,65.16,326.29,78.83ZM193.94,73.09c10.59-2,28.19,8.19,37.69-12.31,1-2.22,10.56-.36,16.12-.68,4.68-.28,10.22.36,13.71-1.94,2.49-1.65,3.26-7.56,3-11.44-1.09-15.37-11.18-14.2-21.78-10.81s-22.46,5-30.76,11.32C203.83,53.39,199.58,64.56,193.94,73.09ZM150.06,95.63l2.3,4.51L163,80.31l-2.9-3.57c-14.33,5.8-28.41,12.33-43,17.25C83.3,105.36,83.19,105,81.16,117.11ZM124.31,413.45c-13.64-23.73-15.59-61.14-57.27-54.87a15.07,15.07,0,0,0-2.45.77ZM195.82,41.81l45-13.71c-.17-.67-.33-1.34-.5-2l-26.82-2.48,11.85-7.33C194.21,16.17,186.21,23.29,195.82,41.81Zm21.72,43.46L215.75,80c-18,5.9-43.64-11-54.89,21.37Zm-202.83,194,2.74.7C19,268.74,20.31,257.5,22,246.3c3.32-22.11,3.39-22.1-7.28-26.69ZM28.46,158.37c21.06-4.75,43.05-25.7,41-41.63ZM342.76,40.53c9.09,9.08,12,28.24,32.4,21.43C371.52,43.75,356.79,42.84,342.76,40.53Zm-263.63,62L74.6,97.78c-13.29,3.33-16.7,16.51-21.53,28.35Z"/><path class="cls-1" d="M293.82,417.92c-27-34.82-50.61-65.15-72.89-93.85l106.73-89.68,79.51,87.77Z"/><path class="cls-1" d="M285.28,417.78C253.8,435.72,221.63,450,186,454.29c-6.26.76-14.89-1.52-19.43-5.68-26-23.81-44.48-53-56.8-84.07l105-37.36Z"/><path class="cls-1" d="M352.55,176.3l-25.91-34.05-7.86,6.38c3.93,5.88,8,11.82,11.88,17.83,18.55,28.42,18.52,28.59-7.3,54.69l-63.48-53,18.59-5.48c-5-11.1-11.23-20-12.9-29.78-3.79-22.11,8.41-31,30.64-32.84,27.6-2.23,48,14.8,72.26,21.1,8.79,2.28,11.93,7.48,1.45,14.14-3.45,2.19-4.64,8.68-5.85,13.46-2.27,8.91-3.81,18-5.65,27Z"/><path class="cls-1" d="M323,229.6,217.31,318l-39.26-67.08,3.61-4c7.64,6,14.47,14.12,23.14,17.47,9.59,3.71,20.86,3.07,36.08,4.89l-12.12-17.65h25c-6.3-10.91-9.76-20.06-15.92-26.71-6.87-7.44-10.86-12.46,3.2-17.81-27.27-17.4,2.7-26.09,2-43.53C270,185.92,294,205.69,323,229.6Z"/><path class="cls-1" d="M85.74,278.35c12.72,2,22.15,4.33,31.56,4.3,2.56,0,4.83-7.43,7.7-11.09,5.42-6.92,10.26-18,17-19.38,12.38-2.56,28-10.61,36.34,10.91,7.33,18.86,19.86,35.69,31,54.93A250.55,250.55,0,0,1,113,353.34c-3.17.48-9.61-5.45-10.77-9.48C96.25,323.14,91.55,302.08,85.74,278.35Zm43.14,21.81c-21.14,6.87-23.7,15.2-10.79,32.46,2.75,3.67,2.49,9.6,3.86,15.54l23.91-26.25Z"/><path class="cls-1" d="M300.38,421.12l110.43-92.59C418,344.74,427,362,433.2,380.17c5.65,16.69-.34,26.3-19.63,31.67-19.81,5.53-21.91,7.63-32.65-10.38-1.37-2.31-4.11-3.79-8.78-7.94-4.14,9.78-7.32,18.35-11.35,26.49-3.21,6.5-6.19,14.08-11.53,18.35-9.77,7.81-9.72-6.33-15.3-8.71-3.1-1.33-6-3.1-8.61-4.47L317,435.94C310.57,430.2,304.85,425.09,300.38,421.12Z"/><path class="cls-1" d="M96.81,354.26c-20.88,0-37.58-3.07-54.43-18.47C10.75,306.88,30.91,274.92,32,243.22l10.15,18L69,238.15c5.73,23.36,10.23,41.39,14.55,59.46S92.05,333.92,96.81,354.26Z"/><path class="cls-1" d="M443.53,382.46l-29.8-62.72c6.08-8.25,12.58-18.34,20.5-27.14,2.76-3.07,9-3.52,13.77-4.14,7.56-1,16.75,1.39,22.56-2.12,13.14-7.94,7-22.52,7.07-34.25,0-8-4.1-16-5.59-24.14C495.21,265.65,479.82,344.83,443.53,382.46Z"/><path class="cls-1" d="M468.47,194.8c-3.83-11.21-5.26-17.91-8.33-23.76-4.1-7.83-8.74-12.42-20.17-13.74-11.75-1.35-22.6-12.73-33.27-20.51-6.4-4.67-11.7-10.85-20.72-19.4l7-36.64,5.66.49c-5.72-7.57-11.44-15.14-20-26.54C429.76,80.79,475.32,151.13,468.47,194.8Z"/><path class="cls-1" d="M243.2,460.44l16.15,24.41c-28.06,2.72-50.82-4.82-68.54-20.12,27.66-11,56.62-21.11,84.16-34.19,13.45-6.39,22.44-7.38,31.65,4.92,3.29,4.4,8.1,7.67,12.74,11.94C297.28,479.78,268,456.49,243.2,460.44Zm69.45-16.71-29.73-3.27q-1.05,2.1-2.08,4.2l14.82,17.18Z"/><path class="cls-1" d="M420.81,216.52H409.05c1.21,8.4,2.34,16.21,4,27.85l-49.23-66.7c3.1-6.65,8-18,13.58-28.93s16.82-11.57,31.38-1.45c5.53,3.85,10.4,8.66,15.57,13C406.36,180.94,405.22,194.5,420.81,216.52Z"/><path class="cls-1" d="M409.39,314.37l-79.6-88,15.56-20,49.56,82.86c8.69-9.37,27.71-12.89,19.42-34.73,5.32,8.41,10.63,16.82,17.7,28Z"/><path class="cls-1" d="M326.29,78.83c18.13-13.67,37.54-15,48.95-.83,7.19,8.93,5.47,25,7.74,37.92l-7.31,3.4Z"/><path class="cls-1" d="M193.94,73.09c5.64-8.53,9.89-19.7,18-25.86,8.3-6.33,20.28-8,30.76-11.32s20.69-4.56,21.78,10.81c.28,3.88-.49,9.79-3,11.44-3.49,2.3-9,1.66-13.71,1.94-5.56.32-15.08-1.54-16.12.68C222.13,81.28,204.53,71.14,193.94,73.09Z"/><path class="cls-1" d="M150.06,95.63l-68.9,21.48c2-12.07,2.14-11.75,36-23.12,14.62-4.92,28.7-11.45,43-17.25l2.9,3.57-10.68,19.83Z"/><path class="cls-1" d="M124.31,413.45l-59.72-54.1a15.07,15.07,0,0,1,2.45-.77C108.72,352.31,110.67,389.72,124.31,413.45Z"/><path class="cls-1" d="M195.82,41.81c-9.61-18.52-1.61-25.64,29.49-25.53l-11.85,7.33,26.82,2.48c.17.67.33,1.34.5,2Z"/><path class="cls-1" d="M217.54,85.27l-56.68,16.07C172.11,69,197.79,85.87,215.75,80Z"/><path class="cls-1" d="M14.71,279.26V219.61c10.67,4.59,10.6,4.58,7.28,26.69-1.68,11.2-3,22.44-4.54,33.66Z"/><path class="cls-1" d="M28.46,158.37l41-41.63C71.51,132.67,49.52,153.62,28.46,158.37Z"/><path class="cls-1" d="M342.76,40.53c14,2.31,28.76,3.22,32.4,21.43C354.8,68.77,351.85,49.61,342.76,40.53Z"/><path class="cls-1" d="M79.13,102.55,53.07,126.13c4.83-11.84,8.24-25,21.53-28.35Z"/><path d="M128.88,300.16l17,21.75L122,348.16c-1.37-5.94-1.11-11.87-3.86-15.54C105.18,315.36,107.74,307,128.88,300.16Z"/><path d="M312.65,443.73l-17,18.11-14.82-17.18q1-2.1,2.08-4.2Z"/></svg>