<svg id="Layer_1" data-name="Layer 1" xmlns="http://www.w3.org/2000/svg" viewBox="0 0 500 500"><defs><style>.cls-1{fill:#fff;}</style></defs><title>solar-system</title><path d="M171.3,500c-16.55-6.07-26.34-16.74-25.75-35.55.09-2.63-4-6.34-7-8-64.7-35.1-106.37-88.11-123.67-159.68C-17.69,162.24,71.74,27.29,208.55,4c7.58-1.3,15.16-2.64,22.75-4h37.78c15.14,3,30.53,5,45.4,9,115.6,31.2,191.34,145.54,175.22,264-15,109.87-99.5,194.91-209.12,208.42-21.74,2.68-44.17-.39-66.28-.55a15.25,15.25,0,0,0-8.55,2.48c-7.26,5.24-14.11,11.06-21.12,16.65Zm38.53-27.88c124.79,21.35,243-58.43,269.26-181.86C504.81,169.55,431.23,46.43,305.46,14.42,186.79-15.78,61.61,55.47,25.65,175.2-10,293.84,55.77,411.26,149.2,451.86c9.41-12.18,20.94-19.75,37.18-14.79C203.34,442.24,209.73,455,209.83,472.12Zm-56.34-4.93c-.22,13.87,10.47,24.93,24,24.89,12.87,0,24.26-11.05,24.54-23.71.28-13.35-11-24.82-24.47-24.82A23.72,23.72,0,0,0,153.49,467.19Z"/><path class="cls-1" d="M209.83,472.12c-.1-17.16-6.49-29.88-23.45-35.05-16.24-5-27.77,2.61-37.18,14.79C55.77,411.26-10,293.84,25.65,175.2c36-119.73,161.14-191,279.81-160.78,125.77,32,199.35,155.13,173.63,275.84C452.8,413.69,334.62,493.47,209.83,472.12Zm45.79-53c6-.73,17.85-1.62,29.47-3.66,75.06-13.18,137.27-83,141.76-158.69C433.19,150.21,355,65.92,248.55,64.2c-3.85-.06-8.55-2.94-11.26-5.94-6.53-7.24-14.14-10.89-23.62-9.17S197.11,56.28,195.22,66c-1.33,6.82-5.2,9.36-11.1,11.7C105.25,109,59.82,192.53,76,276,92.08,358.67,165.3,419,255.62,419.16ZM83.73,144.82c-5.18-3.39-8.43-7.18-11-6.78-3,.46-5.31,4.67-7.93,7.25,2.66,2.63,5.12,7,8.06,7.37C75.41,153,78.54,148.77,83.73,144.82Z"/><path class="cls-1" d="M153.49,467.19a23.72,23.72,0,0,1,24.12-23.64c13.45,0,24.75,11.47,24.47,24.82-.28,12.66-11.67,23.68-24.54,23.71C164,492.12,153.27,481.06,153.49,467.19Z"/><path d="M255.62,419.16C165.3,419,92.08,358.67,76,276,59.82,192.53,105.25,109,184.12,77.67c5.9-2.34,9.77-4.88,11.1-11.7,1.89-9.69,9-15.17,18.45-16.88s17.09,1.93,23.62,9.17c2.71,3,7.41,5.88,11.26,5.94,106.45,1.72,184.64,86,178.3,192.61-4.49,75.73-66.7,145.51-141.76,158.69C273.47,417.54,261.65,418.43,255.62,419.16ZM195,82.24C112.84,107.39,63.65,199.55,86.29,285c23.24,87.67,112.42,142.54,199.38,122.65C375,387.18,433.14,301.89,417.37,214,399.54,114.65,309.54,66.65,243.16,73.71,235,103.06,207.12,101.91,195,82.24Zm22.34-26.09a16.45,16.45,0,0,0-15.46,17c.32,9.21,7.46,16,16.5,15.74A16.11,16.11,0,0,0,234,72.1C233.69,63.37,225.84,55.81,217.38,56.15Z"/><path d="M83.73,144.82c-5.19,4-8.32,8.15-10.9,7.84-2.94-.36-5.4-4.74-8.06-7.37,2.62-2.58,5-6.79,7.93-7.25C75.3,137.64,78.55,141.43,83.73,144.82Z"/><path class="cls-1" d="M195,82.24c12.08,19.67,40,20.82,48.12-8.53,66.38-7.06,156.38,40.94,174.21,140.3,15.77,87.88-42.34,173.17-131.7,193.61-87,19.89-176.14-35-199.38-122.65C63.65,199.55,112.84,107.39,195,82.24ZM137.66,244.38a110.39,110.39,0,0,0,.69,12.43c8.27,58,60,101.52,115.9,97.74,63.15-4.28,108.28-51.7,108.65-113.68,0-4.53,2.4-9.49,4.91-13.47,5.46-8.66,3.2-18.16-5.41-24-4.44-3-8.9-7.15-11.28-11.83-23.59-46.29-76-71.43-125.51-59.69C173.27,144.34,137.3,189.07,137.66,244.38Z"/><path class="cls-1" d="M217.38,56.15c8.46-.34,16.31,7.22,16.58,15.95a16.11,16.11,0,0,1-15.54,16.76c-9,.29-16.18-6.53-16.5-15.74A16.45,16.45,0,0,1,217.38,56.15Z"/><path d="M137.66,244.38c-.36-55.31,35.61-100,88-112.46,49.48-11.74,101.92,13.4,125.51,59.69,2.38,4.68,6.84,8.84,11.28,11.83,8.61,5.8,10.87,15.3,5.41,24-2.51,4-4.88,8.94-4.91,13.47-.37,62-45.5,109.4-108.65,113.68-55.93,3.78-107.63-39.76-115.9-97.74A110.39,110.39,0,0,1,137.66,244.38ZM258.87,137.17c-73.6-1.19-123,57.83-111.9,124,8.8,52.59,58.87,90,114,85.19,51.55-4.5,94.82-51.92,94.44-103.42,0-5-.44-8.43-6.54-10.76a15,15,0,0,1-6.28-23.85c4.82-5.57,3.59-9.29.75-14.45C323.25,157.46,292.37,138.64,258.87,137.17Zm96.07,92.52c3.8-5.56,7.87-8.95,7.38-11.44-.64-3.28-4.88-5.85-7.57-8.73-2.6,2.64-7.21,5.24-7.28,7.94C347.39,220.68,351.22,224,354.94,229.69Z"/><path class="cls-1" d="M258.87,137.17c33.5,1.47,64.38,20.29,84.48,56.75,2.84,5.16,4.07,8.88-.75,14.45a15,15,0,0,0,6.28,23.85c6.1,2.33,6.51,5.72,6.54,10.76.38,51.5-42.89,98.92-94.44,103.42-55.14,4.81-105.21-32.6-114-85.19C135.89,195,185.27,136,258.87,137.17Zm-56.68,104c-.18,27.37,21,48.95,48,48.88,26.09-.06,47.6-21,48-46.76.38-27.26-20.66-49.2-47.51-49.57A48.08,48.08,0,0,0,202.19,241.12Z"/><path class="cls-1" d="M354.94,229.69c-3.72-5.7-7.55-9-7.47-12.23.07-2.7,4.68-5.3,7.28-7.94,2.69,2.88,6.93,5.45,7.57,8.73C362.81,220.74,358.74,224.13,354.94,229.69Z"/><path d="M202.19,241.12a48.08,48.08,0,0,1,48.46-47.45c26.85.37,47.89,22.31,47.51,49.57-.35,25.72-21.86,46.7-48,46.76C223.2,290.07,202,268.49,202.19,241.12Zm48,41.06c22.06,0,40.61-18.29,40.63-40.06a40.69,40.69,0,0,0-40.17-40.49C228,201.4,209.13,220,209.52,242.21A40.7,40.7,0,0,0,250.2,282.18Z"/><path class="cls-1" d="M250.2,282.18a40.7,40.7,0,0,1-40.68-40c-.39-22.2,18.48-40.81,41.14-40.58a40.69,40.69,0,0,1,40.17,40.49C290.81,263.89,272.26,282.18,250.2,282.18Z"/></svg>