<?xml version="1.0" standalone="no"?>
<!DOCTYPE svg PUBLIC "-//W3C//DTD SVG 1.1//EN" "http://www.w3.org/Graphics/SVG/1.1/DTD/svg11.dtd">
<svg xmlns="http://www.w3.org/2000/svg">
<metadata>Generated by Fontastic.me</metadata>
<defs>
<font id="slooh-icons" horiz-adv-x="512">
<font-face font-family="slooh-icons" units-per-em="512" ascent="480" descent="-32"/>
<missing-glyph horiz-adv-x="512" />

<glyph glyph-name="long-arrow-left" unicode="&#97;" d="M512 283l0-54c0-3-1-5-3-7-1-2-3-3-6-3l-357 0 0-64c0-4-2-6-5-8-4-1-7-1-10 2l-110 100c-2 1-3 4-3 6 0 3 1 5 3 7l110 101c3 3 6 3 10 2 3-2 5-5 5-8l0-64 357 0c3 0 5-1 6-3 2-2 3-4 3-7z"/>
<glyph glyph-name="long-arrow-right" unicode="&#100;" d="M494 257c0-3-1-5-3-7l-110-101c-3-3-6-3-10-2-3 2-5 5-5 8l0 64-357 0c-3 0-5 1-6 3-2 2-3 4-3 7l0 54c0 3 1 5 3 7 1 2 3 3 6 3l357 0 0 64c0 4 2 6 5 8 4 1 7 1 10-2l110-100c2-1 3-4 3-6z"/>
<glyph glyph-name="arrow-left" unicode="&#98;" d="M1 259l87 86c10 9 25 9 34 0 10-9 10-24 0-33l-33-33 400 0c13 0 23-10 23-23 0-12-10-22-23-22l-400-1 33-33c10-9 10-24 0-33-4-5-10-7-17-7-6 0-12 2-17 7l-87 86c-1 2-1 4 0 6z"/>
<glyph glyph-name="arrow-right" unicode="&#99;" d="M511 259l-87 86c-10 9-25 9-34 0-10-9-10-24 0-33l33-33-400 0c-13 0-23-10-23-23 0-12 10-22 23-22l400-1-33-33c-10-9-10-24 0-33 4-5 10-7 17-7 6 0 12 2 17 7l87 86c1 2 1 4 0 6z"/>
<glyph glyph-name="delete" unicode="&#101;" d="M0 448l512 0 0-32-512 0z m64-416l384 0 0-32-384 0z m96 480l192 0 0-32-192 0z m0 0l32 0 0-96-32 0z m-96-128l32 0 0-384-32 0z m224 0l32 0 0-384-32 0z m-96 0l32 0 0-384-32 0z m224 0l32 0 0-384-32 0z m-96 128l32 0 0-96-32 0z"/>
<glyph glyph-name="download" unicode="&#102;" d="M422 188l-340 0c-41 0-74-33-74-75 0-41 33-74 74-74l340 0c41 0 74 33 74 74 0 42-33 75-74 75z m0-111l-340 0c-20 0-36 16-36 36 0 20 16 37 36 37l340 0c20 0 36-17 36-37 0-20-16-36-36-36z m-183 145c7-7 19-7 27 0l76 76c7 8 7 20 0 27-8 8-20 8-27 0l-44-43 0 179c0 10-8 19-19 19-11 0-19-9-19-19l0-179-44 43c-7 8-19 8-27 0-7-7-7-19 0-27z"/>
<glyph glyph-name="label" unicode="&#103;" d="M449 484c21 0 38-16 38-37l8-164c0-10-6-24-13-31l-212-213c-15-14-39-14-53 0l-173 173c-15 15-15 38 0 53l212 212c8 8 22 14 32 14z m-141-178c25-25 66-25 91 0 25 25 25 65 0 90-25 25-66 25-91 0-25-25-25-65 0-90z"/>
<glyph glyph-name="minus" unicode="&#104;" d="M51 307l410 0c28 0 51-23 51-51 0-28-23-51-51-51l-410 0c-28 0-51 23-51 51 0 28 23 51 51 51z"/>
<glyph glyph-name="plus" unicode="&#105;" d="M307 307l154 0c28 0 51-23 51-51 0-28-23-51-51-51l-154 0 0-154c0-28-23-51-51-51-28 0-51 23-51 51l0 154-154 0c-28 0-51 23-51 51 0 28 23 51 51 51l154 0 0 154c0 28 23 51 51 51 28 0 51-23 51-51z"/>
<glyph glyph-name="share" unicode="&#106;" d="M124 337c-48 0-87-38-87-84 0-47 39-84 87-84 48 0 87 37 87 84 0 46-39 84-87 84z m182-224l-136 89 21 32 137-89c16 15 37 24 60 24 48 0 87-38 87-85 0-46-39-84-87-84-48 0-87 38-87 84 0 10 2 20 5 29z m27 249l-145-93-20 31 141 92c-5 11-8 23-8 36 0 46 39 84 87 84 48 0 87-38 87-84 0-47-39-85-87-85-21 0-40 7-55 19z m-209-156c-26 0-48 21-48 47 0 26 22 47 48 47 27 0 48-21 48-47 0-26-21-47-48-47z m264 175c26 0 48 21 48 47 0 26-22 47-48 47-27 0-48-21-48-47 0-26 21-47 48-47z m0-344c26 0 48 21 48 47 0 26-22 47-48 47-27 0-48-21-48-47 0-26 21-47 48-47z m-55 325l17 12-20 31-21-13c6-12 14-22 24-30z m-27-249l17-11 21 33-16 10c-10-9-17-20-22-32z"/>
<glyph glyph-name="close" unicode="&#107;" d="M495 411l-155-155 155-155c23-23 23-61 0-84-12-11-27-17-42-17-15 0-30 6-42 17l-155 155-155-155c-12-11-27-17-42-17-15 0-30 6-42 17-23 23-23 61 0 84l155 155-155 155c-23 23-23 61 0 84 23 23 61 23 84 0l155-155 155 155c23 23 61 23 84 0 23-23 23-61 0-84z"/>
<glyph glyph-name="slider-left" unicode="&#108;" d="M98 231l257-220c16-15 43-15 59 0 17 14 17 36 0 50l-227 195 227 195c17 14 17 36 0 50-16 15-43 15-59 0l-257-220c-9-7-13-16-13-25 0-9 4-18 13-25z"/>
<glyph glyph-name="slider-right" unicode="&#109;" d="M414 231l-257-220c-16-15-43-15-59 0-17 14-17 36 0 50l227 195-227 195c-17 14-17 36 0 50 16 15 43 15 59 0l257-220c9-7 13-16 13-25 0-9-4-18-13-25z"/>
<glyph glyph-name="clip" unicode="&#110;" d="M129 4c-34 0-66 13-90 37-24 24-37 56-37 90 0 34 13 66 37 90l264 264c37 38 96 36 136-4 40-40 42-99 4-137l-248-247c-23-23-61-24-84 0-23 23-23 61 0 84l168 168c5 6 15 6 20 0 6-6 6-15 0-21l-168-167c-12-12-12-32 0-44 12-12 32-12 44 0l248 248c26 26 24 67-4 95-29 29-70 30-96 4l-263-263c-19-19-29-44-29-70 0-26 10-51 29-70 18-18 43-28 69-28 27 0 51 10 70 28l263 264c6 6 15 6 21 0 6-6 6-15 0-20l-264-264c-24-24-56-37-90-37z"/>
<glyph glyph-name="volume-muted" unicode="&#111;" d="M431 265l67 68c4 4 4 9 0 13-3 4-9 4-13 0l-68-68-67 68c-4 4-10 4-13 0-4-4-4-9 0-13l67-68-67-67c-4-4-4-10 0-13 1-2 4-3 6-3 3 0 5 1 7 3l67 67 68-67c2-2 4-3 7-3 2 0 4 1 6 3 4 3 4 9 0 13z m-168 201c-9 5-19 5-28-1-1 0-1 0-1-1l-126-106-99 0c-5 0-9-4-9-9l0-176c0-3 1-5 3-7 1-2 4-3 6-3l99 0 125-115c1-1 1-1 2-1 4-3 9-4 14-4 5 0 10 1 14 3 10 6 15 15 15 26l0 368c0 11-5 20-15 26z m-3-394c0-4-2-8-6-9-1-1-5-3-9-1l-124 115 0 42c0 5-5 9-10 9-5 0-9-4-9-9l0-37-83 0 0 157 83 0 0-37c0-5 4-9 9-9 5 0 10 4 10 9l0 42 124 106c4 2 8 0 9-1 4-1 6-5 6-9z"/>
<glyph glyph-name="volume" unicode="&#112;" d="M274 485c-9 5-20 5-29-1-1 0-1 0-2-1l-131-113-102 0c-6 0-10-5-10-10l0-188c0-3 1-5 3-7 2-2 4-3 7-3l102 0 131-123c0-1 1-1 2-2 4-2 10-4 15-4 5 0 10 1 14 4 10 6 16 16 16 27l0 393c0 12-6 22-16 28z m-4-421c0-4-2-8-5-10-2-1-5-2-10 0l-129 122 0 45c0 6-5 10-10 10-5 0-10-4-10-10l0-39-87 0 0 168 87 0 0-40c0-5 5-10 10-10 5 0 10 5 10 10l0 45 129 113c5 2 8 0 10-1 3-2 5-5 5-10z m105 384c-5 2-11-1-12-6-2-5 1-11 6-12 68-24 114-90 114-164 0-74-46-140-114-164-5-2-8-8-6-13 1-4 5-6 9-6 1 0 2 0 3 0 76 27 128 100 128 183 0 82-52 156-128 182z m41-182c0 59-39 112-95 128-5 2-10-1-11-7-2-5 1-10 6-12 47-14 80-59 80-109 0-51-33-96-80-110-5-1-8-7-6-12 1-4 5-7 9-7 1 0 2 0 2 0 56 17 95 70 95 129z"/>
<glyph glyph-name="play" unicode="&#114;" d="M405 279l-278 166c-4 2-7 3-11 3-11 0-20-9-20-20l0 0 0-344 0 0c0-11 9-20 20-20 4 0 7 1 11 3l278 166c7 5 11 14 11 23 0 9-4 17-11 23z"/>
<glyph glyph-name="stop" unicode="&#116;" d="M437 448l-362 0c-6 0-11-5-11-11l0-362c0-6 5-11 11-11l362 0c6 0 11 5 11 11l0 362c0 6-5 11-11 11z"/>
<glyph glyph-name="flag" unicode="&#115;" d="M460 468c-3 1-6 0-8-2-29-29-59-37-97-27-4 1-9-1-10-5-1-4 2-9 6-10 38-10 69-4 99 20l0-242c-24-23-49-32-78-28-28 4-57 18-84 32-29 14-59 29-89 33-30 4-56-4-80-23l0 241c24 23 49 32 78 28 27-3 56-17 84-31 13-7 27-14 41-20 4-1 8 0 10 4 2 4 0 9-4 10-13 6-27 13-40 19-29 15-59 30-89 33-30 4-56-3-80-23-1 20-17 35-36 35-20 0-36-16-36-36l0-340c0-4 3-8 8-8 4 0 7 4 7 8l0 340c0 11 10 21 21 21 11 0 21-10 21-21l0-440c0-11-10-21-21-21-11 0-21 10-21 21l0 70c0 4-3 7-7 7-5 0-8-3-8-7l0-70c0-20 16-36 36-36 20 0 36 16 36 36l0 160c24 23 49 31 78 28 27-4 56-18 84-32 29-14 59-29 89-33 5-1 9-1 14-1 29 0 55 12 78 36 2 1 3 3 3 5l0 262c0 3-2 5-5 7z"/>
<glyph glyph-name="instagram" unicode="&#117;" d="M363 495l-213 0c-72 0-131-59-131-131l0-213c0-72 59-131 131-131l213 0c72 0 131 59 131 131l0 213c0 72-59 131-131 131z m89-344c0-49-40-89-89-89l-213 0c-49 0-89 40-89 89l0 213c0 49 40 89 89 89l213 0c49 0 89-40 89-89l0-213z m-195 229c-68 0-123-55-123-123 0-67 55-122 123-122 67 0 122 55 122 122 0 68-55 123-122 123z m0-203c-45 0-81 36-81 80 0 45 36 81 81 81 44 0 80-36 80-81 0-44-36-80-80-80z m127 239c-8 0-16-4-22-10-5-5-9-13-9-21 0-9 4-17 9-22 6-6 14-9 22-9 8 0 16 3 22 9 6 5 9 13 9 22 0 8-3 16-9 21-6 6-14 10-22 10z"/>
<glyph glyph-name="hamburger" unicode="&#113;" d="M21 469l470 0c11 0 21-9 21-21 0-12-10-21-21-21l-470 0c-11 0-21 9-21 21 0 12 10 21 21 21z m0-192l470 0c11 0 21-9 21-21 0-12-10-21-21-21l-470 0c-11 0-21 9-21 21 0 12 10 21 21 21z m0-192l470 0c11 0 21-9 21-21 0-12-10-21-21-21l-470 0c-11 0-21 9-21 21 0 12 10 21 21 21z"/>
<glyph glyph-name="notifications" unicode="&#118;" d="M445 97l-26 47 0 116c0 71-50 132-118 151l0 57c0 24-20 44-45 44-25 0-45-20-45-44l0-57c-68-19-117-80-117-151l0-116-26-47c-5-9-5-20 1-29 5-8 15-14 25-14l103 0c2-30 28-54 59-54 32 0 58 24 60 54l102 0c11 0 21 6 26 14 6 9 6 20 1 29z m-210 371c0 12 10 21 21 21 12 0 22-9 22-21l0-53c-7 1-14 2-22 2-7 0-14-1-21-2z m-117-208c0 73 62 134 138 134 77 0 139-61 139-134l0-107-277 0z m138-237c-18 0-34 14-35 31l71 0c-2-17-17-31-36-31z m168 57c-1-1-2-2-6-2l-324 0c-3 0-4 1-5 2 0 1-1 3 0 6l24 44 286 0 25-44c1-3 0-5 0-6z m-168 283c7 0 12-5 12-12 0-6-5-11-12-11-45 0-83-36-83-80 0-7-5-12-12-12-6 0-12 5-12 12 0 57 48 103 107 103z"/>
<glyph glyph-name="search" unicode="&#119;" d="M506 36l-123 123c30 38 49 85 49 137 0 119-97 216-216 216-119 0-216-97-216-216 0-119 97-216 216-216 52 0 99 19 136 49l124-123c8-8 21-8 30 0 8 9 8 22 0 30z m-290 87c-96 0-173 78-173 173 0 96 77 173 173 173 95 0 173-77 173-173 0-95-78-173-173-173z"/>
<glyph glyph-name="telescope" unicode="&#120;" d="M100 13c0 1 0 2-1 2 0 1 0 2-1 2 0 1-1 1-1 2-1 1-1 1-2 1 0 1-1 1-2 1 0 1-1 1-2 1-1 0-3 0-4 0-1 0-2 0-2-1-1 0-2 0-2-1-1 0-1 0-2-1 0-1-1-1-1-2-1 0-1-1-1-2-1 0-1-1-1-2 0 0 0-1 0-2 0-1 0-1 0-2 0-1 0-1 1-2 0-1 0-1 1-2 0-1 1-1 1-2 1 0 1-1 2-1 0-1 1-1 2-1 0 0 1-1 2-1 1 0 1 0 2 0 1 0 2 0 2 0 1 0 2 1 2 1 1 0 2 0 2 1 1 0 1 1 2 1 0 1 1 1 1 2 1 1 1 1 1 2 1 1 1 1 1 2 0 1 0 1 0 2 0 1 0 2 0 2z m401 54l-34 0 0 189c0 33-7 65-21 93 0 0-1 1-1 2-7 14-15 27-25 38l8 8 7-8c3-2 5-3 8-3 3 0 6 1 8 3l32 32c4 4 4 11 0 15l-63 63c-5 5-12 5-16 0l-32-31c-4-4-4-12 0-16l8-8-10-10c-30 19-65 31-103 33l0 34c0 6-5 11-11 11-68 0-133-27-181-75-48-48-75-113-75-181 0-6 5-11 11-11l34 0 0-178-34 0c-6 0-11-5-11-11l0-45c0-6 5-11 11-11l45 0c6 0 11 5 11 11 0 6-5 11-11 11l-34 0 0 23 468 0 0-23-368 0c-6 0-11-5-11-11 0-6 5-11 11-11l379 0c6 0 11 5 11 11l0 45c0 6-5 11-11 11z m-72 267c9-21 15-43 16-67l-89 0c-1 23-3 46-7 67z m-17 142l47-47-16-16-17 17-22 22c0 0 0 0 0 0l-8 8z m-16-47l16-16-7-7c-5 5-11 10-17 15z m21-73l-72 0c-4 17-10 32-16 46-6 14-13 26-21 36 46-13 84-43 109-82z m-350-89c1 24 7 46 16 67l80 0c-4-21-6-44-7-67z m89-22l0-45-89 0 0 45z m-61 111c25 39 63 69 109 82-8-10-15-22-21-36-6-14-12-29-16-46l-72 0z m90-22l142 0c4-21 6-44 7-67l-156 0c1 23 3 46 7 67z m-7-89l156 0 0-45-156 0z m131 148c5-11 9-24 13-37l-132 0c4 13 8 26 13 37 15 33 34 52 53 52 19 0 38-19 53-52z m-247-54c0 0-1 0-1 0 0-1-1-2-1-3 0-1 0-2-1-2 0-1 0-2-1-3 0 0 0-1 0-2-1-1-1-2-1-2-1-1-1-2-1-2 0-1-1-2-1-3 0-1 0-1-1-2 0-1 0-2 0-3-1-1-1-1-1-2 0-1-1-2-1-3 0 0 0-1 0-2-1-1-1-2-1-2 0-1-1-2-1-3 0-1 0-2 0-2 0-1-1-2-1-3 0-1 0-2 0-2-1-1-1-2-1-3 0-1 0-2 0-2 0-1-1-2-1-3 0-1 0-2 0-2 0-1 0-2-1-3 0-1 0-2 0-3 0-1 0-2 0-3 0 0 0-1 0-2-1-1-1-2-1-4 0 0 0 0 0-1 0-1 0-3 0-5l-22 0c5 120 102 217 222 222l0-22c-2 0-4 0-5 0-1 0-1 0-1 0-2 0-3 0-4-1-1 0-2 0-2 0-1 0-2 0-3 0-1 0-2 0-3 0-1-1-2-1-3-1 0 0-1 0-2 0-1 0-2-1-3-1 0 0-1 0-2 0-1 0-2 0-3-1 0 0-1 0-2 0-1 0-2-1-3-1 0 0-1 0-2 0-1 0-2-1-3-1 0 0-1 0-2-1-1 0-2 0-2 0-1 0-2-1-3-1-1 0-1 0-2-1-1 0-2 0-3 0-1-1-1-1-2-1-1 0-2-1-3-1 0 0-1 0-2-1 0 0-1 0-2-1-1 0-2 0-2 0-1-1-2-1-3-1 0-1-1-1-1-1-2 0-3-1-4-1 0 0 0 0 0-1-4-1-8-3-12-5 0 0-1 0-1 0-1-1-2-2-3-2 0 0-1-1-1-1-1 0-2-1-3-1-1-1-1-1-1-1-1-1-2-1-3-2-1 0-1 0-2-1-1 0-2-1-2-1-1-1-1-1-2-1-1-1-2-1-3-2 0 0 0-1-1-1-1 0-2-1-3-2 0 0 0 0-1-1-1 0-2-1-3-2 0 0 0 0-1 0-1-1-2-2-3-2 0-1 0-1-1-1-1-1-2-2-2-2-1-1-1-1-1-1-1-1-2-2-3-3-1 0-1 0-1 0-1-1-2-2-3-3 0 0 0 0-1 0-6-6-13-13-19-19 0-1 0-1 0-1-1-1-2-2-3-3 0 0 0 0 0-1-1-1-2-2-3-2 0-1 0-1-1-2 0 0-1-1-2-2 0-1 0-1-1-1 0-1-1-2-2-3 0-1 0-1 0-1-1-1-2-2-2-3-1 0-1-1-1-1-1-1-2-2-2-3 0-1-1-1-1-1-1-1-1-2-2-3 0-1 0-1-1-2 0 0-1-1-1-2-1-1-1-1-1-2-1-1-1-2-2-3 0 0 0 0-1-1 0-1-1-2-1-3 0 0-1-1-1-1 0-1-1-2-2-3 0 0 0-1 0-1 0 0 0 0 0 0 0-1-1-2-1-2-2-3-3-7-4-10z m227-272l-66 0 0 67 66 0z m156 0l-133 0 0 78c0 6-5 11-11 11l-90 0c-6 0-11-5-11-11l0-78-133 0 0 111 378 0z m0 133l-89 0 0 45 89 0z"/>
<glyph glyph-name="facebook" unicode="&#121;" d="M355 256l-70 0 0-256-107 0 0 256-50 0 0 91 50 0 0 58c0 42 20 107 107 107l79 0 0-88-57 0c-9 0-22-5-22-24l0-53 79 0z"/>
<glyph glyph-name="twitter" unicode="&#122;" d="M499 408c-18-8-37-13-57-16 21 13 36 32 44 56-19-12-41-20-64-25-18 20-44 32-73 32-56 0-101-45-101-100 0-8 1-16 3-23-84 4-158 44-207 105-9-15-14-32-14-51 0-35 18-65 45-84-17 1-32 6-46 13 0 0 0-1 0-1 0-49 35-90 81-99-9-2-18-3-27-3-6 0-12 0-19 1 13-39 50-68 94-69-34-27-77-43-125-43-8 0-16 0-24 1 45-28 98-45 155-45 184 0 286 153 286 286 0 4 0 9-1 13 20 14 37 32 50 52z"/>
<glyph glyph-name="tick" unicode="&#65;" d="M230 83c-23-24-60-24-83 0l-130 135c-23 24-23 63 0 87 23 24 61 24 84 0l77-80c6-6 15-6 21 0l209 218c23 24 60 24 83 0 11-12 18-27 18-44 0-16-7-32-18-43z"/>
<glyph glyph-name="bubble-comment-streamline-talk" unicode="&#66;" d="M480 469l-448 0c-18 0-32-14-32-32l0-277c0-18 14-32 32-32l32 0 0-100 100 100 316 0c18 0 32 14 32 32l0 277c0 18-14 32-32 32z m11-309c0-6-5-11-11-11l-324 0-71-70 0 70-53 0c-6 0-11 5-11 11l0 277c0 6 5 11 11 11l448 0c6 0 11-5 11-11z m-299 139c0-12-10-22-21-22-12 0-22 10-22 22 0 11 10 21 22 21 11 0 21-10 21-21z m171 0c0-12-10-22-22-22-11 0-21 10-21 22 0 11 10 21 21 21 12 0 22-10 22-21z m-86 0c0-12-9-22-21-22-12 0-21 10-21 22 0 11 9 21 21 21 12 0 21-10 21-21z"/>
</font>
</defs>
</svg>
