<?xml version="1.0" encoding="UTF-8"?>
<svg width="300px" height="460px" viewBox="0 0 300 460" version="1.1" xmlns="http://www.w3.org/2000/svg" xmlns:xlink="http://www.w3.org/1999/xlink">
    <!-- Generator: Sketch 50.2 (55047) - http://www.bohemiancoding.com/sketch -->
    <title>Guide_Card</title>
    <desc>Created with Sketch.</desc>
    <defs>
        <path d="M150,0.810295648 L297.312,0.810295648 C298.796541,0.810295648 300,2.01375427 300,3.49829571 L300,458.502505 C300,459.987046 298.796541,461.190505 297.312,461.190505 L2.68800006,461.190505 C1.20345862,461.190505 -1.13505034e-13,459.987046 -1.13686838e-13,458.502505 L-1.13686838e-13,3.49829571 C-1.13868642e-13,2.01375427 1.20345862,0.810295648 2.68800006,0.810295648 Z" id="path-1"></path>
    </defs>
    <g id="Guide_Card" stroke="none" stroke-width="1" fill="none" fill-rule="evenodd">
        <g id="Card_Elements" transform="translate(0.000000, -1.000000)">
            <g id="StarBurst_Sies">
                <mask id="mask-2" fill="white">
                    <use xlink:href="#path-1"></use>
                </mask>
                <g id="Mask"></g>
                <g id="Group-2" mask="url(#mask-2)" fill="#141F2D">
                    <g transform="translate(-381.000000, -4.000000)">
                        <polygon id="LeftStar" points="235.356865 282.67728 227.57411 471 232.245465 282.574274 212.042633 469.9705 229.14767 282.265705 196.613102 467.916002 226.077027 281.752924 181.352988 464.845489 223.046962 281.038172 166.32902 460.772389 220.070724 280.124574 151.606892 455.714511 217.16133 279.016126 137.250982 449.693972 214.331499 277.717675 123.324064 442.7371 211.593608 276.234899 109.887037 434.874314 208.959627 274.57428 96.9986579 426.139997 206.441074 272.743081 84.7152837 416.572341 204.048963 270.74931 73.0906268 406.213183 201.793753 268.601683 62.1755189 395.107821 199.685307 266.309594 52.0176889 383.304817 197.732842 263.883063 42.6615545 370.855781 195.944899 261.332701 34.1480277 357.815151 194.329293 258.669662 26.5143359 344.239949 192.893091 255.905589 19.7938594 330.189537 191.642572 253.052569 14.0159851 315.725353 190.583205 250.123078 9.20597806 300.910645 189.719621 247.129926 5.38487134 285.810195 189.055598 244.0862 2.56937364 270.490033 188.594038 241.005211 0.771796411 255.01715 188.33696 237.90043 -4.5519144e-15 239.459205 188.285488 234.785435 0.257359277 223.884229 188.439847 231.673845 1.54274887 208.360328 188.799363 228.579269 3.85054811 192.955383 189.362462 225.515236 7.17066557 177.736756 190.126684 222.495146 11.4885832 162.770995 191.088685 219.532204 16.7854199 148.123541 192.24426 216.639367 23.0380139 133.858443 193.588356 213.829284 30.2190242 120.03808 195.115094 211.114243 38.2970501 106.722884 196.8178 208.506117 47.2367685 93.9710788 198.689027 206.01631 56.9990881 81.8384254 200.720593 203.655709 67.5413209 70.3779766 202.903615 201.434636 78.8173684 59.639846 205.228546 199.362805 90.7779233 49.6709887 207.685221 197.449273 103.370685 40.5149959 210.262897 195.702409 116.540589 32.2119045 212.950303 194.129852 130.230046 24.7980219 215.735687 192.738478 144.379196 18.305767 218.606869 191.53437 158.926168 12.7635288 221.551295 190.522794 173.807352 8.19554206 224.556089 189.708174 188.957677 4.6217815 227.608112 189.094071 204.310893 2.05787424 230.694018 188.683172 219.799866 0.515031585 233.800314 188.477272 235.356865 0 236.913416 188.477272 250.913864 0.515031585 240.019712 188.683172 266.402837 2.05787424 243.105618 189.094071 281.756053 4.6217815 246.157641 189.708174 296.906378 8.19554206 249.162435 190.522794 311.787562 12.7635288 252.106861 191.53437 326.334534 18.305767 254.978043 192.738478 340.483684 24.7980219 257.763427 194.129852 354.173141 32.2119045 260.450833 195.702409 367.343045 40.5149959 263.028509 197.449273 379.935807 49.6709887 265.485184 199.362805 391.896362 59.639846 267.810116 201.434636 403.172409 70.3779766 269.993137 203.655709 413.714642 81.8384254 272.024704 206.01631 423.476962 93.9710788 273.895931 208.506117 432.41668 106.722884 275.598636 211.114243 440.494706 120.03808 277.125375 213.829284 447.675716 133.858443 278.46947 216.639367 453.92831 148.123541 279.625045 219.532204 459.225147 162.770995 280.587047 222.495146 463.543065 177.736756 281.351268 225.515236 466.863182 192.955383 281.914368 228.579269 469.170981 208.360328 282.273883 231.673845 470.456371 223.884229 282.428242 234.785435 470.71373 239.459205 282.376771 237.90043 469.941934 255.01715 282.119693 241.005211 468.144357 270.490033 281.658133 244.0862 465.328859 285.810195 280.994109 247.129926 461.507752 300.910645 280.130526 250.123078 456.697745 315.725353 279.071158 253.052569 450.919871 330.189537 277.820639 255.905589 444.199394 344.239949 276.384437 258.669662 436.565703 357.815151 274.768832 261.332701 428.052176 370.855781 272.980888 263.883063 418.696041 383.304817 271.028424 266.309594 408.538211 395.107821 268.919977 268.601683 397.623103 406.213183 266.664767 270.74931 385.998447 416.572341 264.272656 272.743081 373.715072 426.139997 261.754104 274.57428 360.826693 434.874314 259.120123 276.234899 347.389666 442.7371 256.382231 277.717675 333.462748 449.693972 253.552401 279.016126 319.106838 455.714511 250.643006 280.124574 304.38471 460.772389 247.666769 281.038172 289.360742 464.845489 244.636704 281.752924 274.100628 467.916002 241.56606 282.265705 258.671098 469.9705 238.468265 282.574274 243.13962 471"></polygon>
                        <polygon id="RightStar" points="826.356865 282.67728 818.57411 471 823.245465 282.574274 803.042633 469.9705 820.14767 282.265705 787.613102 467.916002 817.077027 281.752924 772.352988 464.845489 814.046962 281.038172 757.32902 460.772389 811.070724 280.124574 742.606892 455.714511 808.16133 279.016126 728.250982 449.693972 805.331499 277.717675 714.324064 442.7371 802.593608 276.234899 700.887037 434.874314 799.959627 274.57428 687.998658 426.139997 797.441074 272.743081 675.715284 416.572341 795.048963 270.74931 664.090627 406.213183 792.793753 268.601683 653.175519 395.107821 790.685307 266.309594 643.017689 383.304817 788.732842 263.883063 633.661555 370.855781 786.944899 261.332701 625.148028 357.815151 785.329293 258.669662 617.514336 344.239949 783.893091 255.905589 610.793859 330.189537 782.642572 253.052569 605.015985 315.725353 781.583205 250.123078 600.205978 300.910645 780.719621 247.129926 596.384871 285.810195 780.055598 244.0862 593.569374 270.490033 779.594038 241.005211 591.771796 255.01715 779.33696 237.90043 591 239.459205 779.285488 234.785435 591.257359 223.884229 779.439847 231.673845 592.542749 208.360328 779.799363 228.579269 594.850548 192.955383 780.362462 225.515236 598.170666 177.736756 781.126684 222.495146 602.488583 162.770995 782.088685 219.532204 607.78542 148.123541 783.24426 216.639367 614.038014 133.858443 784.588356 213.829284 621.219024 120.03808 786.115094 211.114243 629.29705 106.722884 787.8178 208.506117 638.236768 93.9710788 789.689027 206.01631 647.999088 81.8384254 791.720593 203.655709 658.541321 70.3779766 793.903615 201.434636 669.817368 59.639846 796.228546 199.362805 681.777923 49.6709887 798.685221 197.449273 694.370685 40.5149959 801.262897 195.702409 707.540589 32.2119045 803.950303 194.129852 721.230046 24.7980219 806.735687 192.738478 735.379196 18.305767 809.606869 191.53437 749.926168 12.7635288 812.551295 190.522794 764.807352 8.19554206 815.556089 189.708174 779.957677 4.6217815 818.608112 189.094071 795.310893 2.05787424 821.694018 188.683172 810.799866 0.515031585 824.800314 188.477272 826.356865 0 827.913416 188.477272 841.913864 0.515031585 831.019712 188.683172 857.402837 2.05787424 834.105618 189.094071 872.756053 4.6217815 837.157641 189.708174 887.906378 8.19554206 840.162435 190.522794 902.787562 12.7635288 843.106861 191.53437 917.334534 18.305767 845.978043 192.738478 931.483684 24.7980219 848.763427 194.129852 945.173141 32.2119045 851.450833 195.702409 958.343045 40.5149959 854.028509 197.449273 970.935807 49.6709887 856.485184 199.362805 982.896362 59.639846 858.810116 201.434636 994.172409 70.3779766 860.993137 203.655709 1004.71464 81.8384254 863.024704 206.01631 1014.47696 93.9710788 864.895931 208.506117 1023.41668 106.722884 866.598636 211.114243 1031.49471 120.03808 868.125375 213.829284 1038.67572 133.858443 869.46947 216.639367 1044.92831 148.123541 870.625045 219.532204 1050.22515 162.770995 871.587047 222.495146 1054.54306 177.736756 872.351268 225.515236 1057.86318 192.955383 872.914368 228.579269 1060.17098 208.360328 873.273883 231.673845 1061.45637 223.884229 873.428242 234.785435 1061.71373 239.459205 873.376771 237.90043 1060.94193 255.01715 873.119693 241.005211 1059.14436 270.490033 872.658133 244.0862 1056.32886 285.810195 871.994109 247.129926 1052.50775 300.910645 871.130526 250.123078 1047.69775 315.725353 870.071158 253.052569 1041.91987 330.189537 868.820639 255.905589 1035.19939 344.239949 867.384437 258.669662 1027.5657 357.815151 865.768832 261.332701 1019.05218 370.855781 863.980888 263.883063 1009.69604 383.304817 862.028424 266.309594 999.538211 395.107821 859.919977 268.601683 988.623103 406.213183 857.664767 270.74931 976.998447 416.572341 855.272656 272.743081 964.715072 426.139997 852.754104 274.57428 951.826693 434.874314 850.120123 276.234899 938.389666 442.7371 847.382231 277.717675 924.462748 449.693972 844.552401 279.016126 910.106838 455.714511 841.643006 280.124574 895.38471 460.772389 838.666769 281.038172 880.360742 464.845489 835.636704 281.752924 865.100628 467.916002 832.56606 282.265705 849.671098 469.9705 829.468265 282.574274 834.13962 471"></polygon>
                    </g>
                </g>
            </g>
            <g id="StarElements_Bottom" transform="translate(150.000000, 410.000000) scale(1, -1) translate(-150.000000, -410.000000) translate(50.000000, 360.000000)">
                <g id="Group-4-Copy" transform="translate(173.000000, 61.000000) scale(-1, 1) translate(-173.000000, -61.000000) translate(146.000000, 39.000000)" fill-rule="nonzero">
                    <path d="M30.7397365,20.5502781 L28.6059556,19.3804 L27.4384921,17.2408264 C27.2637181,16.9197245 26.7363306,16.9197245 26.5615565,17.2408264 L25.3940444,19.3804 L23.2602635,20.5502781 C23.0996485,20.6381263 23,20.8067499 23,20.9900555 C23,21.1733611 23.0995998,21.3419847 23.2602635,21.4298817 L25.3940444,22.6000037 L26.5615079,24.7393334 C26.6488949,24.9001526 26.8173923,25 27,25 C27.1826077,25 27.3510565,24.9001526 27.4384921,24.7393334 L28.6059556,22.6000037 L30.7397365,21.4298817 C30.9003515,21.3420335 31,21.1734099 31,20.9900555 C30.9999513,20.8067987 30.9003515,20.6381263 30.7397365,20.5502781 Z M27.997555,21.7908835 C27.9135739,21.8368806 27.844725,21.9061446 27.798842,21.9900906 L27.0000487,23.4541454 L26.2012067,21.9900906 C26.1553236,21.9061446 26.0864747,21.8368806 26.0024936,21.7908835 L24.5420209,20.9901043 L26.002445,20.1895202 C26.0864261,20.143523 26.155275,20.0742591 26.201158,19.9903131 L26.9999513,18.5262583 L27.7987447,19.9903131 C27.8446277,20.0742591 27.9134766,20.143523 27.9974577,20.1895202 L29.4578817,20.9901043 L27.997555,21.7908835 Z" id="Shape" fill="#C2A068" transform="translate(27.000000, 21.000000) scale(-1, 1) translate(-27.000000, -21.000000) "></path>
                    <path d="M49.8239364,1.69574934 L48.8368286,1.15391647 L48.2965273,0.163258063 C48.1782849,-0.0544193542 47.8216163,-0.0544193542 47.7034069,0.163258063 L47.1631385,1.15391647 L46.1760307,1.69574934 C46.0673649,1.75544307 46,1.86958092 46,1.99349163 C46,2.11756743 46.0673649,2.23170528 46.1760307,2.29120091 L47.1631385,2.83290171 L47.7034069,3.82356012 C47.7625116,3.93241534 47.8764758,4 47.9999835,4 C48.1234913,4 48.2374226,3.93241534 48.2965602,3.82356012 L48.8368615,2.83290171 L49.8239693,2.29120091 C49.9326351,2.2317383 50,2.11760045 50,1.99349163 C49.9999671,1.86958092 49.9326022,1.75544307 49.8239364,1.69574934 Z M48.4253334,2.28522493 C48.3685323,2.31635944 48.321966,2.36324279 48.2909327,2.42006409 L47.9999835,2.95367587 L47.7090344,2.42006409 C47.6780011,2.36324279 47.6314348,2.31635944 47.5746337,2.28522493 L47.0429217,1.99349163 L47.5746337,1.70159325 C47.6314348,1.67045874 47.6780011,1.62357539 47.7090344,1.56672108 L47.9999835,1.03307629 L48.2909327,1.56672108 C48.321966,1.62354238 48.3685323,1.67042573 48.4253334,1.70159325 L48.9570125,1.99349163 L48.4253334,2.28522493 Z" id="Shape-Copy-15" fill="#FAD59A" transform="translate(48.000000, 2.000000) scale(-1, 1) translate(-48.000000, -2.000000) "></path>
                    <path d="M12.7359046,36.543624 L11.2552428,35.7308747 L10.4447909,34.2448871 C10.2674274,33.918371 9.73242449,33.918371 9.55511037,34.2448871 L8.74470781,35.7308747 L7.26404601,36.543624 C7.10104733,36.6331646 7,36.8043714 7,36.9902375 C7,37.1763511 7.10104733,37.3475579 7.26404601,37.4368014 L8.74470781,38.2493526 L9.55511037,39.7353402 C9.64376743,39.898623 9.81471365,40 9.99997532,40 C10.185237,40 10.3561338,39.898623 10.4448403,39.7353402 L11.2552922,38.2493526 L12.735954,37.4368014 C12.8989527,37.3476074 13,37.1764007 13,36.9902375 C12.9999506,36.8043714 12.8989033,36.6331646 12.7359046,36.543624 Z M10.6380001,37.4278374 C10.5527985,37.4745392 10.482949,37.5448642 10.4363991,37.6300961 L9.99997532,38.4305138 L9.56355155,37.6300961 C9.51700165,37.5448642 9.44715213,37.4745392 9.36195052,37.4278374 L8.5643825,36.9902375 L9.36195052,36.5523899 C9.44715213,36.5056881 9.51700165,36.4353631 9.56355155,36.3500816 L9.99997532,35.5496144 L10.4363991,36.3500816 C10.482949,36.4353136 10.5527985,36.5056386 10.6380001,36.5523899 L11.4355188,36.9902375 L10.6380001,37.4278374 Z" id="Shape-Copy-20" fill="#FAD59A" transform="translate(10.000000, 37.000000) scale(-1, 1) translate(-10.000000, -37.000000) "></path>
                    <path d="M39,42.6780158 C39,42.4905343 38.8504942,42.3385338 38.6657263,42.3385338 L38.4698658,42.3385338 L38.6082791,42.1799922 C38.7388527,42.0473841 38.7388527,41.8235956 38.6082791,41.6909876 C38.4777054,41.5583795 38.2476239,41.5538535 38.1170502,41.6864616 L37.9601276,41.8225385 L37.9601276,41.6236264 C37.9601276,41.4361448 37.8106218,41.2841444 37.6258539,41.2841444 C37.441086,41.2841444 37.2915802,41.4361448 37.2915802,41.6236264 L37.2915802,41.8225385 L37.1717088,41.6819686 C37.0411351,41.5493605 36.8388338,41.5493605 36.7082602,41.6819686 C36.5776865,41.8145767 36.5823383,42.0473511 36.7129119,42.1799592 L36.8558793,42.3385008 L36.6601164,42.3385008 C36.4753485,42.3385008 36.3258427,42.4905012 36.3258427,42.6779828 C36.3258427,42.8654643 36.4753485,43.0174647 36.6601164,43.0174647 L36.8561395,43.0174647 L36.7175636,43.1402279 C36.58699,43.272836 36.58699,43.4786858 36.7175636,43.6112938 C36.7828504,43.6776309 36.8683707,43.7062735 36.9538909,43.7062735 C37.0394111,43.7062735 37.1064219,43.6708915 37.1717088,43.6045874 L37.2915802,43.4617381 L37.2915802,43.6605181 C37.2915802,43.8479996 37.441086,44 37.6258539,44 C37.8106218,44 37.9601276,43.8479996 37.9601276,43.6605181 L37.9601276,43.4617381 L38.1170502,43.602341 C38.1823371,43.668645 38.2770957,43.7018135 38.3626159,43.7018135 C38.4481361,43.7018135 38.538308,43.668678 38.6036273,43.602341 C38.734201,43.4697329 38.7364781,43.272836 38.6059044,43.1402279 L38.4697032,43.0174647 L38.6657263,43.0174647 C38.8504942,43.0174977 39,42.8654973 39,42.6780158 Z" id="Shape-Copy-8" fill="#C2A068" transform="translate(37.662921, 42.642072) scale(-1, -1) translate(-37.662921, -42.642072) "></path>
                    <path d="M53.0588082,25.1747128 L53.5346159,24.6989097 C53.7689873,24.4645406 53.7689873,24.084844 53.5346159,23.850475 C53.3002446,23.6161059 52.9205443,23.6161059 52.686173,23.850475 L52.2104236,24.326278 L51.7346159,23.850475 C51.5002446,23.6161059 51.1205443,23.6161059 50.886173,23.850475 C50.6518016,24.084844 50.6518016,24.4645406 50.886173,24.6989097 L51.3619807,25.1747128 L50.886173,25.6504574 C50.6518016,25.8848265 50.6518016,26.2645231 50.886173,26.4988922 C51.0033586,26.6160767 51.1568619,26.6746982 51.3104236,26.6746982 C51.463927,26.6746982 51.6174303,26.6160767 51.7346159,26.4988922 L52.2104236,26.0230891 L52.686173,26.4988922 C52.8033586,26.6160767 52.9568619,26.6746982 53.1104236,26.6746982 C53.263927,26.6746982 53.4174303,26.6160767 53.5346159,26.4988922 C53.7689873,26.2645231 53.7689873,25.8848265 53.5346159,25.6504574 L53.0588082,25.1747128 Z" id="Shape" fill="#C2A068" transform="translate(52.210394, 25.174698) scale(-1, 1) translate(-52.210394, -25.174698) "></path>
                    <path d="M1.56560919,19.0156005 L1.88281432,18.6934531 C2.03906189,18.534771 2.03906189,18.2776935 1.88281432,18.1190115 C1.72656676,17.9603295 1.47343324,17.9603295 1.31718568,18.1190115 L1.00001946,18.4411589 L0.682814325,18.1190115 C0.526566757,17.9603295 0.273433243,17.9603295 0.117185675,18.1190115 C-0.0390618918,18.2776935 -0.0390618918,18.534771 0.117185675,18.6934531 L0.434390814,19.0156005 L0.117185675,19.3377084 C-0.0390618918,19.4963904 -0.0390618918,19.7534679 0.117185675,19.9121499 C0.195309459,19.9914909 0.297644998,20.0311812 0.400019463,20.0311812 C0.502355002,20.0311812 0.604690541,19.9914909 0.682814325,19.9121499 L1.00001946,19.5900025 L1.31718568,19.9121499 C1.39530946,19.9914909 1.497645,20.0311812 1.60001946,20.0311812 C1.702355,20.0311812 1.80469054,19.9914909 1.88281432,19.9121499 C2.03906189,19.7534679 2.03906189,19.4963904 1.88281432,19.3377084 L1.56560919,19.0156005 Z" id="Shape-Copy-16" fill="#C2A068" transform="translate(1.000000, 19.015591) scale(-1, 1) translate(-1.000000, -19.015591) "></path>
                </g>
                <g id="Group-4-Copy-2" transform="translate(0.000000, 39.000000)" fill-rule="nonzero">
                    <path d="M30.7397365,20.5502781 L28.6059556,19.3804 L27.4384921,17.2408264 C27.2637181,16.9197245 26.7363306,16.9197245 26.5615565,17.2408264 L25.3940444,19.3804 L23.2602635,20.5502781 C23.0996485,20.6381263 23,20.8067499 23,20.9900555 C23,21.1733611 23.0995998,21.3419847 23.2602635,21.4298817 L25.3940444,22.6000037 L26.5615079,24.7393334 C26.6488949,24.9001526 26.8173923,25 27,25 C27.1826077,25 27.3510565,24.9001526 27.4384921,24.7393334 L28.6059556,22.6000037 L30.7397365,21.4298817 C30.9003515,21.3420335 31,21.1734099 31,20.9900555 C30.9999513,20.8067987 30.9003515,20.6381263 30.7397365,20.5502781 Z M27.997555,21.7908835 C27.9135739,21.8368806 27.844725,21.9061446 27.798842,21.9900906 L27.0000487,23.4541454 L26.2012067,21.9900906 C26.1553236,21.9061446 26.0864747,21.8368806 26.0024936,21.7908835 L24.5420209,20.9901043 L26.002445,20.1895202 C26.0864261,20.143523 26.155275,20.0742591 26.201158,19.9903131 L26.9999513,18.5262583 L27.7987447,19.9903131 C27.8446277,20.0742591 27.9134766,20.143523 27.9974577,20.1895202 L29.4578817,20.9901043 L27.997555,21.7908835 Z" id="Shape" fill="#C2A068" transform="translate(27.000000, 21.000000) scale(-1, 1) translate(-27.000000, -21.000000) "></path>
                    <path d="M49.8239364,1.69574934 L48.8368286,1.15391647 L48.2965273,0.163258063 C48.1782849,-0.0544193542 47.8216163,-0.0544193542 47.7034069,0.163258063 L47.1631385,1.15391647 L46.1760307,1.69574934 C46.0673649,1.75544307 46,1.86958092 46,1.99349163 C46,2.11756743 46.0673649,2.23170528 46.1760307,2.29120091 L47.1631385,2.83290171 L47.7034069,3.82356012 C47.7625116,3.93241534 47.8764758,4 47.9999835,4 C48.1234913,4 48.2374226,3.93241534 48.2965602,3.82356012 L48.8368615,2.83290171 L49.8239693,2.29120091 C49.9326351,2.2317383 50,2.11760045 50,1.99349163 C49.9999671,1.86958092 49.9326022,1.75544307 49.8239364,1.69574934 Z M48.4253334,2.28522493 C48.3685323,2.31635944 48.321966,2.36324279 48.2909327,2.42006409 L47.9999835,2.95367587 L47.7090344,2.42006409 C47.6780011,2.36324279 47.6314348,2.31635944 47.5746337,2.28522493 L47.0429217,1.99349163 L47.5746337,1.70159325 C47.6314348,1.67045874 47.6780011,1.62357539 47.7090344,1.56672108 L47.9999835,1.03307629 L48.2909327,1.56672108 C48.321966,1.62354238 48.3685323,1.67042573 48.4253334,1.70159325 L48.9570125,1.99349163 L48.4253334,2.28522493 Z" id="Shape-Copy-15" fill="#FAD59A" transform="translate(48.000000, 2.000000) scale(-1, 1) translate(-48.000000, -2.000000) "></path>
                    <path d="M12.7359046,36.543624 L11.2552428,35.7308747 L10.4447909,34.2448871 C10.2674274,33.918371 9.73242449,33.918371 9.55511037,34.2448871 L8.74470781,35.7308747 L7.26404601,36.543624 C7.10104733,36.6331646 7,36.8043714 7,36.9902375 C7,37.1763511 7.10104733,37.3475579 7.26404601,37.4368014 L8.74470781,38.2493526 L9.55511037,39.7353402 C9.64376743,39.898623 9.81471365,40 9.99997532,40 C10.185237,40 10.3561338,39.898623 10.4448403,39.7353402 L11.2552922,38.2493526 L12.735954,37.4368014 C12.8989527,37.3476074 13,37.1764007 13,36.9902375 C12.9999506,36.8043714 12.8989033,36.6331646 12.7359046,36.543624 Z M10.6380001,37.4278374 C10.5527985,37.4745392 10.482949,37.5448642 10.4363991,37.6300961 L9.99997532,38.4305138 L9.56355155,37.6300961 C9.51700165,37.5448642 9.44715213,37.4745392 9.36195052,37.4278374 L8.5643825,36.9902375 L9.36195052,36.5523899 C9.44715213,36.5056881 9.51700165,36.4353631 9.56355155,36.3500816 L9.99997532,35.5496144 L10.4363991,36.3500816 C10.482949,36.4353136 10.5527985,36.5056386 10.6380001,36.5523899 L11.4355188,36.9902375 L10.6380001,37.4278374 Z" id="Shape-Copy-20" fill="#FAD59A" transform="translate(10.000000, 37.000000) scale(-1, 1) translate(-10.000000, -37.000000) "></path>
                    <path d="M39,42.6780158 C39,42.4905343 38.8504942,42.3385338 38.6657263,42.3385338 L38.4698658,42.3385338 L38.6082791,42.1799922 C38.7388527,42.0473841 38.7388527,41.8235956 38.6082791,41.6909876 C38.4777054,41.5583795 38.2476239,41.5538535 38.1170502,41.6864616 L37.9601276,41.8225385 L37.9601276,41.6236264 C37.9601276,41.4361448 37.8106218,41.2841444 37.6258539,41.2841444 C37.441086,41.2841444 37.2915802,41.4361448 37.2915802,41.6236264 L37.2915802,41.8225385 L37.1717088,41.6819686 C37.0411351,41.5493605 36.8388338,41.5493605 36.7082602,41.6819686 C36.5776865,41.8145767 36.5823383,42.0473511 36.7129119,42.1799592 L36.8558793,42.3385008 L36.6601164,42.3385008 C36.4753485,42.3385008 36.3258427,42.4905012 36.3258427,42.6779828 C36.3258427,42.8654643 36.4753485,43.0174647 36.6601164,43.0174647 L36.8561395,43.0174647 L36.7175636,43.1402279 C36.58699,43.272836 36.58699,43.4786858 36.7175636,43.6112938 C36.7828504,43.6776309 36.8683707,43.7062735 36.9538909,43.7062735 C37.0394111,43.7062735 37.1064219,43.6708915 37.1717088,43.6045874 L37.2915802,43.4617381 L37.2915802,43.6605181 C37.2915802,43.8479996 37.441086,44 37.6258539,44 C37.8106218,44 37.9601276,43.8479996 37.9601276,43.6605181 L37.9601276,43.4617381 L38.1170502,43.602341 C38.1823371,43.668645 38.2770957,43.7018135 38.3626159,43.7018135 C38.4481361,43.7018135 38.538308,43.668678 38.6036273,43.602341 C38.734201,43.4697329 38.7364781,43.272836 38.6059044,43.1402279 L38.4697032,43.0174647 L38.6657263,43.0174647 C38.8504942,43.0174977 39,42.8654973 39,42.6780158 Z" id="Shape-Copy-8" fill="#C2A068" transform="translate(37.662921, 42.642072) scale(-1, -1) translate(-37.662921, -42.642072) "></path>
                    <path d="M53.0588082,25.1747128 L53.5346159,24.6989097 C53.7689873,24.4645406 53.7689873,24.084844 53.5346159,23.850475 C53.3002446,23.6161059 52.9205443,23.6161059 52.686173,23.850475 L52.2104236,24.326278 L51.7346159,23.850475 C51.5002446,23.6161059 51.1205443,23.6161059 50.886173,23.850475 C50.6518016,24.084844 50.6518016,24.4645406 50.886173,24.6989097 L51.3619807,25.1747128 L50.886173,25.6504574 C50.6518016,25.8848265 50.6518016,26.2645231 50.886173,26.4988922 C51.0033586,26.6160767 51.1568619,26.6746982 51.3104236,26.6746982 C51.463927,26.6746982 51.6174303,26.6160767 51.7346159,26.4988922 L52.2104236,26.0230891 L52.686173,26.4988922 C52.8033586,26.6160767 52.9568619,26.6746982 53.1104236,26.6746982 C53.263927,26.6746982 53.4174303,26.6160767 53.5346159,26.4988922 C53.7689873,26.2645231 53.7689873,25.8848265 53.5346159,25.6504574 L53.0588082,25.1747128 Z" id="Shape" fill="#C2A068" transform="translate(52.210394, 25.174698) scale(-1, 1) translate(-52.210394, -25.174698) "></path>
                    <path d="M1.56560919,19.0156005 L1.88281432,18.6934531 C2.03906189,18.534771 2.03906189,18.2776935 1.88281432,18.1190115 C1.72656676,17.9603295 1.47343324,17.9603295 1.31718568,18.1190115 L1.00001946,18.4411589 L0.682814325,18.1190115 C0.526566757,17.9603295 0.273433243,17.9603295 0.117185675,18.1190115 C-0.0390618918,18.2776935 -0.0390618918,18.534771 0.117185675,18.6934531 L0.434390814,19.0156005 L0.117185675,19.3377084 C-0.0390618918,19.4963904 -0.0390618918,19.7534679 0.117185675,19.9121499 C0.195309459,19.9914909 0.297644998,20.0311812 0.400019463,20.0311812 C0.502355002,20.0311812 0.604690541,19.9914909 0.682814325,19.9121499 L1.00001946,19.5900025 L1.31718568,19.9121499 C1.39530946,19.9914909 1.497645,20.0311812 1.60001946,20.0311812 C1.702355,20.0311812 1.80469054,19.9914909 1.88281432,19.9121499 C2.03906189,19.7534679 2.03906189,19.4963904 1.88281432,19.3377084 L1.56560919,19.0156005 Z" id="Shape-Copy-16" fill="#C2A068" transform="translate(1.000000, 19.015591) scale(-1, 1) translate(-1.000000, -19.015591) "></path>
                </g>
                <g id="Group" transform="translate(78.000000, 0.000000)">
                    <g id="Group-19" transform="translate(0.000000, 42.000000)">
                        <path d="M2.43366777,25.131031 L1.79100997,26.9278209 L0.279727575,28.0942581 L2.07761462,28.7365237 L3.24424585,30.2468838 L3.88742193,28.450094 L5.39870432,27.2836567 L3.60081728,26.6413911 L2.43366777,25.131031 Z M2.67518272,26.6538221 L3.01465116,27.0935668 C3.10120266,27.2054454 3.21833223,27.2903902 3.35152824,27.3380421 L3.87446512,27.5250243 L3.4349701,27.8642856 C3.32302326,27.9507842 3.23802658,28.0678423 3.19034551,28.2009571 L3.00324917,28.7240928 L2.66326246,28.284348 C2.57671096,28.1724695 2.46009967,28.0875247 2.32690365,28.0398727 L1.8034485,27.8528905 L2.24346179,27.5136293 C2.35540864,27.4271306 2.44040532,27.3100725 2.48756811,27.1769578 L2.67518272,26.6538221 Z" id="Fill-7" fill="#C2A068" transform="translate(2.839216, 27.688957) scale(1, -1) translate(-2.839216, -27.688957) "></path>
                        <path d="M41.5665914,25.131031 L40.3994419,26.6413911 L38.6015548,27.2836567 L40.1128372,28.450094 L40.7560133,30.2468838 L41.9226445,28.7365237 L43.7205316,28.0942581 L42.2092492,26.9278209 L41.5665914,25.131031 Z M41.3250764,26.6538221 L41.5121728,27.1769578 C41.5593355,27.3100725 41.6443322,27.4271306 41.7567973,27.5136293 L42.1962924,27.8528905 L41.6733555,28.0398727 C41.5396412,28.0875247 41.4230299,28.1724695 41.3369967,28.284348 L40.9964917,28.7240928 L40.8099136,28.2009571 C40.7622326,28.0678423 40.6772359,27.9507842 40.565289,27.8642856 L40.125794,27.5250243 L40.6487309,27.3380421 C40.7819269,27.2903902 40.8990565,27.2054454 40.985608,27.0935668 L41.3250764,26.6538221 Z" id="Fill-121" fill="#C2A068" transform="translate(41.161043, 27.688957) scale(1, -1) translate(-41.161043, -27.688957) "></path>
                        <path d="M4.77138073,0.504690549 L2.59204518,6.61864488 L6.87919468,13.8058043 L8.73409169,5.64592324 L4.77138073,0.504690549 Z M5.11758671,2.6878757 L7.591301,5.89713197 L6.4334804,10.9912307 L3.75712159,6.50417657 L5.11758671,2.6878757 Z" id="Fill-9" fill="#E2B979" transform="translate(5.663068, 7.155247) scale(1, -1) translate(-5.663068, -7.155247) "></path>
                        <path d="M39.2283601,0.504690549 L35.2656492,5.64592324 L37.1210645,13.8058043 L41.408214,6.61864488 L39.2283601,0.504690549 Z M38.8826724,2.6878757 L40.2431375,6.50417657 L37.5667787,10.9912307 L36.4084399,5.89713197 L38.8826724,2.6878757 Z" id="Fill-123" fill="#E2B979" transform="translate(38.336932, 7.155247) scale(1, -1) translate(-38.336932, -7.155247) "></path>
                    </g>
                    <g id="Group-18" transform="translate(18.000000, 0.000000)">
                        <path d="M3.99989635,94.8204386 L3.0835907,96.4944728 L1.40853422,97.4102193 L3.0835907,98.3259657 L3.99989635,100 L4.91620199,98.3259657 L6.59125847,97.4102193 L4.91620199,96.4944728 L3.99989635,94.8204386 Z M3.99989635,96.362394 L4.26680664,96.8497907 C4.33470033,96.9735822 4.4368,97.0756196 4.56066711,97.1434719 L5.04836146,97.4102193 L4.56066711,97.6769667 C4.4368,97.7448189 4.33470033,97.8468563 4.26680664,97.9706478 L3.99989635,98.4580446 L3.73350432,97.9706478 C3.66509236,97.8468563 3.56351096,97.7448189 3.43912558,97.6769667 L2.9519495,97.4102193 L3.43912558,97.1434719 C3.56351096,97.0756196 3.66509236,96.9735822 3.73350432,96.8497907 L3.99989635,96.362394 Z" id="Fill-1" fill="#FAD59A" transform="translate(3.999896, 97.410219) scale(1, -1) translate(-3.999896, -97.410219) "></path>
                        <path d="M4,0 L4,66.5031827" id="Stroke-5" stroke="#192432" stroke-linecap="square" transform="translate(4.500000, 33.500000) scale(1, -1) translate(-4.500000, -33.500000) "></path>
                        <path d="M4,66 L0,73.6153846 L4,84 L8,73.6153846 L4,66 Z M4,68.9547692 L6.49733333,73.7081538 L4,80.1909231 L1.50333333,73.7081538 L4,68.9547692 Z" id="Fill-3" fill="#FAD59A" transform="translate(4.000000, 75.000000) scale(1, -1) translate(-4.000000, -75.000000) "></path>
                    </g>
                </g>
            </g>
            <g id="StarElements_Top" transform="translate(50.000000, 2.000000)">
                <g id="Group-4-Copy" transform="translate(173.000000, 61.000000) scale(-1, 1) translate(-173.000000, -61.000000) translate(146.000000, 39.000000)" fill-rule="nonzero">
                    <path d="M30.7397365,20.5502781 L28.6059556,19.3804 L27.4384921,17.2408264 C27.2637181,16.9197245 26.7363306,16.9197245 26.5615565,17.2408264 L25.3940444,19.3804 L23.2602635,20.5502781 C23.0996485,20.6381263 23,20.8067499 23,20.9900555 C23,21.1733611 23.0995998,21.3419847 23.2602635,21.4298817 L25.3940444,22.6000037 L26.5615079,24.7393334 C26.6488949,24.9001526 26.8173923,25 27,25 C27.1826077,25 27.3510565,24.9001526 27.4384921,24.7393334 L28.6059556,22.6000037 L30.7397365,21.4298817 C30.9003515,21.3420335 31,21.1734099 31,20.9900555 C30.9999513,20.8067987 30.9003515,20.6381263 30.7397365,20.5502781 Z M27.997555,21.7908835 C27.9135739,21.8368806 27.844725,21.9061446 27.798842,21.9900906 L27.0000487,23.4541454 L26.2012067,21.9900906 C26.1553236,21.9061446 26.0864747,21.8368806 26.0024936,21.7908835 L24.5420209,20.9901043 L26.002445,20.1895202 C26.0864261,20.143523 26.155275,20.0742591 26.201158,19.9903131 L26.9999513,18.5262583 L27.7987447,19.9903131 C27.8446277,20.0742591 27.9134766,20.143523 27.9974577,20.1895202 L29.4578817,20.9901043 L27.997555,21.7908835 Z" id="Shape" fill="#C2A068" transform="translate(27.000000, 21.000000) scale(-1, 1) translate(-27.000000, -21.000000) "></path>
                    <path d="M49.8239364,1.69574934 L48.8368286,1.15391647 L48.2965273,0.163258063 C48.1782849,-0.0544193542 47.8216163,-0.0544193542 47.7034069,0.163258063 L47.1631385,1.15391647 L46.1760307,1.69574934 C46.0673649,1.75544307 46,1.86958092 46,1.99349163 C46,2.11756743 46.0673649,2.23170528 46.1760307,2.29120091 L47.1631385,2.83290171 L47.7034069,3.82356012 C47.7625116,3.93241534 47.8764758,4 47.9999835,4 C48.1234913,4 48.2374226,3.93241534 48.2965602,3.82356012 L48.8368615,2.83290171 L49.8239693,2.29120091 C49.9326351,2.2317383 50,2.11760045 50,1.99349163 C49.9999671,1.86958092 49.9326022,1.75544307 49.8239364,1.69574934 Z M48.4253334,2.28522493 C48.3685323,2.31635944 48.321966,2.36324279 48.2909327,2.42006409 L47.9999835,2.95367587 L47.7090344,2.42006409 C47.6780011,2.36324279 47.6314348,2.31635944 47.5746337,2.28522493 L47.0429217,1.99349163 L47.5746337,1.70159325 C47.6314348,1.67045874 47.6780011,1.62357539 47.7090344,1.56672108 L47.9999835,1.03307629 L48.2909327,1.56672108 C48.321966,1.62354238 48.3685323,1.67042573 48.4253334,1.70159325 L48.9570125,1.99349163 L48.4253334,2.28522493 Z" id="Shape-Copy-15" fill="#FAD59A" transform="translate(48.000000, 2.000000) scale(-1, 1) translate(-48.000000, -2.000000) "></path>
                    <path d="M12.7359046,36.543624 L11.2552428,35.7308747 L10.4447909,34.2448871 C10.2674274,33.918371 9.73242449,33.918371 9.55511037,34.2448871 L8.74470781,35.7308747 L7.26404601,36.543624 C7.10104733,36.6331646 7,36.8043714 7,36.9902375 C7,37.1763511 7.10104733,37.3475579 7.26404601,37.4368014 L8.74470781,38.2493526 L9.55511037,39.7353402 C9.64376743,39.898623 9.81471365,40 9.99997532,40 C10.185237,40 10.3561338,39.898623 10.4448403,39.7353402 L11.2552922,38.2493526 L12.735954,37.4368014 C12.8989527,37.3476074 13,37.1764007 13,36.9902375 C12.9999506,36.8043714 12.8989033,36.6331646 12.7359046,36.543624 Z M10.6380001,37.4278374 C10.5527985,37.4745392 10.482949,37.5448642 10.4363991,37.6300961 L9.99997532,38.4305138 L9.56355155,37.6300961 C9.51700165,37.5448642 9.44715213,37.4745392 9.36195052,37.4278374 L8.5643825,36.9902375 L9.36195052,36.5523899 C9.44715213,36.5056881 9.51700165,36.4353631 9.56355155,36.3500816 L9.99997532,35.5496144 L10.4363991,36.3500816 C10.482949,36.4353136 10.5527985,36.5056386 10.6380001,36.5523899 L11.4355188,36.9902375 L10.6380001,37.4278374 Z" id="Shape-Copy-20" fill="#FAD59A" transform="translate(10.000000, 37.000000) scale(-1, 1) translate(-10.000000, -37.000000) "></path>
                    <path d="M39,42.6780158 C39,42.4905343 38.8504942,42.3385338 38.6657263,42.3385338 L38.4698658,42.3385338 L38.6082791,42.1799922 C38.7388527,42.0473841 38.7388527,41.8235956 38.6082791,41.6909876 C38.4777054,41.5583795 38.2476239,41.5538535 38.1170502,41.6864616 L37.9601276,41.8225385 L37.9601276,41.6236264 C37.9601276,41.4361448 37.8106218,41.2841444 37.6258539,41.2841444 C37.441086,41.2841444 37.2915802,41.4361448 37.2915802,41.6236264 L37.2915802,41.8225385 L37.1717088,41.6819686 C37.0411351,41.5493605 36.8388338,41.5493605 36.7082602,41.6819686 C36.5776865,41.8145767 36.5823383,42.0473511 36.7129119,42.1799592 L36.8558793,42.3385008 L36.6601164,42.3385008 C36.4753485,42.3385008 36.3258427,42.4905012 36.3258427,42.6779828 C36.3258427,42.8654643 36.4753485,43.0174647 36.6601164,43.0174647 L36.8561395,43.0174647 L36.7175636,43.1402279 C36.58699,43.272836 36.58699,43.4786858 36.7175636,43.6112938 C36.7828504,43.6776309 36.8683707,43.7062735 36.9538909,43.7062735 C37.0394111,43.7062735 37.1064219,43.6708915 37.1717088,43.6045874 L37.2915802,43.4617381 L37.2915802,43.6605181 C37.2915802,43.8479996 37.441086,44 37.6258539,44 C37.8106218,44 37.9601276,43.8479996 37.9601276,43.6605181 L37.9601276,43.4617381 L38.1170502,43.602341 C38.1823371,43.668645 38.2770957,43.7018135 38.3626159,43.7018135 C38.4481361,43.7018135 38.538308,43.668678 38.6036273,43.602341 C38.734201,43.4697329 38.7364781,43.272836 38.6059044,43.1402279 L38.4697032,43.0174647 L38.6657263,43.0174647 C38.8504942,43.0174977 39,42.8654973 39,42.6780158 Z" id="Shape-Copy-8" fill="#C2A068" transform="translate(37.662921, 42.642072) scale(-1, -1) translate(-37.662921, -42.642072) "></path>
                    <path d="M53.0588082,25.1747128 L53.5346159,24.6989097 C53.7689873,24.4645406 53.7689873,24.084844 53.5346159,23.850475 C53.3002446,23.6161059 52.9205443,23.6161059 52.686173,23.850475 L52.2104236,24.326278 L51.7346159,23.850475 C51.5002446,23.6161059 51.1205443,23.6161059 50.886173,23.850475 C50.6518016,24.084844 50.6518016,24.4645406 50.886173,24.6989097 L51.3619807,25.1747128 L50.886173,25.6504574 C50.6518016,25.8848265 50.6518016,26.2645231 50.886173,26.4988922 C51.0033586,26.6160767 51.1568619,26.6746982 51.3104236,26.6746982 C51.463927,26.6746982 51.6174303,26.6160767 51.7346159,26.4988922 L52.2104236,26.0230891 L52.686173,26.4988922 C52.8033586,26.6160767 52.9568619,26.6746982 53.1104236,26.6746982 C53.263927,26.6746982 53.4174303,26.6160767 53.5346159,26.4988922 C53.7689873,26.2645231 53.7689873,25.8848265 53.5346159,25.6504574 L53.0588082,25.1747128 Z" id="Shape" fill="#C2A068" transform="translate(52.210394, 25.174698) scale(-1, 1) translate(-52.210394, -25.174698) "></path>
                    <path d="M1.56560919,19.0156005 L1.88281432,18.6934531 C2.03906189,18.534771 2.03906189,18.2776935 1.88281432,18.1190115 C1.72656676,17.9603295 1.47343324,17.9603295 1.31718568,18.1190115 L1.00001946,18.4411589 L0.682814325,18.1190115 C0.526566757,17.9603295 0.273433243,17.9603295 0.117185675,18.1190115 C-0.0390618918,18.2776935 -0.0390618918,18.534771 0.117185675,18.6934531 L0.434390814,19.0156005 L0.117185675,19.3377084 C-0.0390618918,19.4963904 -0.0390618918,19.7534679 0.117185675,19.9121499 C0.195309459,19.9914909 0.297644998,20.0311812 0.400019463,20.0311812 C0.502355002,20.0311812 0.604690541,19.9914909 0.682814325,19.9121499 L1.00001946,19.5900025 L1.31718568,19.9121499 C1.39530946,19.9914909 1.497645,20.0311812 1.60001946,20.0311812 C1.702355,20.0311812 1.80469054,19.9914909 1.88281432,19.9121499 C2.03906189,19.7534679 2.03906189,19.4963904 1.88281432,19.3377084 L1.56560919,19.0156005 Z" id="Shape-Copy-16" fill="#C2A068" transform="translate(1.000000, 19.015591) scale(-1, 1) translate(-1.000000, -19.015591) "></path>
                </g>
                <g id="Group-4-Copy-2" transform="translate(0.000000, 39.000000)" fill-rule="nonzero">
                    <path d="M30.7397365,20.5502781 L28.6059556,19.3804 L27.4384921,17.2408264 C27.2637181,16.9197245 26.7363306,16.9197245 26.5615565,17.2408264 L25.3940444,19.3804 L23.2602635,20.5502781 C23.0996485,20.6381263 23,20.8067499 23,20.9900555 C23,21.1733611 23.0995998,21.3419847 23.2602635,21.4298817 L25.3940444,22.6000037 L26.5615079,24.7393334 C26.6488949,24.9001526 26.8173923,25 27,25 C27.1826077,25 27.3510565,24.9001526 27.4384921,24.7393334 L28.6059556,22.6000037 L30.7397365,21.4298817 C30.9003515,21.3420335 31,21.1734099 31,20.9900555 C30.9999513,20.8067987 30.9003515,20.6381263 30.7397365,20.5502781 Z M27.997555,21.7908835 C27.9135739,21.8368806 27.844725,21.9061446 27.798842,21.9900906 L27.0000487,23.4541454 L26.2012067,21.9900906 C26.1553236,21.9061446 26.0864747,21.8368806 26.0024936,21.7908835 L24.5420209,20.9901043 L26.002445,20.1895202 C26.0864261,20.143523 26.155275,20.0742591 26.201158,19.9903131 L26.9999513,18.5262583 L27.7987447,19.9903131 C27.8446277,20.0742591 27.9134766,20.143523 27.9974577,20.1895202 L29.4578817,20.9901043 L27.997555,21.7908835 Z" id="Shape" fill="#C2A068" transform="translate(27.000000, 21.000000) scale(-1, 1) translate(-27.000000, -21.000000) "></path>
                    <path d="M49.8239364,1.69574934 L48.8368286,1.15391647 L48.2965273,0.163258063 C48.1782849,-0.0544193542 47.8216163,-0.0544193542 47.7034069,0.163258063 L47.1631385,1.15391647 L46.1760307,1.69574934 C46.0673649,1.75544307 46,1.86958092 46,1.99349163 C46,2.11756743 46.0673649,2.23170528 46.1760307,2.29120091 L47.1631385,2.83290171 L47.7034069,3.82356012 C47.7625116,3.93241534 47.8764758,4 47.9999835,4 C48.1234913,4 48.2374226,3.93241534 48.2965602,3.82356012 L48.8368615,2.83290171 L49.8239693,2.29120091 C49.9326351,2.2317383 50,2.11760045 50,1.99349163 C49.9999671,1.86958092 49.9326022,1.75544307 49.8239364,1.69574934 Z M48.4253334,2.28522493 C48.3685323,2.31635944 48.321966,2.36324279 48.2909327,2.42006409 L47.9999835,2.95367587 L47.7090344,2.42006409 C47.6780011,2.36324279 47.6314348,2.31635944 47.5746337,2.28522493 L47.0429217,1.99349163 L47.5746337,1.70159325 C47.6314348,1.67045874 47.6780011,1.62357539 47.7090344,1.56672108 L47.9999835,1.03307629 L48.2909327,1.56672108 C48.321966,1.62354238 48.3685323,1.67042573 48.4253334,1.70159325 L48.9570125,1.99349163 L48.4253334,2.28522493 Z" id="Shape-Copy-15" fill="#FAD59A" transform="translate(48.000000, 2.000000) scale(-1, 1) translate(-48.000000, -2.000000) "></path>
                    <path d="M12.7359046,36.543624 L11.2552428,35.7308747 L10.4447909,34.2448871 C10.2674274,33.918371 9.73242449,33.918371 9.55511037,34.2448871 L8.74470781,35.7308747 L7.26404601,36.543624 C7.10104733,36.6331646 7,36.8043714 7,36.9902375 C7,37.1763511 7.10104733,37.3475579 7.26404601,37.4368014 L8.74470781,38.2493526 L9.55511037,39.7353402 C9.64376743,39.898623 9.81471365,40 9.99997532,40 C10.185237,40 10.3561338,39.898623 10.4448403,39.7353402 L11.2552922,38.2493526 L12.735954,37.4368014 C12.8989527,37.3476074 13,37.1764007 13,36.9902375 C12.9999506,36.8043714 12.8989033,36.6331646 12.7359046,36.543624 Z M10.6380001,37.4278374 C10.5527985,37.4745392 10.482949,37.5448642 10.4363991,37.6300961 L9.99997532,38.4305138 L9.56355155,37.6300961 C9.51700165,37.5448642 9.44715213,37.4745392 9.36195052,37.4278374 L8.5643825,36.9902375 L9.36195052,36.5523899 C9.44715213,36.5056881 9.51700165,36.4353631 9.56355155,36.3500816 L9.99997532,35.5496144 L10.4363991,36.3500816 C10.482949,36.4353136 10.5527985,36.5056386 10.6380001,36.5523899 L11.4355188,36.9902375 L10.6380001,37.4278374 Z" id="Shape-Copy-20" fill="#FAD59A" transform="translate(10.000000, 37.000000) scale(-1, 1) translate(-10.000000, -37.000000) "></path>
                    <path d="M39,42.6780158 C39,42.4905343 38.8504942,42.3385338 38.6657263,42.3385338 L38.4698658,42.3385338 L38.6082791,42.1799922 C38.7388527,42.0473841 38.7388527,41.8235956 38.6082791,41.6909876 C38.4777054,41.5583795 38.2476239,41.5538535 38.1170502,41.6864616 L37.9601276,41.8225385 L37.9601276,41.6236264 C37.9601276,41.4361448 37.8106218,41.2841444 37.6258539,41.2841444 C37.441086,41.2841444 37.2915802,41.4361448 37.2915802,41.6236264 L37.2915802,41.8225385 L37.1717088,41.6819686 C37.0411351,41.5493605 36.8388338,41.5493605 36.7082602,41.6819686 C36.5776865,41.8145767 36.5823383,42.0473511 36.7129119,42.1799592 L36.8558793,42.3385008 L36.6601164,42.3385008 C36.4753485,42.3385008 36.3258427,42.4905012 36.3258427,42.6779828 C36.3258427,42.8654643 36.4753485,43.0174647 36.6601164,43.0174647 L36.8561395,43.0174647 L36.7175636,43.1402279 C36.58699,43.272836 36.58699,43.4786858 36.7175636,43.6112938 C36.7828504,43.6776309 36.8683707,43.7062735 36.9538909,43.7062735 C37.0394111,43.7062735 37.1064219,43.6708915 37.1717088,43.6045874 L37.2915802,43.4617381 L37.2915802,43.6605181 C37.2915802,43.8479996 37.441086,44 37.6258539,44 C37.8106218,44 37.9601276,43.8479996 37.9601276,43.6605181 L37.9601276,43.4617381 L38.1170502,43.602341 C38.1823371,43.668645 38.2770957,43.7018135 38.3626159,43.7018135 C38.4481361,43.7018135 38.538308,43.668678 38.6036273,43.602341 C38.734201,43.4697329 38.7364781,43.272836 38.6059044,43.1402279 L38.4697032,43.0174647 L38.6657263,43.0174647 C38.8504942,43.0174977 39,42.8654973 39,42.6780158 Z" id="Shape-Copy-8" fill="#C2A068" transform="translate(37.662921, 42.642072) scale(-1, -1) translate(-37.662921, -42.642072) "></path>
                    <path d="M53.0588082,25.1747128 L53.5346159,24.6989097 C53.7689873,24.4645406 53.7689873,24.084844 53.5346159,23.850475 C53.3002446,23.6161059 52.9205443,23.6161059 52.686173,23.850475 L52.2104236,24.326278 L51.7346159,23.850475 C51.5002446,23.6161059 51.1205443,23.6161059 50.886173,23.850475 C50.6518016,24.084844 50.6518016,24.4645406 50.886173,24.6989097 L51.3619807,25.1747128 L50.886173,25.6504574 C50.6518016,25.8848265 50.6518016,26.2645231 50.886173,26.4988922 C51.0033586,26.6160767 51.1568619,26.6746982 51.3104236,26.6746982 C51.463927,26.6746982 51.6174303,26.6160767 51.7346159,26.4988922 L52.2104236,26.0230891 L52.686173,26.4988922 C52.8033586,26.6160767 52.9568619,26.6746982 53.1104236,26.6746982 C53.263927,26.6746982 53.4174303,26.6160767 53.5346159,26.4988922 C53.7689873,26.2645231 53.7689873,25.8848265 53.5346159,25.6504574 L53.0588082,25.1747128 Z" id="Shape" fill="#C2A068" transform="translate(52.210394, 25.174698) scale(-1, 1) translate(-52.210394, -25.174698) "></path>
                    <path d="M1.56560919,19.0156005 L1.88281432,18.6934531 C2.03906189,18.534771 2.03906189,18.2776935 1.88281432,18.1190115 C1.72656676,17.9603295 1.47343324,17.9603295 1.31718568,18.1190115 L1.00001946,18.4411589 L0.682814325,18.1190115 C0.526566757,17.9603295 0.273433243,17.9603295 0.117185675,18.1190115 C-0.0390618918,18.2776935 -0.0390618918,18.534771 0.117185675,18.6934531 L0.434390814,19.0156005 L0.117185675,19.3377084 C-0.0390618918,19.4963904 -0.0390618918,19.7534679 0.117185675,19.9121499 C0.195309459,19.9914909 0.297644998,20.0311812 0.400019463,20.0311812 C0.502355002,20.0311812 0.604690541,19.9914909 0.682814325,19.9121499 L1.00001946,19.5900025 L1.31718568,19.9121499 C1.39530946,19.9914909 1.497645,20.0311812 1.60001946,20.0311812 C1.702355,20.0311812 1.80469054,19.9914909 1.88281432,19.9121499 C2.03906189,19.7534679 2.03906189,19.4963904 1.88281432,19.3377084 L1.56560919,19.0156005 Z" id="Shape-Copy-16" fill="#C2A068" transform="translate(1.000000, 19.015591) scale(-1, 1) translate(-1.000000, -19.015591) "></path>
                </g>
                <g id="Group" transform="translate(78.000000, 0.000000)">
                    <g id="Group-19" transform="translate(0.000000, 42.000000)">
                        <path d="M2.43366777,25.131031 L1.79100997,26.9278209 L0.279727575,28.0942581 L2.07761462,28.7365237 L3.24424585,30.2468838 L3.88742193,28.450094 L5.39870432,27.2836567 L3.60081728,26.6413911 L2.43366777,25.131031 Z M2.67518272,26.6538221 L3.01465116,27.0935668 C3.10120266,27.2054454 3.21833223,27.2903902 3.35152824,27.3380421 L3.87446512,27.5250243 L3.4349701,27.8642856 C3.32302326,27.9507842 3.23802658,28.0678423 3.19034551,28.2009571 L3.00324917,28.7240928 L2.66326246,28.284348 C2.57671096,28.1724695 2.46009967,28.0875247 2.32690365,28.0398727 L1.8034485,27.8528905 L2.24346179,27.5136293 C2.35540864,27.4271306 2.44040532,27.3100725 2.48756811,27.1769578 L2.67518272,26.6538221 Z" id="Fill-7" fill="#C2A068" transform="translate(2.839216, 27.688957) scale(1, -1) translate(-2.839216, -27.688957) "></path>
                        <path d="M41.5665914,25.131031 L40.3994419,26.6413911 L38.6015548,27.2836567 L40.1128372,28.450094 L40.7560133,30.2468838 L41.9226445,28.7365237 L43.7205316,28.0942581 L42.2092492,26.9278209 L41.5665914,25.131031 Z M41.3250764,26.6538221 L41.5121728,27.1769578 C41.5593355,27.3100725 41.6443322,27.4271306 41.7567973,27.5136293 L42.1962924,27.8528905 L41.6733555,28.0398727 C41.5396412,28.0875247 41.4230299,28.1724695 41.3369967,28.284348 L40.9964917,28.7240928 L40.8099136,28.2009571 C40.7622326,28.0678423 40.6772359,27.9507842 40.565289,27.8642856 L40.125794,27.5250243 L40.6487309,27.3380421 C40.7819269,27.2903902 40.8990565,27.2054454 40.985608,27.0935668 L41.3250764,26.6538221 Z" id="Fill-121" fill="#C2A068" transform="translate(41.161043, 27.688957) scale(1, -1) translate(-41.161043, -27.688957) "></path>
                        <path d="M4.77138073,0.504690549 L2.59204518,6.61864488 L6.87919468,13.8058043 L8.73409169,5.64592324 L4.77138073,0.504690549 Z M5.11758671,2.6878757 L7.591301,5.89713197 L6.4334804,10.9912307 L3.75712159,6.50417657 L5.11758671,2.6878757 Z" id="Fill-9" fill="#E2B979" transform="translate(5.663068, 7.155247) scale(1, -1) translate(-5.663068, -7.155247) "></path>
                        <path d="M39.2283601,0.504690549 L35.2656492,5.64592324 L37.1210645,13.8058043 L41.408214,6.61864488 L39.2283601,0.504690549 Z M38.8826724,2.6878757 L40.2431375,6.50417657 L37.5667787,10.9912307 L36.4084399,5.89713197 L38.8826724,2.6878757 Z" id="Fill-123" fill="#E2B979" transform="translate(38.336932, 7.155247) scale(1, -1) translate(-38.336932, -7.155247) "></path>
                    </g>
                    <g id="Group-18" transform="translate(18.000000, 0.000000)">
                        <path d="M3.99989635,94.8204386 L3.0835907,96.4944728 L1.40853422,97.4102193 L3.0835907,98.3259657 L3.99989635,100 L4.91620199,98.3259657 L6.59125847,97.4102193 L4.91620199,96.4944728 L3.99989635,94.8204386 Z M3.99989635,96.362394 L4.26680664,96.8497907 C4.33470033,96.9735822 4.4368,97.0756196 4.56066711,97.1434719 L5.04836146,97.4102193 L4.56066711,97.6769667 C4.4368,97.7448189 4.33470033,97.8468563 4.26680664,97.9706478 L3.99989635,98.4580446 L3.73350432,97.9706478 C3.66509236,97.8468563 3.56351096,97.7448189 3.43912558,97.6769667 L2.9519495,97.4102193 L3.43912558,97.1434719 C3.56351096,97.0756196 3.66509236,96.9735822 3.73350432,96.8497907 L3.99989635,96.362394 Z" id="Fill-1" fill="#FAD59A" transform="translate(3.999896, 97.410219) scale(1, -1) translate(-3.999896, -97.410219) "></path>
                        <path d="M4,0 L4,66.5031827" id="Stroke-5" stroke="#192432" stroke-linecap="square" transform="translate(4.500000, 33.500000) scale(1, -1) translate(-4.500000, -33.500000) "></path>
                        <path d="M4,66 L0,73.6153846 L4,84 L8,73.6153846 L4,66 Z M4,68.9547692 L6.49733333,73.7081538 L4,80.1909231 L1.50333333,73.7081538 L4,68.9547692 Z" id="Fill-3" fill="#FAD59A" transform="translate(4.000000, 75.000000) scale(1, -1) translate(-4.000000, -75.000000) "></path>
                    </g>
                </g>
            </g>
        </g>
    </g>
</svg>