<?xml version="1.0" encoding="UTF-8"?>
<svg width="25px" height="30px" viewBox="0 0 25 30" version="1.1" xmlns="http://www.w3.org/2000/svg" xmlns:xlink="http://www.w3.org/1999/xlink">
    <!-- Generator: Sketch 50.2 (55047) - http://www.bohemiancoding.com/sketch -->
    <title>Gold</title>
    <desc>Created with Sketch.</desc>
    <defs></defs>
    <g id="Symbols" stroke="none" stroke-width="1" fill="none" fill-rule="evenodd">
        <g id="Quests" transform="translate(-9.000000, 0.000000)" fill-rule="nonzero">
            <g id="Gold" transform="translate(9.000000, 0.000000)">
                <path d="M23.0663158,3.04163743 L13.3205263,0.167426901 C12.5639181,-0.0557894737 11.7637427,-0.0557894737 11.0069006,0.167426901 L1.26122807,3.04157895 C0.541695906,3.25374269 0.0391812865,3.92578947 0.0391812865,4.67596491 L0.0391812865,12.7469591 C0.0391812865,16.4821637 1.15105263,20.0788304 3.25461988,23.1481287 C5.30830409,26.1447953 8.16637427,28.4501754 11.5195322,29.8147953 C11.7272515,29.8992982 11.9454971,29.9415789 12.1637427,29.9415789 C12.3819883,29.9415789 12.6002339,29.8992398 12.8078947,29.8147953 C16.1610526,28.4501754 19.0191228,26.1449123 21.072807,23.1481287 C23.1763158,20.0787719 24.2881871,16.4821637 24.2881871,12.7469591 L24.2881871,4.67602339 C24.2883041,3.92584795 23.7857895,3.25374269 23.0663158,3.04163743 Z M22.9251462,12.7469006 C22.9251462,16.2057895 21.8957895,19.5359649 19.9484795,22.3773684 C18.0461404,25.1531579 15.3993567,27.2883626 12.294152,28.5520468 C12.2100585,28.5862573 12.1174854,28.5862573 12.0333918,28.5520468 C8.92818713,27.2883626 6.28134503,25.1532164 4.37906433,22.3773684 C2.43175439,19.5359649 1.40239766,16.205848 1.40239766,12.7469006 L1.40239766,4.67596491 C1.40239766,4.52596491 1.50292398,4.39157895 1.64684211,4.34912281 L11.3925731,1.47491228 C11.6448538,1.40046784 11.9043275,1.36333333 12.1638012,1.36333333 C12.4232164,1.36333333 12.6826901,1.40052632 12.9349708,1.47497076 L22.6808187,4.34912281 C22.8246199,4.39152047 22.9251462,4.52590643 22.9251462,4.67596491 L22.9251462,12.7469006 Z" id="Shape" fill="#C2A068"></path>
                <path d="M19.7163743,6.05584795 L12.4528655,3.91374269 C12.2637427,3.8580117 12.0638596,3.85789474 11.8746199,3.91374269 L4.61128655,6.05584795 C4.17959064,6.18321637 3.8780117,6.58649123 3.8780117,7.03654971 L3.8780117,12.7469006 C3.8780117,15.7643275 4.79076023,18.6584795 6.5174269,21.1166082 C7.85614035,23.0226316 9.64497076,24.5962573 11.6904094,25.6674854 C11.8385965,25.7451462 12.0011696,25.7839181 12.1638012,25.7839181 C12.3263743,25.7839181 12.4889474,25.7451462 12.637193,25.6674854 C14.6825731,24.5963158 16.4714035,23.0225731 17.8101754,21.1166082 C19.5368421,18.658538 20.4495906,15.7643275 20.4495906,12.7469006 L20.4495906,7.03654971 C20.4495322,6.58637427 20.1480117,6.18315789 19.7163743,6.05584795 Z M19.0864327,12.7469006 C19.0864327,15.4823977 18.2594152,18.1056725 16.6947953,20.3330409 C15.5151462,22.0123977 13.9514035,23.4068421 12.1638012,24.3751462 C10.3761988,23.4067836 8.81239766,22.0123977 7.63280702,20.3330409 C6.06818713,18.1056725 5.24116959,15.4823977 5.24116959,12.7469006 L5.24116959,7.29134503 L12.1638012,5.2497076 L19.0864327,7.29134503 L19.0864327,12.7469006 Z" id="Shape" fill="#FAD59A"></path>
            </g>
        </g>
    </g>
</svg>