<?xml version="1.0" encoding="UTF-8"?>
<svg width="18px" height="14px" viewBox="0 0 18 14" version="1.1" xmlns="http://www.w3.org/2000/svg" xmlns:xlink="http://www.w3.org/1999/xlink">
    <!-- Generator: Sketch 50.2 (55047) - http://www.bohemiancoding.com/sketch -->
    <title>Shape</title>
    <desc>Created with Sketch.</desc>
    <defs></defs>
    <g id="Page-1" stroke="none" stroke-width="1" fill="none" fill-rule="evenodd">
        <g id="01_Dashboard_a_1366" transform="translate(-114.000000, -2068.000000)" fill="#41566F">
            <g id="Observations" transform="translate(93.000000, 1691.000000)">
                <g id="Group-18" transform="translate(0.000000, 354.000000)">
                    <g id="Group-16">
                        <path d="M38.9303478,30.314983 C38.8912174,30.4159329 38.8333043,30.5106705 38.751913,30.5922069 L32.5286087,36.7664564 C32.2155652,37.0778479 31.7092174,37.0778479 31.3969565,36.7664564 C31.0846957,36.4573944 31.0846957,35.9549747 31.3969565,35.6451362 L36.3023478,30.7777993 L21.7826087,30.7777993 C21.3506087,30.7777993 21,30.4299106 21,30.0012619 C21,29.5718366 21.3506087,29.2247244 21.7826087,29.2247244 L36.3046957,29.2247244 L31.3969565,24.3550579 C31.0846957,24.0444429 31.0846957,23.5420232 31.3969565,23.2329612 C31.7092174,22.9223463 32.2155652,22.9223463 32.5286087,23.2329612 L38.751913,29.4072107 C38.8348696,29.4895237 38.892,29.5858143 38.9311304,29.6883173 C38.9741739,29.7838314 39,29.8894405 39,30.0012619 C39,30.1138598 38.9733913,30.2186924 38.9303478,30.314983 L38.9303478,30.314983 Z" id="Shape" transform="translate(30.000000, 30.000000) rotate(-180.000000) translate(-30.000000, -30.000000) "></path>
                    </g>
                </g>
            </g>
        </g>
    </g>
</svg>