<svg id="Layer_1" data-name="Layer 1" xmlns="http://www.w3.org/2000/svg" viewBox="0 0 2190.33 634.31"><defs><style>.cls-1{fill:#fff;}.cls-2{fill:#231f20;}</style></defs><title>Logo-Slooh-Black-C</title><polygon class="cls-1" points="460.9 51.53 477.89 85.97 515.9 91.49 488.4 118.29 494.89 156.14 460.9 138.27 426.9 156.14 433.4 118.29 405.9 91.49 443.9 85.97 460.9 51.53"/><polygon class="cls-1" points="549.69 192.44 562.05 217.48 589.69 221.5 569.69 241 574.41 268.52 549.69 255.53 524.97 268.52 529.69 241 509.69 221.5 537.33 217.48 549.69 192.44"/><polygon class="cls-1" points="264.23 100.21 276.59 125.26 304.23 129.27 284.23 148.77 288.95 176.3 264.23 163.3 239.5 176.3 244.23 148.77 224.23 129.27 251.87 125.26 264.23 100.21"/><path class="cls-1" d="M627.29,626.31H0V0H627.29ZM489.88,608.37c1,0,2.51.17,4,.17,27.5,0,55-.4,82.5.15,18.91.38,31.2-14.12,31.18-31.31q-.35-265.49-.17-531a33.77,33.77,0,0,0-.68-7.92c-3.66-15-14.19-22.63-31.45-22.63q-260.24,0-520.49.07a39.19,39.19,0,0,0-11.31,1.45C30.85,21.22,23.63,32.24,23.63,47q0,194,0,388c0,1.58,0,3.16,0,5.9,1.32-1.55,1.87-2.09,2.31-2.72,10.21-14.57,22.6-27.08,36.09-38.59,33.36-28.47,70.95-48.82,113.92-58.38,10-2.23,19.59-4.58,28.31-10.3,3-2,7.24-2.62,10.93-2.68,12.66-.19,25.33.13,38,.31,1.11,0,2.54,0,3.27.67,3,2.62,1.31,13.42-2.35,15.36a326,326,0,0,0-55.85,37.61c-30.73,25.61-56,55.47-72.54,92.29-16.37,36.51-25.06,75-29,114.59-.64,6.36-.67,12.78-1,19.09h95.85a7,7,0,0,0,.29-1.37c-2.19-41,4.76-80.62,19.77-118.72,15.52-39.4,37.83-74.47,69.09-103.4,13-12.05,27.18-22.58,44.09-28.69,2.44-.88,5.82-1.2,8.08-.21,10.5,4.61,20.82,9.67,31.09,14.78,4.86,2.42,6.78,6.91,7.81,12.09a11.33,11.33,0,0,0,3.53,6.35c24.84,19.35,47.31,41.21,66.37,66.19,23.52,30.82,35.62,66.72,42.21,104.5C486.63,575.53,487.86,591.65,489.88,608.37Z"/><path class="cls-1" d="M689.14,545.51c7.2-10.4,13.6-22.4,20.8-32.8s18.4-13.6,27.2-6.4c4.8,4,66.4,55.2,128,55.2,55.2,0,90.4-33.6,90.4-74.4,0-48-41.6-78.4-120.8-111.2-81.6-34.4-145.6-76.8-145.6-169.6,0-62.4,48-148,175.2-148,80,0,140,41.6,148,47.2,6.4,4,12.8,15.2,4.8,27.2-6.4,9.6-13.6,20.8-20,30.4-6.4,10.4-16.8,15.2-28,8-5.6-3.2-61.6-40-108-40-67.2,0-90.4,42.4-90.4,72,0,45.6,35.2,73.6,101.6,100.8,92.8,37.6,172,81.6,172,179.2,0,83.2-74.4,151.2-178.4,151.2-97.6,0-159.2-51.2-172-63.2C686.74,564.71,681.14,559.11,689.14,545.51Z"/><path class="cls-1" d="M1079.13,81.5c0-8,7.2-15.2,15.2-15.2h45.6c8,0,15.2,7.2,15.2,15.2v529.6c0,8-7.2,15.2-15.2,15.2h-45.6c-8,0-15.2-7.2-15.2-15.2Z"/><path class="cls-1" d="M1349.53,298.31c89.6,0,161.6,76.8,161.6,167.2,0,92-72,168.8-161.6,168.8s-161.6-76.8-161.6-168.8C1187.93,375.11,1259.93,298.31,1349.53,298.31Zm0,267.2c50.4,0,90.4-44.8,90.4-100,0-53.6-40-97.6-90.4-97.6s-90.4,44-90.4,97.6C1259.13,520.71,1299.13,565.51,1349.53,565.51Z"/><path class="cls-1" d="M1692.73,298.31c89.6,0,161.6,76.8,161.6,167.2,0,92-72,168.8-161.6,168.8s-161.6-76.8-161.6-168.8C1531.13,375.11,1603.13,298.31,1692.73,298.31Zm0,267.2c50.4,0,90.4-44.8,90.4-100,0-53.6-40-97.6-90.4-97.6s-90.4,44-90.4,97.6C1602.33,520.71,1642.33,565.51,1692.73,565.51Z"/><path class="cls-1" d="M1883.92,81.5c0-8,7.2-15.2,15.2-15.2h46.4c8,0,15.2,7.2,15.2,15.2v251.2c8-5.6,44.8-34.4,96-34.4,90.4,0,133.6,64.8,133.6,152v160.8c0,8-7.2,15.2-15.2,15.2h-44.8a15.19,15.19,0,0,1-15.2-15.2V448.71c0-52-26.4-80.8-68-80.8-48.8,0-82.4,36.8-86.4,50.4v192.8c0,8.8-5.6,15.2-16,15.2h-45.6c-8,0-15.2-7.2-15.2-15.2Z"/><rect class="cls-2" x="9.3" y="8.8" width="608.7" height="608.7"/><polygon class="cls-1" points="460.9 51.53 477.89 85.97 515.9 91.49 488.4 118.29 494.89 156.14 460.9 138.27 426.9 156.14 433.4 118.29 405.9 91.49 443.9 85.97 460.9 51.53"/><polygon class="cls-1" points="549.69 192.44 562.05 217.48 589.69 221.5 569.69 241 574.41 268.52 549.69 255.53 524.97 268.52 529.69 241 509.69 221.5 537.33 217.48 549.69 192.44"/><polygon class="cls-1" points="264.23 100.21 276.59 125.26 304.23 129.27 284.23 148.77 288.95 176.3 264.23 163.3 239.5 176.3 244.23 148.77 224.23 129.27 251.87 125.26 264.23 100.21"/><path class="cls-1" d="M627.29,626.31H0V0H627.29ZM489.88,608.37c1,0,2.51.17,4,.17,27.5,0,55-.4,82.5.15,18.91.38,31.2-14.12,31.18-31.31q-.35-265.49-.17-531a33.77,33.77,0,0,0-.68-7.92c-3.66-15-14.19-22.63-31.45-22.63q-260.24,0-520.49.07a39.19,39.19,0,0,0-11.31,1.45C30.85,21.22,23.63,32.24,23.63,47q0,194,0,388c0,1.58,0,3.16,0,5.9,1.32-1.55,1.87-2.09,2.31-2.72,10.21-14.57,22.6-27.08,36.09-38.59,33.36-28.47,70.95-48.82,113.92-58.38,10-2.23,19.59-4.58,28.31-10.3,3-2,7.24-2.62,10.93-2.68,12.66-.19,25.33.13,38,.31,1.11,0,2.54,0,3.27.67,3,2.62,1.31,13.42-2.35,15.36a326,326,0,0,0-55.85,37.61c-30.73,25.61-56,55.47-72.54,92.29-16.37,36.51-25.06,75-29,114.59-.64,6.36-.67,12.78-1,19.09h95.85a7,7,0,0,0,.29-1.37c-2.19-41,4.76-80.62,19.77-118.72,15.52-39.4,37.83-74.47,69.09-103.4,13-12.05,27.18-22.58,44.09-28.69,2.44-.88,5.82-1.2,8.08-.21,10.5,4.61,20.82,9.67,31.09,14.78,4.86,2.42,6.78,6.91,7.81,12.09a11.33,11.33,0,0,0,3.53,6.35c24.84,19.35,47.31,41.21,66.37,66.19,23.52,30.82,35.62,66.72,42.21,104.5C486.63,575.53,487.86,591.65,489.88,608.37Z"/><path class="cls-2" d="M679.14,545.51c7.2-10.4,23.6-22.4,30.8-32.8s18.4-13.6,27.2-6.4c4.8,4,66.4,55.2,128,55.2,55.2,0,90.4-33.6,90.4-74.4,0-48-41.6-78.4-120.8-111.2-81.6-34.4-155.6-76.8-155.6-169.6,0-62.4,58-148,185.2-148,80,0,140,41.6,148,47.2,6.4,4,12.8,15.2,4.8,27.2-6.4,9.6-13.6,20.8-20,30.4-6.4,10.4-16.8,15.2-28,8-5.6-3.2-61.6-40-108-40-67.2,0-90.4,42.4-90.4,72,0,45.6,35.2,73.6,101.6,100.8,92.8,37.6,172,81.6,172,179.2,0,83.2-74.4,151.2-178.4,151.2-97.6,0-159.2-51.2-172-63.2C686.74,564.71,671.14,559.11,679.14,545.51Z"/><path class="cls-2" d="M1079.13,81.5c0-8,7.2-15.2,15.2-15.2h45.6c8,0,15.2,7.2,15.2,15.2v529.6c0,8-7.2,15.2-15.2,15.2h-45.6c-8,0-15.2-7.2-15.2-15.2Z"/><path class="cls-2" d="M1349.53,298.31c89.6,0,161.6,76.8,161.6,167.2,0,92-72,168.8-161.6,168.8s-161.6-76.8-161.6-168.8C1187.93,375.11,1259.93,298.31,1349.53,298.31Zm0,267.2c50.4,0,90.4-44.8,90.4-100,0-53.6-40-97.6-90.4-97.6s-90.4,44-90.4,97.6C1259.13,520.71,1299.13,565.51,1349.53,565.51Z"/><path class="cls-2" d="M1692.73,298.31c89.6,0,161.6,76.8,161.6,167.2,0,92-72,168.8-161.6,168.8s-161.6-76.8-161.6-168.8C1531.13,375.11,1603.13,298.31,1692.73,298.31Zm0,267.2c50.4,0,90.4-44.8,90.4-100,0-53.6-40-97.6-90.4-97.6s-90.4,44-90.4,97.6C1602.33,520.71,1642.33,565.51,1692.73,565.51Z"/><path class="cls-2" d="M1883.92,81.5c0-8,7.2-15.2,15.2-15.2h46.4c8,0,15.2,7.2,15.2,15.2v251.2c8-5.6,44.8-34.4,96-34.4,90.4,0,133.6,64.8,133.6,152v160.8c0,8-7.2,15.2-15.2,15.2h-44.8a15.19,15.19,0,0,1-15.2-15.2V448.71c0-52-26.4-80.8-68-80.8-48.8,0-82.4,36.8-86.4,50.4v192.8c0,8.8-5.6,15.2-16,15.2h-45.6c-8,0-15.2-7.2-15.2-15.2Z"/></svg>