<?xml version="1.0" encoding="utf-8"?>
<!-- Generator: Adobe Illustrator 20.1.0, SVG Export Plug-In . SVG Version: 6.00 Build 0)  -->
<svg version="1.1" id="Layer_1" xmlns="http://www.w3.org/2000/svg" xmlns:xlink="http://www.w3.org/1999/xlink" x="0px" y="0px"
	 viewBox="0 0 278.1 400" style="enable-background:new 0 0 278.1 400;" xml:space="preserve">
<style type="text/css">
	.st0{fill:#010101;}
</style>
<title>Asset 2</title>
<g id="Layer_2">
	<g id="Layer_1-2">
		<path class="st0" d="M182.3,127.8h0.5c0.7,0,1.4,0,2.2,0c9.9,0.8,18.8,6.1,24.1,14.4l12.6,19.3h6.6c6.7,0,12.2-5.5,12.2-12.2
			c0,0,0,0,0,0V82.4c0-6.7-5.5-12.2-12.2-12.2l0,0H214C212.7,93.2,201.1,114.3,182.3,127.8z"/>
		<path class="st0" d="M36.7,82.4v67.1c0,6.7,5.5,12.2,12.2,12.2c0,0,0,0,0,0h7L69,142c5.6-8.6,14.9-14,25.1-14.5
			c-18.4-13.4-29.7-34.4-30.8-57.1H48.9C42.3,70.4,36.9,75.7,36.7,82.4z"/>
		<path class="st0" d="M26.2,235.1l28.1,18.3c1,0.6,2.2,1,3.3,1c2.1,0,4-1,5.1-2.8l18-27.8c0.2-0.2,0.4-0.4,0.7-0.4
			c0.5,0,0.9,0.4,0.9,0.9v28c3.8,0.9,7.5,2,11.2,3.3c13.7,5.1,26.8,11.4,39.4,18.9l6.2,3.7l4.6-2.8c12.9-7.8,26.5-14.4,40.7-19.7
			c3.4-1.2,6.8-2.2,10.2-3.1v-29.1c0.1-0.5,0.5-0.9,1-0.8c0.2,0,0.5,0.2,0.6,0.4l19,29.2c1.1,1.7,3.1,2.8,5.1,2.8
			c1.2,0,2.3-0.3,3.3-1l27.9-18c2.8-1.8,3.6-5.6,1.8-8.4c0,0,0,0,0,0l-42.7-65.6l-9.3-14.6c-3.9-6-10.5-9.9-17.7-10.3h-1.2h-15.2
			c-1.7,0-3-1.4-3-3v-3.4c0-1.8,1.1-3.5,2.8-4.3c21.8-10.4,36.3-31.9,37.7-56c0-1.3,0-2.6,0-3.9c0-36.7-29.7-66.4-66.4-66.4
			S72,29.7,72,66.4c0,0,0,0,0,0c0,1.3,0,2.6,0,3.9c1.4,23.5,15.1,44.5,36,55.2c1.6,0.8,2.6,2.5,2.6,4.3v4.2c0,1.7-1.4,3-3,3h-3.9
			c-2,0-4.1,0-6-0.5h-2.2c-7.7,0-14.9,3.9-19.2,10.4l-9.7,15l-42.1,64.8C22.7,229.4,23.4,233.2,26.2,235.1
			C26.2,235.1,26.2,235.1,26.2,235.1z M100.5,94c-1.5-1.5-2.7-3.3-3.3-5.3c-2.1-6-3.4-12.2-3.9-18.5c-0.8-9.7,1-19.5,5.2-28.3
			c0.8-1.6,2.4-2.6,4.1-2.7h70.2c1.9,0,3.5,1.1,4.3,2.8c4.1,8.8,5.8,18.6,4.9,28.3c-0.5,6.3-1.8,12.5-3.9,18.5c-0.6,1.9-1.6,3.6-3,5
			C158.5,109.6,117.3,109.6,100.5,94z M113.2,205c-5,0-9.1-4.1-9.1-9.1v-21.8c0-5,4.1-9.1,9.1-9.1h49.3c5,0,9.1,4.1,9.1,9.1v21.7
			c0,5-4.1,9.1-9.1,9.1L113.2,205z"/>
		<path class="st0" d="M85.3,394.4c-0.9,2,0.1,4.4,2.1,5.3c0.5,0.2,1,0.3,1.5,0.3h41.1c2.2,0,4-1.9,3.9-4.1c0-0.5-0.1-1-0.3-1.5
			l-5.6-12.7c-0.8-1.7-0.5-3.7,0.6-5.2l0.7-1c2.3-3.2,3.6-7.1,3.6-11v-79.1l-3.7-2.2l-8-4.6c-12.2-7-25.1-12.6-38.6-16.7v102.7
			c0,3.9,1.6,7.6,4.5,10.2l2.4,2.2c1.4,1.2,1.8,3.2,1,4.9L85.3,394.4z"/>
		<path class="st0" d="M189.3,374.6c2.9-2.6,4.5-6.3,4.5-10.2v-91.1c0.4-1,0.6-2.1,0.6-3.1v-7.9h-0.6c-12.9,4.1-25.3,9.5-37,16.3
			l-8,4.6l-5.2,3.2v78.1c0,4,1.3,7.8,3.6,11l0.7,1c1.1,1.5,1.4,3.5,0.6,5.2l-5.6,12.7c-0.9,2,0.1,4.4,2.1,5.3c0.5,0.2,1,0.3,1.6,0.3
			h41.1c2.2,0,4-1.8,4-4c0-0.5-0.1-1.1-0.3-1.6l-5.6-12.7c-0.7-1.7-0.3-3.6,1-4.9L189.3,374.6z"/>
		<path class="st0" d="M276.2,257.6l-10.4-7.2c-1.6-1.1-2.5-2.9-2.5-4.8v-3.1c0-1.5-1-2.8-2.4-3.2c-0.9-0.3-1.9-0.1-2.7,0.4
			l-33.7,21.8c-0.8,0.5-1.3,1.4-1.2,2.4c0,1.2,0.8,2.3,2,2.7l4.1,1.2c1.8,0.5,3.2,2,3.7,3.9l2.9,11.9c0.6,2.3,2.9,3.8,5.2,3.2
			c0.5-0.1,0.9-0.3,1.3-0.6l33.7-21.7c1.9-1.2,2.5-3.7,1.4-5.6C277.2,258.4,276.8,257.9,276.2,257.6z"/>
		<path class="st0" d="M1.8,264.4l33.7,21.7c2,1.3,4.7,0.7,6-1.3c0.3-0.4,0.5-0.9,0.6-1.3l2.9-11.9c0.5-1.8,1.9-3.3,3.7-3.9l4.1-1.2
			c1.4-0.4,2.2-1.9,1.9-3.3c-0.2-0.7-0.6-1.3-1.2-1.7l-33.8-21.7c-0.7-0.4-1.5-0.6-2.2-0.5c-1.7,0.2-2.9,1.6-2.9,3.3v3.1
			c0,1.9-0.9,3.7-2.5,4.8l-10.3,7.2c-1.9,1.3-2.3,3.8-1.1,5.7C1,263.7,1.4,264.1,1.8,264.4z"/>
	</g>
</g>
</svg>
