<svg xmlns="http://www.w3.org/2000/svg" viewBox="0 0 68.07 112.11"><defs><style>.cls-1{fill:#3c4655;}.cls-2{fill:none;}</style></defs><title>Asset 1</title><g id="Layer_2" data-name="Layer 2"><g id="Layer_1-2" data-name="Layer 1"><path class="cls-1" d="M17.05,45.52a60.18,60.18,0,0,1,5.61-3.19c.15-.18.21-.29.16-.32-.6-.33-.45-1-2-.87s-10.21,3.62-11,4-4.9,5.75-5,6.83A4,4,0,0,0,5,53.69l1,1.87A43.11,43.11,0,0,1,17.05,45.52Z"/><circle class="cls-1" cx="57.22" cy="46.76" r="3.37"/><path class="cls-1" d="M52.82,33.76c3.64,0,9.16-.12,14.48,6.33h.38V33.92H61.79v-.84h5.89V30.83H58.14V30h9.53V27.75H61.79v-.84h5.89V24.67H61.79v-.84h5.89V21.3H58.14v-.84h9.53V18.22H61.79v-.84h5.89V15.14H61.79v-.84h5.89V12.05H58.14v-.84h9.53V9H61.79V8.13h5.89V5.89H61.79V5h5.89V2.8H58.14V2h9.53V0H52.82Z"/><circle class="cls-2" cx="57.22" cy="46.76" r="5.44"/><path class="cls-2" d="M34.43,94.73a18.76,18.76,0,0,1-9.53-2.6c-1.52.36-3,.67-4.43.91A22.14,22.14,0,0,0,56.26,79.56c-1.24.75-2.55,1.49-3.92,2.22A18.88,18.88,0,0,1,34.43,94.73Z"/><path class="cls-1" d="M8.59,89.59c.39,1,3.62,1.52,9.14.81a22.12,22.12,0,0,1-4-6.68C9.09,87.09,8.41,89.1,8.59,89.59Z"/><path class="cls-1" d="M63.46,68.7c-.19-.5-2.18-1.61-8.4-.9a22.08,22.08,0,0,1,1.51,8C61.58,72.45,63.86,69.75,63.46,68.7Z"/><path class="cls-1" d="M34.43,57A18.86,18.86,0,0,0,21.68,89.74,102.79,102.79,0,0,0,38.2,84.86a104.14,104.14,0,0,0,15-7,19.24,19.24,0,0,0,.11-2A18.88,18.88,0,0,0,34.43,57Z"/><path class="cls-1" d="M52.34,81.78a117.46,117.46,0,0,1-13.07,5.88A116.36,116.36,0,0,1,24.9,92.13,18.84,18.84,0,0,0,52.34,81.78Z"/><path class="cls-1" d="M67.74,46.72c0-2.92-2.27-6.72-4.58-8.39-5.56-4-14.22-2.5-20.49-1.49A66.76,66.76,0,0,0,17.44,46.3C7.33,52.81-.34,62.9,0,75.36c1.39,49.94,53.25,36.52,64.34,30.47,1.93-1.05,3.06-3.37,3.39-6.15C68.49,93.51,67.74,46.72,67.74,46.72Zm-10.53-5.4a5.44,5.44,0,1,1-5.44,5.44A5.44,5.44,0,0,1,57.22,41.32Zm-1,38.25A22.14,22.14,0,0,1,20.47,93a42.39,42.39,0,0,1-7.05.7c-4,0-6.8-.91-7.63-3.09-1-2.69,1.35-6,7-10A22.14,22.14,0,0,1,53.7,64.94c.11,0,.24,0,0,0,7.28-1,11.5-.09,12.56,2.69C67.56,71,63.1,75.42,56.26,79.56Z"/></g></g></svg>