<?xml version="1.0" encoding="utf-8"?>
<!-- Generator: Adobe Illustrator 20.1.0, SVG Export Plug-In . SVG Version: 6.00 Build 0)  -->
<svg version="1.1" id="Layer_1" xmlns="http://www.w3.org/2000/svg" xmlns:xlink="http://www.w3.org/1999/xlink" x="0px" y="0px"
	 viewBox="0 0 400 400" style="enable-background:new 0 0 400 400;" xml:space="preserve">
<style type="text/css">
	.st0{fill:#3C4655;}
</style>
<g>
	<path class="st0" d="M200,400c110.2,0,200-89.8,200-200S310.2,0,200,0S0,89.8,0,200S89.8,400,200,400z M200,362
		c-27.6,0-53.7-6.9-76.8-19.2h153.2C253.7,354.7,227.6,362,200,362z M47.6,145.5c2.7,0.8,5.8,1.2,9.2,1.2c10,0,15-3.1,19.2-5.4
		c3.5-1.9,6.1-3.5,11.9-3.5s8.1,1.5,11.5,3.5c4.2,2.3,9.6,5.4,19.2,5.4c10,0,15-3.1,19.2-5.4c3.5-1.9,6.1-3.5,11.5-3.5
		s8.1,1.5,11.5,3.5c4.2,2.3,9.6,5.4,19.2,5.4c10,0,15-3.1,19.2-5.4c3.5-1.9,6.1-3.5,11.5-3.5c5.8,0,8.1,1.5,11.5,3.5
		c4.2,2.3,9.6,5.4,19.2,5.4c10,0,15-3.1,19.2-5.4c3.5-1.9,6.1-3.5,11.9-3.5s8.1,1.5,11.9,3.5c4.2,2.3,9.6,5.4,19.2,5.4
		c10,0,15-3.1,19.2-5.4c3.5-1.9,6.1-3.5,11.9-3.5s8.1,1.5,11.9,3.5c0.8,0.4,1.9,1.2,3.1,1.5c3.1,8.4,5.8,17.3,7.7,26.5
		c-13.4,3.8-16.1,18-33.8,18c-20.7,0-20.7-19.2-41.8-19.2c-20.7,0-20.7,19.2-41.8,19.2c-20.7,0-20.7-19.2-41.8-19.2
		c-20.7,0-20.7,19.2-41.8,19.2c-20.7,0-20.7-19.2-41.8-19.2c-20.7,0-20.7,19.2-41.8,19.2c-17.7,0-20.3-13.8-33.8-18
		C42.6,161.2,44.9,153.2,47.6,145.5z M80.2,91.4h141.3c0.4-6.5,2.7-12.3,6.5-17.3H98.3C125.9,51.8,161.2,38,200,38
		s73.7,13.4,101.7,36.1h-23.4c3.8,5,6.1,10.7,6.5,17.3h35.3c8.4,9.6,16.1,20,22.3,31.5c-1.5-0.4-3.5-0.4-5.4-0.4
		c-10,0-15,3.1-19.2,5.4c-3.5,1.9-6.1,3.5-11.9,3.5s-8.1-1.5-11.9-3.5c-4.2-2.3-9.6-5.4-19.2-5.4c-10,0-15,3.1-19.2,5.4
		c-3.5,1.9-6.1,3.5-11.9,3.5c-5.8,0-8.1-1.5-11.5-3.5c-4.2-2.3-9.6-5.4-19.2-5.4c-10,0-15,3.1-19.2,5.4c-3.5,1.9-6.1,3.5-11.5,3.5
		c-5.8,0-8.1-1.5-11.5-3.5c-4.2-2.3-9.6-5.4-19.2-5.4c-10,0-15,3.1-19.2,5.4c-3.5,1.9-6.1,3.5-11.5,3.5c-5.8,0-8.1-1.5-11.5-3.5
		c-4.2-2.3-9.6-5.4-19.2-5.4c-10,0-15,3.1-19.2,5.4c-3.5,1.9-6.1,3.5-11.9,3.5c-1.2,0-2.3,0-3.5-0.4
		C60.7,116.3,69.5,102.9,80.2,91.4z M63.7,252.2c0.8-29.9,25-53.7,55.3-53.7s55.3,25,55.3,55.3c0,0.4,0,1.2,0,1.5
		c7.3,5.8,12.3,13.8,25.7,13.8c20.7,0,20.7-19.2,41.8-19.2c20.7,0,20.7,19.2,41.8,19.2c20.7,0,20.7-19.2,41.8-19.2
		c12.7,0,17.7,7.3,24.2,12.7c-3.1,7.7-6.9,15-11.1,21.9H164.7c-1.9,2.7-3.8,5.4-6.1,7.7h174.7c-5.4,7.7-11.1,14.6-17.7,21.1H84.8
		c-6.5-6.5-12.3-13.8-17.7-21.1h12.7c-2.3-2.3-4.6-5-6.1-7.7H62.2c-4.2-6.9-8.1-14.6-11.5-22.3C54.9,258.7,58.3,254.5,63.7,252.2z"
		/>
	<path class="st0" d="M94.8,284.5c5,3.8,11.1,6.5,17.7,7.7c1.9,0.4,4.2,0.4,6.5,0.4s4.2-0.4,6.5-0.4c6.5-1.2,12.7-3.8,17.7-7.7
		c9.2-7.3,15.4-18.4,15.4-31.1c0-1.2,0-2.3,0-3.5c-1.9-20-18.8-35.7-39.2-35.7c-20.7,0-37.6,15.7-39.2,36.1c0,1.2,0,1.9,0,3.1
		C79.8,266,85.6,277.2,94.8,284.5z"/>
	<path class="st0" d="M253,115.9c12.3,0,22.6-10,22.6-22.6c0-0.8,0-1.2,0-1.9c-0.8-7.3-4.6-13.4-10.4-17.3
		c-3.5-2.3-7.7-3.5-11.9-3.5s-8.4,1.2-11.9,3.5c-5.8,3.8-10,10-10.4,17.3c0,0.8,0,1.2,0,1.9C230.7,105.6,240.7,115.9,253,115.9z"/>
</g>
</svg>
