<svg xmlns="http://www.w3.org/2000/svg" xmlns:xlink="http://www.w3.org/1999/xlink" viewBox="0 0 25.95 25.97"><defs><style>.cls-1{fill:none;clip-rule:evenodd;}.cls-2{clip-path:url(#clip-path);}.cls-3{fill:#3d4b55;}.cls-4{clip-path:url(#clip-path-2);}.cls-5{clip-path:url(#clip-path-3);}.cls-6{clip-path:url(#clip-path-4);}</style><clipPath id="clip-path"><path class="cls-1" d="M18.63,6A1.7,1.7,0,0,1,20.3,7a1.67,1.67,0,0,1-.45,1.9Zm-.31,4.25a.3.3,0,0,1-.23,0,.29.29,0,0,1-.16-.16L16.43,6.51a.29.29,0,0,1,0-.22.29.29,0,0,1,.16-.16l1.3-.53,1.72,4.11Zm-4.56,1a1.1,1.1,0,0,0-2,.67,1.07,1.07,0,0,0,0,.14L10,12.75h0L9.66,12h0l-.43-1-.32-.76a0,0,0,0,1,0,0h0l7.23-3,1.08,2.58ZM14.91,18H10.86l1.9-5H13Zm-1.45-6.09a.58.58,0,1,1-.58-.57A.57.57,0,0,1,13.46,11.88ZM7,12.79l-.23-.54,2.09-.86.23.54Zm-.29.71-.52.21h0l-.64-1.53a0,0,0,0,1,0,0L6,11.94h0l.53,1.27h0l.11.25A0,0,0,0,1,6.7,13.51ZM20.79,6.82a2.23,2.23,0,0,0-2.37-1.33l-.14-.33A.26.26,0,0,0,18.14,5a.26.26,0,0,0-.2,0l-1.55.63a.81.81,0,0,0-.44.44.8.8,0,0,0,0,.62v0l-7.23,3a.53.53,0,0,0-.29.29.53.53,0,0,0,0,.41l.22.53-2.09.86v0a.54.54,0,0,0-.71-.29l-.52.21a.53.53,0,0,0-.29.7l.64,1.53a.53.53,0,0,0,.29.29.54.54,0,0,0,.41,0L6.9,14h0a.53.53,0,0,0,.29-.7v0l2.09-.86.22.53a.53.53,0,0,0,.29.29.54.54,0,0,0,.41,0L12,12.5a1.1,1.1,0,0,0,.28.28l-3,7.84a.26.26,0,0,0,.15.33l.09,0a.26.26,0,0,0,.24-.17l.88-2.31h4.45L16,20.8a.26.26,0,0,0,.24.17l.09,0a.26.26,0,0,0,.15-.33l-3-7.84A1.08,1.08,0,0,0,14,11.69l3.47-1.42v0a.81.81,0,0,0,.44.44.82.82,0,0,0,.63,0l1.55-.63a.26.26,0,0,0,.14-.14.26.26,0,0,0,0-.2l-.14-.33A2.19,2.19,0,0,0,20.79,6.82Z"/></clipPath><clipPath id="clip-path-2"><path class="cls-1" d="M12.89,11.62a.26.26,0,0,0-.18.08.26.26,0,0,0,0,.37.26.26,0,0,0,.37,0,.26.26,0,0,0,0-.37A.26.26,0,0,0,12.89,11.62Z"/></clipPath><clipPath id="clip-path-3"><path class="cls-1" d="M15.59,8.07,15,8.31a.26.26,0,0,0-.14.34.26.26,0,0,0,.24.16l.1,0,.58-.24a.26.26,0,0,0,.14-.34A.26.26,0,0,0,15.59,8.07Z"/></clipPath><clipPath id="clip-path-4"><path class="cls-1" d="M13.9,8.76l-2.23.91a.26.26,0,0,0-.14.34.26.26,0,0,0,.24.16l.1,0,2.23-.91a.26.26,0,0,0,.14-.34A.26.26,0,0,0,13.9,8.76Z"/></clipPath></defs><title>Asset 1</title><g id="Layer_2" data-name="Layer 2"><g id="Layer_1-2" data-name="Layer 1"><g class="cls-2"><rect class="cls-3" width="25.95" height="25.97"/></g><g class="cls-4"><rect class="cls-3" x="7.62" y="6.62" width="10.52" height="10.52"/></g><g class="cls-5"><rect class="cls-3" x="9.86" y="3.05" width="11.1" height="10.75"/></g><g class="cls-6"><rect class="cls-3" x="6.51" y="3.74" width="12.75" height="11.43"/></g></g></g></svg>