<?xml version="1.0" encoding="utf-8"?>
<!-- Generator: Adobe Illustrator 18.1.1, SVG Export Plug-In . SVG Version: 6.00 Build 0)  -->
<svg version="1.1" id="Layer_1" xmlns="http://www.w3.org/2000/svg" xmlns:xlink="http://www.w3.org/1999/xlink" x="0px" y="0px"
	 viewBox="0 0 1811.6 117.3" enable-background="new 0 0 1811.6 117.3" xml:space="preserve">
<style type="text/css">
 <![CDATA[
 .situation-room-logo-path { fill: #F310A7; }
 ]]>
</style>
<g>
	<path class="situation-room-logo-path" d="M39.2,117.3c-22.4,0-33.9-9.8-36.9-12.7c-1.9-1.9-3.3-3.7-1.2-7.4l7.3-12.9c1.1-1.8,3-2.8,5.2-2.8
		c1.4,0,2.7,0.4,3.6,1c0.1,0.1,0.3,0.2,0.5,0.3c9.7,6.4,16.4,7.8,20.2,7.8c4.9,0,8.3-2.8,8.3-6.9c0-3.3-1.5-8.3-14.5-13.4
		C5.5,59.9,0,44.6,0,33.5c0-8.8,3.5-17,9.8-23.1C16.8,3.6,26.7,0,38.5,0c15.8,0,28.5,7.6,34.8,12.1c3.1,1.9,3,6.1,1.7,8.3l-0.1,0.1
		l-8,12c-1.3,2-3.9,3.5-6.1,3.5c-1,0-1.9-0.3-2.6-0.8c-0.2-0.1-0.6-0.4-1.1-0.7c-3.1-2-12.4-8.2-19.8-8.2c-4.4,0-7.3,2.8-7.3,5.5
		c0,3.4,1.9,7.3,15.4,12.8c5.8,2.3,14.2,6,21,12.1c8,7.1,12,15.8,12,25.8C78.5,99.6,63.8,117.3,39.2,117.3z M5.1,100.3
		c0.2,0.2,0.5,0.6,0.7,0.7c1.9,1.9,12.3,11.3,33.3,11.3c16.9,0,34.3-11.1,34.3-29.8c0-19.1-17.1-28.1-29.9-33.2
		C30.3,43.9,25,38.9,25,31.8c0-5.8,5.5-10.5,12.3-10.5c9,0,18.9,6.6,22.6,9.1c0.4,0.3,0.8,0.5,0.9,0.6l0.1,0.1
		c0.5-0.1,1.5-0.6,1.9-1.2l7.9-11.9c0.2-0.4,0.2-1.4,0-1.6l-0.2-0.1C64.7,12,53,5,38.5,5C15.5,5,5,19.8,5,33.5
		c0,17.2,15.6,27,28.7,32.2c7.6,3,17.6,8.2,17.6,18.1c0,6.9-5.6,11.9-13.3,11.9c-4.5,0-12.2-1.5-23-8.6c-0.2-0.1-0.3-0.2-0.4-0.2
		l-0.3-0.2c0,0-0.3-0.1-0.8-0.1c-0.2,0-0.7,0-0.9,0.3L5.5,99.7C5.3,100,5.2,100.2,5.1,100.3z"/>
</g>
<g>
	<path class="situation-room-logo-path" d="M116.4,115.8H98c-3,0-5.5-2.5-5.5-5.5V7c0-3,2.5-5.5,5.5-5.5h37.6c20.6,0,37.4,16.6,37.4,37
		c0,20.7-16.7,37.6-37.3,37.6h-13.9v34.2C121.8,113.3,119.3,115.8,116.4,115.8z M98,6.6c-0.4,0-0.5,0.3-0.5,0.5v103.3
		c0,0.2,0.1,0.5,0.5,0.5h18.4c0.2,0,0.5-0.3,0.5-0.5V71.1h18.9c17.8,0,32.3-14.6,32.3-32.6c0-17.6-14.6-32-32.4-32H98z M134.2,53.4
		h-17.3V24.5h17.3c8.2,0,14.8,6.3,14.8,14C149,46.8,142.5,53.4,134.2,53.4z M121.8,48.4h12.3c5.5,0,9.8-4.3,9.8-9.8
		c0-5.1-4.3-9-9.8-9h-12.3V48.4z"/>
</g>
<g>
	<path class="situation-room-logo-path" d="M265.4,115.8H248c-4.3,0-6.2-2-7.7-5.3l-5-10.9h-39.2l-5,11c-1.4,3.3-4.3,5.2-7.9,5.2h-17.2
		c-2,0-3.7-0.9-4.7-2.4c-1-1.5-1.1-3.4-0.3-5.2l48.8-105C211,1.2,213,0,215,0h1.6c2,0,4,1.2,4.9,3.1l48.9,105.1
		c0.8,1.7,0.7,3.7-0.3,5.2C269,114.9,267.3,115.8,265.4,115.8z M192.9,94.5h45.7l6.3,13.8c1.1,2.3,1.6,2.4,3.2,2.4h17.3
		c0.3,0,0.4-0.1,0.4-0.1c0,0,0-0.2-0.1-0.4l-48.8-105c0-0.1-0.3-0.3-0.4-0.3L215,5c-0.1,0-0.3,0.2-0.4,0.3l-48.8,104.9
		c-0.1,0.2-0.1,0.4-0.1,0.4c0,0,0.2,0.1,0.5,0.1h17.2c1.6,0,2.7-0.7,3.3-2.2L192.9,94.5z M231.5,78.3H200l14-30.7h3.4L231.5,78.3z
		 M207.8,73.3h15.9l-8-17.4L207.8,73.3z"/>
</g>
<g>
	<path class="situation-room-logo-path" d="M328.2,117.3c-15.8,0-30.6-6-41.6-17c-11.1-11-17.2-25.7-17.2-41.5c0-32.4,26.4-58.8,58.8-58.8
		c15.8,0,27.9,4.7,39.4,15.2c1.2,1,1.8,2.4,1.9,3.9c0,1.5-0.5,2.9-1.6,4l-12.1,12.6c-1,1-2.4,1.6-3.8,1.6c-1.4,0-2.7-0.5-3.7-1.5
		c-5.2-4.6-12.3-7.3-19.4-7.3c-15.7,0-28.1,13-28.1,29.6c0,16.4,12.4,29.2,28.2,29.2c7,0,14.3-2.6,19.3-6.9c1-0.8,2.3-1.3,3.6-1.3
		c1.6,0,3,0.6,3.9,1.7l12.1,12.9c2,2,1.9,5.6-0.2,7.7C357.2,111.8,343.5,117.3,328.2,117.3z M328.2,5c-29.7,0-53.8,24.1-53.8,53.8
		c0,14.4,5.6,27.9,15.7,37.9c10.1,10,23.7,15.6,38.1,15.6c13.9,0,26.4-5,36.2-14.4c0.1-0.1,0.2-0.5,0.1-0.7l-12.2-13
		c0,0-0.1,0-0.2,0c-0.2,0-0.3,0.1-0.4,0.1c-5.9,5.1-14.3,8.1-22.5,8.1c-18.6,0-33.2-15-33.2-34.2c0-19.4,14.5-34.6,33.1-34.6
		c8.3,0,16.6,3.1,22.7,8.6l0.1,0.1c0.1,0.1,0.2,0.1,0.4,0l12.1-12.6c0.2-0.2,0.2-0.3,0.2-0.4c0-0.2-0.1-0.3-0.2-0.4
		C353.8,9.3,342.7,5,328.2,5z"/>
</g>
<g>
	<path class="situation-room-logo-path" d="M452.4,115.8h-64.6c-3,0-5.5-2.5-5.5-5.5V7c0-3,2.5-5.5,5.5-5.5h64.6c3,0,5.5,2.5,5.5,5.5v17
		c0,3-2.5,5.5-5.5,5.5h-40.7v14.3h33.1c3,0,5.5,2.5,5.5,5.5v17c0,3-2.5,5.5-5.5,5.5h-33.1v16.1h40.7c3,0,5.5,2.5,5.5,5.5v17
		C457.9,113.3,455.4,115.8,452.4,115.8z M387.8,6.6c-0.3,0-0.5,0.3-0.5,0.5v103.3c0,0.2,0.1,0.5,0.5,0.5h64.6c0.3,0,0.5-0.3,0.5-0.5
		v-17c0-0.2-0.1-0.5-0.5-0.5h-45.7V66.8h38.1c0.2,0,0.5-0.1,0.5-0.5v-17c0-0.2-0.3-0.5-0.5-0.5h-38.1V24.5h45.7
		c0.3,0,0.5-0.3,0.5-0.5V7c0-0.2-0.1-0.5-0.5-0.5H387.8z"/>
</g>
<g>
	<path class="situation-room-logo-path" d="M546.4,117.3c-22.4,0-33.9-9.8-36.9-12.7c-1.9-1.9-3.3-3.7-1.2-7.4l7.3-12.9c1.1-1.8,3-2.8,5.2-2.8
		c1.4,0,2.7,0.4,3.6,1c0.1,0.1,0.3,0.2,0.5,0.3c9.7,6.4,16.4,7.8,20.2,7.8c4.9,0,8.3-2.8,8.3-6.9c0-3.3-1.5-8.3-14.5-13.4
		c-26.3-10.4-31.8-25.8-31.8-36.8c0-8.8,3.5-17,9.8-23.1C524,3.6,534,0,545.8,0c15.8,0,28.5,7.6,34.8,12.1c3.1,1.9,3,6.1,1.7,8.3
		l-0.1,0.1l-8,12c-1.3,2-3.9,3.5-6.1,3.5c-1,0-1.9-0.3-2.6-0.8c-0.2-0.1-0.6-0.4-1.1-0.7c-3.1-2-12.4-8.2-19.8-8.2
		c-4.4,0-7.3,2.8-7.3,5.5c0,3.4,1.9,7.3,15.4,12.8c5.8,2.3,14.2,6,21,12.1c8,7.1,12,15.8,12,25.8C585.7,99.6,571,117.3,546.4,117.3z
		 M512.4,100.3c0.2,0.2,0.5,0.6,0.7,0.7c1.9,1.9,12.3,11.3,33.3,11.3c16.9,0,34.3-11.1,34.3-29.8c0-19.1-17.1-28.1-29.9-33.2
		c-13.2-5.3-18.6-10.4-18.6-17.5c0-5.8,5.5-10.5,12.3-10.5c9,0,18.9,6.6,22.6,9.1c0.4,0.3,0.8,0.5,0.9,0.6l0.1,0.1
		c0.5-0.1,1.5-0.6,1.9-1.2l7.9-11.9c0.2-0.4,0.2-1.4,0-1.6l-0.2-0.1C572,12,560.2,5,545.8,5c-23,0-33.5,14.8-33.5,28.5
		c0,17.2,15.6,27,28.7,32.2c7.6,3,17.6,8.2,17.6,18.1c0,6.9-5.6,11.9-13.3,11.9c-4.5,0-12.2-1.5-23-8.6c-0.2-0.1-0.3-0.2-0.4-0.2
		l-0.3-0.2c0,0-0.3-0.1-0.8-0.1c-0.2,0-0.7,0-0.9,0.3l-7.3,12.9C512.5,100,512.4,100.2,512.4,100.3z"/>
</g>
<g>
	<path class="situation-room-logo-path" d="M623.9,115.8h-18.7c-3,0-5.5-2.5-5.5-5.5V7c0-3,2.5-5.5,5.5-5.5h18.7c3,0,5.5,2.5,5.5,5.5v103.3
		C629.4,113.3,626.9,115.8,623.9,115.8z M605.2,6.6c-0.2,0-0.5,0.3-0.5,0.5v103.3c0,0.2,0.3,0.5,0.5,0.5h18.7c0.2,0,0.5-0.3,0.5-0.5
		V7c0-0.2-0.3-0.5-0.5-0.5H605.2z"/>
</g>
<g>
	<path class="situation-room-logo-path" d="M689.4,115.8h-18.7c-3,0-5.5-2.5-5.5-5.5V29.5h-19.8c-3,0-5.5-2.5-5.5-5.5V7c0-3,2.5-5.5,5.5-5.5h69.3
		c3,0,5.5,2.5,5.5,5.5v17c0,3-2.5,5.5-5.5,5.5h-19.8v80.8C694.9,113.3,692.4,115.8,689.4,115.8z M645.4,6.6c-0.3,0-0.5,0.3-0.5,0.5
		v17c0,0.2,0.1,0.5,0.5,0.5h24.8v85.8c0,0.2,0.3,0.5,0.5,0.5h18.7c0.2,0,0.5-0.3,0.5-0.5V24.5h24.8c0.4,0,0.5-0.3,0.5-0.5V7
		c0-0.2-0.1-0.5-0.5-0.5H645.4z"/>
</g>
<g>
	<path class="situation-room-logo-path" d="M776,117.3c-25.8,0-46.8-20.6-46.8-45.9V7c0-3,2.5-5.5,5.5-5.5h19.2c3,0,5.5,2.5,5.5,5.5v63.2
		c0,9.8,7.2,17.2,16.7,17.2c9.7,0,17-7.4,17-17.2V7c0-3,2.5-5.5,5.5-5.5h19.2c3,0,5.5,2.5,5.5,5.5v64.4
		C823.1,96.7,802,117.3,776,117.3z M734.7,6.6c-0.2,0-0.5,0.3-0.5,0.5v64.4c0,22.5,18.8,40.9,41.8,40.9c23.2,0,42.1-18.3,42.1-40.9
		V7c0-0.2-0.3-0.5-0.5-0.5h-19.2c-0.3,0-0.5,0.3-0.5,0.5v63.2c0,12.4-9.7,22.2-22,22.2c-12.2,0-21.7-9.7-21.7-22.2V7
		c0-0.2-0.1-0.5-0.5-0.5H734.7z"/>
</g>
<g>
	<path class="situation-room-logo-path" d="M928.6,115.8h-17.3c-4.3,0-6.2-2-7.7-5.3l-5-10.9h-39.2l-5,11c-1.4,3.3-4.3,5.2-7.9,5.2h-17.2
		c-2,0-3.7-0.9-4.7-2.4c-1-1.5-1.1-3.4-0.3-5.2l48.8-105c1-1.9,2.9-3.2,4.9-3.2h1.6c2,0,4,1.2,4.9,3.1l48.9,105.1
		c0.8,1.7,0.7,3.7-0.3,5.2C932.3,114.9,930.6,115.8,928.6,115.8z M856.1,94.5h45.7l6.3,13.8c1.1,2.3,1.6,2.4,3.2,2.4h17.3
		c0.3,0,0.4-0.1,0.5-0.1c0,0,0-0.2-0.1-0.4l-48.8-105c0-0.1-0.3-0.3-0.4-0.3l-1.5,0c-0.1,0-0.3,0.2-0.4,0.3L829,110.3
		c-0.1,0.2-0.1,0.4-0.1,0.4c0,0,0.2,0.1,0.5,0.1h17.2c1.6,0,2.7-0.7,3.3-2.2L856.1,94.5z M894.7,78.3h-31.5l14-30.7h3.4L894.7,78.3z
		 M871,73.3h15.9l-8-17.4L871,73.3z"/>
</g>
<g>
	<path class="situation-room-logo-path" d="M971,115.8h-18.7c-3,0-5.5-2.5-5.5-5.5V29.5H927c-3,0-5.5-2.5-5.5-5.5V7c0-3,2.5-5.5,5.5-5.5h69.3
		c3,0,5.5,2.5,5.5,5.5v17c0,3-2.5,5.5-5.5,5.5h-19.8v80.8C976.5,113.3,974,115.8,971,115.8z M927,6.6c-0.3,0-0.5,0.3-0.5,0.5v17
		c0,0.2,0.1,0.5,0.5,0.5h24.8v85.8c0,0.2,0.3,0.5,0.5,0.5H971c0.2,0,0.5-0.3,0.5-0.5V24.5h24.8c0.3,0,0.5-0.3,0.5-0.5V7
		c0-0.2-0.1-0.5-0.5-0.5H927z"/>
</g>
<g>
	<path class="situation-room-logo-path" d="M1036.5,115.8h-18.7c-3,0-5.5-2.5-5.5-5.5V7c0-3,2.5-5.5,5.5-5.5h18.7c3,0,5.5,2.5,5.5,5.5v103.3
		C1042,113.3,1039.5,115.8,1036.5,115.8z M1017.8,6.6c-0.2,0-0.5,0.3-0.5,0.5v103.3c0,0.2,0.3,0.5,0.5,0.5h18.7
		c0.2,0,0.5-0.3,0.5-0.5V7c0-0.2-0.3-0.5-0.5-0.5H1017.8z"/>
</g>
<g>
	<path class="situation-room-logo-path" d="M1114.4,117.3c-15.8,0-30.5-6-41.5-17s-17-25.7-17-41.5c0-15.8,6-30.6,17-41.6c11-11.1,25.7-17.2,41.5-17.2
		c15.8,0,30.5,6.1,41.6,17.2c11,11.1,17.1,25.9,17.1,41.6c0,15.8-6.1,30.5-17.1,41.5C1144.9,111.3,1130.1,117.3,1114.4,117.3z
		 M1114.4,5c-14.4,0-27.9,5.6-37.9,15.7c-10,10.1-15.6,23.7-15.6,38.1c0,30,23.5,53.5,53.5,53.5c14.4,0,27.9-5.5,38-15.6
		c10.1-10,15.6-23.5,15.6-37.9C1168,29.1,1144,5,1114.4,5z M1114.4,92.4c-18.5,0-33.5-15-33.5-33.5c0-18.7,15-33.9,33.5-33.9
		c18.6,0,33.7,15.2,33.7,33.9C1148.1,77.3,1132.9,92.4,1114.4,92.4z M1114.4,30c-15.7,0-28.5,12.9-28.5,28.9
		c0,15.7,12.8,28.5,28.5,28.5c15.8,0,28.7-12.8,28.7-28.5C1143.1,42.9,1130.2,30,1114.4,30z"/>
</g>
<g>
	<path class="situation-room-logo-path" d="M1277.1,117.3h-2.5c-1,0-3-0.7-3.8-1.5L1213.3,58v52.3c0,3-2.5,5.5-5.5,5.5h-18.6c-3,0-5.5-2.5-5.5-5.5
		l-0.2-105c0-2.9,2.5-5.3,5.5-5.3h4.9l58.9,56.7V7c0-3,2.5-5.5,5.5-5.5h18.7c3,0,5.5,2.5,5.5,5.5v105
		C1282.5,114.9,1280,117.3,1277.1,117.3z M1274.7,112.3h2.3c0.2,0,0.5-0.2,0.5-0.3V7c0-0.2-0.3-0.5-0.5-0.5h-18.7
		c-0.3,0-0.5,0.3-0.5,0.5v57.9h-3.7L1192,5h-2.9c-0.2,0-0.5,0.2-0.5,0.3l0.2,105c0,0.2,0.3,0.5,0.5,0.5h18.6c0.3,0,0.5-0.3,0.5-0.5
		V49.6h3.7l62.2,62.5C1274.3,112.2,1274.6,112.3,1274.7,112.3z"/>
</g>
<g>
	<path class="situation-room-logo-path" d="M1420.6,115.8h-20.7c-2.3,0-4-1.4-4.7-2.8l-20.1-40h-6.7v37.3c0,3-2.5,5.5-5.5,5.5h-18.6
		c-3,0-5.5-2.5-5.5-5.5V7c0-3,2.5-5.5,5.5-5.5h46.6c20.1,0,36.5,16.2,36.5,36.2c0,13.8-8.4,26.1-22.1,32.6l20.1,37.2
		c1,1.8,1,3.9,0,5.6C1424.4,114.8,1422.7,115.8,1420.6,115.8z M1399.5,110.7c0,0,0.2,0.1,0.3,0.1h20.7c0.2,0,0.4,0,0.5-0.2
		c0.1-0.1,0.1-0.4-0.1-0.7l-22.7-42.1l2.6-1c13.3-5.3,21.5-16.5,21.5-29c0-17.2-14.1-31.2-31.5-31.2h-46.6c-0.3,0-0.5,0.3-0.5,0.5
		v103.3c0,0.2,0.1,0.5,0.5,0.5h18.6c0.2,0,0.5-0.3,0.5-0.5V68h14.8L1399.5,110.7z M1388.9,53.2h-25.6V23.9h25.6
		c7.9,0,14.4,6.4,14.4,14.4C1403.3,46.2,1396.6,53.2,1388.9,53.2z M1368.3,48.2h20.6c4.9,0,9.4-4.8,9.4-10c0-5.1-4.3-9.4-9.4-9.4
		h-20.6V48.2z"/>
</g>
<g>
	<path class="situation-room-logo-path" d="M1493.9,117.3c-15.8,0-30.5-6-41.5-17c-11-11-17-25.7-17-41.5c0-15.8,6-30.6,17-41.6
		c11-11.1,25.7-17.2,41.5-17.2c15.8,0,30.5,6.1,41.6,17.2c11,11.1,17.1,25.9,17.1,41.6c0,15.8-6.1,30.5-17.1,41.5
		C1524.4,111.3,1509.7,117.3,1493.9,117.3z M1493.9,5c-14.4,0-27.9,5.6-37.9,15.7c-10,10.1-15.6,23.7-15.6,38.1
		c0,30,23.5,53.5,53.5,53.5c14.4,0,27.9-5.5,38-15.6c10.1-10,15.6-23.5,15.6-37.9C1547.6,29.1,1523.5,5,1493.9,5z M1493.9,92.4
		c-18.5,0-33.5-15-33.5-33.5c0-18.7,15-33.9,33.5-33.9c18.6,0,33.7,15.2,33.7,33.9C1527.6,77.3,1512.5,92.4,1493.9,92.4z M1493.9,30
		c-15.7,0-28.5,12.9-28.5,28.9c0,15.7,12.8,28.5,28.5,28.5c15.8,0,28.7-12.8,28.7-28.5C1522.6,42.9,1509.7,30,1493.9,30z"/>
</g>
<g>
	<path class="situation-room-logo-path" d="M1620.1,117.3c-15.8,0-30.5-6-41.5-17s-17-25.7-17-41.5c0-15.8,6-30.6,17-41.6c11-11.1,25.7-17.2,41.5-17.2
		c15.8,0,30.5,6.1,41.6,17.2c11,11.1,17.1,25.9,17.1,41.6c0,15.8-6.1,30.5-17.1,41.5C1650.6,111.3,1635.9,117.3,1620.1,117.3z
		 M1620.1,5c-14.4,0-27.9,5.6-37.9,15.7c-10,10.1-15.6,23.7-15.6,38.1c0,30,23.5,53.5,53.5,53.5c14.4,0,27.9-5.5,38-15.6
		c10.1-10,15.6-23.5,15.6-37.9C1673.8,29.1,1649.7,5,1620.1,5z M1620.1,92.4c-18.5,0-33.5-15-33.5-33.5c0-18.7,15-33.9,33.5-33.9
		c18.6,0,33.7,15.2,33.7,33.9C1653.8,77.3,1638.7,92.4,1620.1,92.4z M1620.1,30c-15.7,0-28.5,12.9-28.5,28.9
		c0,15.7,12.8,28.5,28.5,28.5c15.8,0,28.7-12.8,28.7-28.5C1648.8,42.9,1635.9,30,1620.1,30z"/>
</g>
<g>
	<path class="situation-room-logo-path" d="M1748.5,117.3h-2.8c-1.9,0-4-1.3-4.9-3.1l-23-44.1l-5.8,41c-0.3,2.6-2.7,4.6-5.4,4.6h-18.4
		c-1.7,0-3.2-0.7-4.2-1.9c-1-1.2-1.4-2.8-1.2-4.4l17.6-104.8c0.3-2.6,2.7-4.6,5.3-4.6h2.5c1.7,0,4,1.1,4.9,2.9l34.1,63.5l34.1-63.6
		c0.9-1.8,3.2-2.9,4.9-2.9h2.5c2.6,0,5,2.1,5.3,4.6l17.6,104.8c0.3,1.7-0.2,3.3-1.2,4.5c-1,1.2-2.6,1.9-4.2,1.9h-18.4
		c-2.6,0-5.1-2.1-5.4-4.7l-6-40.9l-22.9,44.1C1752.5,115.9,1750.3,117.3,1748.5,117.3z M1714.2,60.1h4l27.1,51.9
		c0.1,0.1,0.4,0.3,0.5,0.4l2.6,0c0.2-0.1,0.5-0.3,0.6-0.4l26.9-51.9h4l7.3,50.3c0.1,0.1,0.3,0.3,0.5,0.4h18.4c0.2,0,0.4-0.1,0.4-0.1
		c0.1-0.1,0.1-0.2,0-0.4L1788.9,5.3c0-0.1-0.2-0.3-0.4-0.3l-2.5,0c-0.1,0-0.3,0.2-0.5,0.3L1748.7,74h-3.3l-36.9-68.7
		c-0.1-0.1-0.4-0.2-0.5-0.3l-2.4,0c-0.1,0-0.3,0.2-0.3,0.3l0,0.1l-17.6,104.8c0,0.2,0,0.3,0,0.4c0.1,0.1,0.2,0.1,0.4,0.1h18.4
		c0.2,0,0.5-0.2,0.5-0.3L1714.2,60.1z"/>
</g>
</svg>
